ShimenkanMaster-Black.ufo
<glyph name="E" format="2">
  <advance width="556"/>
  <unicode hex="0045"/>
  <anchor x="290" y="672" name="aboveUC"/>
  <anchor x="294" y="-22" name="belowLC"/>
  <anchor x="396" y="0" name="ogonekUC"/>
  <outline>
    <contour>
      <point x="72" y="0" type="line"/>
      <point x="502" y="0" type="line"/>
      <point x="502" y="144" type="line"/>
      <point x="244" y="144" type="line"/>
      <point x="244" y="260" type="line"/>
      <point x="456" y="260" type="line"/>
      <point x="456" y="404" type="line"/>
      <point x="244" y="404" type="line"/>
      <point x="244" y="506" type="line"/>
      <point x="492" y="506" type="line"/>
      <point x="492" y="650" type="line"/>
      <point x="72" y="650" type="line"/>
    </contour>
  </outline>
</glyph>
<glyph name="F" format="2">
  <advance width="536"/>
  <unicode hex="0046"/>
  <anchor x="290" y="672" name="aboveUC"/>
  <anchor x="168" y="-22" name="belowLC"/>
  <outline>
    <contour>
      <point x="72" y="0" type="line"/>
      <point x="244" y="0" type="line"/>
      <point x="244" y="238" type="line"/>
      <point x="460" y="238" type="line"/>
      <point x="460" y="382" type="line"/>
      <point x="244" y="382" type="line"/>
      <point x="244" y="506" type="line"/>
      <point x="496" y="506" type="line"/>
      <point x="496" y="650" type="line"/>
      <point x="72" y="650" type="line"/>
    </contour>
  </outline>
</glyph>
<glyph name="I" format="2">
  <advance width="316"/>
  <unicode hex="0049"/>
  <anchor x="158" y="672" name="aboveUC"/>
  <anchor x="158" y="-22" name="belowLC"/>
  <anchor x="140" y="0" name="ogonekUC"/>
  <outline>
    <contour>
      <point x="72" y="0" type="line"/>
      <point x="244" y="0" type="line"/>
      <point x="244" y="650" type="line"/>
      <point x="72" y="650" type="line"/>
    </contour>
  </outline>
</glyph>
<glyph name="L" format="2">
  <advance width="530"/>
  <unicode hex="004C"/>
  <anchor x="162" y="672" name="aboveUC"/>
  <anchor x="291" y="-22" name="belowLC"/>
  <outline>
    <contour>
      <point x="72" y="0" type="line"/>
      <point x="490" y="0" type="line"/>
      <point x="490" y="144" type="line"/>
      <point x="244" y="144" type="line"/>
      <point x="244" y="650" type="line"/>
      <point x="72" y="650" type="line"/>
    </contour>
  </outline>
</glyph>
<glyph name="O" format="2">
  <advance width="692"/>
  <unicode hex="004F"/>
  <anchor x="346" y="672" name="aboveUC"/>
  <anchor x="346" y="-22" name="belowLC"/>
  <anchor x="490" y="640" name="hornLC"/>
  <anchor x="346" y="0" name="ogonekUC"/>
  <outline>
    <contour>
      <point x="346" y="-12" type="curve" smooth="yes"/>
      <point x="526" y="-12"/>
      <point x="648" y="114"/>
      <point x="648" y="328" type="curve" smooth="yes"/>
      <point x="648" y="541"/>
      <point x="526" y="662"/>
      <point x="346" y="662" type="curve" smooth="yes"/>
      <point x="166" y="662"/>
      <point x="44" y="542"/>
      <point x="44" y="328" type="curve" smooth="yes"/>
      <point x="44" y="114"/>
      <point x="166" y="-12"/>
    </contour>
    <contour>
      <point x="346" y="136" type="curve" smooth="yes"/>
      <point x="268" y="136"/>
      <point x="220" y="210"/>
      <point x="220" y="328" type="curve" smooth="yes"/>
      <point x="220" y="446"/>
      <point x="268" y="514"/>
      <point x="346" y="514" type="curve" smooth="yes"/>
      <point x="424" y="514"/>
      <point x="472" y="446"/>
      <point x="472" y="328" type="curve" smooth="yes"/>
      <point x="472" y="210"/>
      <point x="424" y="136"/>
    </contour>
  </outline>
</glyph>
<glyph name="T" format="2">
  <advance width="564"/>
  <unicode hex="0054"/>
  <anchor x="282" y="672" name="aboveUC"/>
  <anchor x="282" y="0" name="baseLC"/>
  <anchor x="282" y="-22" name="belowLC"/>
  <outline>
    <contour>
      <point x="196" y="0" type="line"/>
      <point x="368" y="0" type="line"/>
      <point x="368" y="506" type="line"/>
      <point x="540" y="506" type="line"/>
      <point x="540" y="650" type="line"/>
      <point x="24" y="650" type="line"/>
      <point x="24" y="506" type="line"/>
      <point x="196" y="506" type="line"/>
    </contour>
  </outline>
</glyph>
<glyph name="i" format="2">
  <advance width="288"/>
  <unicode hex="0069"/>
  <anchor x="144" y="733" name="aboveLC"/>
  <anchor x="144" y="-22" name="belowLC"/>
  <anchor x="190" y="0" name="ogonekLC"/>
  <outline>
    <contour>
      <point x="58" y="0" type="line"/>
      <point x="230" y="0" type="line"/>
      <point x="230" y="500" type="line"/>
      <point x="58" y="500" type="line"/>
    </contour>
    <contour>
      <point x="144" y="562" type="curve" smooth="yes"/>
      <point x="200" y="562"/>
      <point x="240" y="598"/>
      <point x="240" y="648" type="curve" smooth="yes"/>
      <point x="240" y="698"/>
      <point x="200" y="734"/>
      <point x="144" y="734" type="curve" smooth="yes"/>
      <point x="88" y="734"/>
      <point x="48" y="698"/>
      <point x="48" y="648" type="curve" smooth="yes"/>
      <point x="48" y="598"/>
      <point x="88" y="562"/>
    </contour>
  </outline>
</glyph>
<glyph name="z" format="2">
  <advance width="474"/>
  <unicode hex="007A"/>
  <anchor x="252" y="522" name="aboveLC"/>
  <anchor x="252" y="-22" name="belowLC"/>
  <outline>
    <contour>
      <point x="40" y="0" type="line"/>
      <point x="450" y="0" type="line"/>
      <point x="450" y="134" type="line"/>
      <point x="254" y="134" type="line"/>
      <point x="444" y="408" type="line"/>
      <point x="444" y="500" type="line"/>
      <point x="62" y="500" type="line"/>
      <point x="62" y="366" type="line"/>
      <point x="230" y="366" type="line"/>
      <point x="40" y="92" type="line"/>
    </contour>
  </outline>
</glyph>
<glyph name="Eth" format="2">
  <advance width="668"/>
  <unicode hex="00D0"/>
  <outline>
    <component base="D" xOffset="26"/>
    <contour>
      <point x="24" y="294" type="line"/>
      <point x="386" y="294" type="line"/>
      <point x="386" y="374" type="line"/>
      <point x="100" y="374" type="line"/>
      <point x="24" y="368" type="line"/>
    </contour>
  </outline>
</glyph>
<glyph name="Oslash" format="2">
  <advance width="692"/>
  <unicode hex="00D8"/>
  <anchor x="356" y="672" name="aboveUC"/>
  <outline>
    <component base="O"/>
    <contour>
      <point x="124" y="-46" type="line"/>
      <point x="676" y="628" type="line"/>
      <point x="588" y="696" type="line"/>
      <point x="36" y="22" type="line"/>
    </contour>
  </outline>
</glyph>
<glyph name="dotlessi" format="2">
  <advance width="288"/>
  <unicode hex="0131"/>
  <anchor x="144" y="522" name="aboveLC"/>
  <anchor x="144" y="-22" name="belowLC"/>
  <anchor x="190" y="0" name="ogonekLC"/>
  <outline>
    <contour>
      <point x="58" y="0" type="line"/>
      <point x="230" y="0" type="line"/>
      <point x="230" y="500" type="line"/>
      <point x="58" y="500" type="line"/>
    </contour>
  </outline>
</glyph>
<glyph name="dotlessjstroke" format="2">
  <advance width="340"/>
  <unicode hex="025F"/>
  <anchor x="170" y="522" name="aboveLC"/>
  <outline>
    <contour>
      <point x="14" y="220" type="line"/>
      <point x="322" y="220" type="line"/>
      <point x="322" y="300" type="line"/>
      <point x="90" y="300" type="line"/>
      <point x="14" y="294" type="line"/>
    </contour>
    <component base="dotlessj" xOffset="24"/>
  </outline>
</glyph>
<glyph name="Ismall" format="2">
  <advance width="416"/>
  <unicode hex="026A"/>
  <anchor x="208" y="522" name="aboveLC"/>
  <anchor x="208" y="-22" name="belowLC"/>
  <anchor x="190" y="0" name="ogonekUC"/>
  <outline>
    <contour>
      <point x="54" y="0" type="line"/>
      <point x="362" y="0" type="line"/>
      <point x="362" y="134" type="line"/>
      <point x="294" y="134" type="line"/>
      <point x="294" y="366" type="line"/>
      <point x="362" y="366" type="line"/>
      <point x="362" y="500" type="line"/>
      <point x="54" y="500" type="line"/>
      <point x="54" y="366" type="line"/>
      <point x="122" y="366" type="line"/>
      <point x="122" y="134" type="line"/>
      <point x="54" y="134" type="line"/>
    </contour>
  </outline>
</glyph>
<glyph name="ubar" format="2">
  <advance width="634"/>
  <unicode hex="0289"/>
  <anchor x="320" y="522" name="aboveLC"/>
  <outline>
    <contour>
      <point x="14" y="270" type="line"/>
      <point x="616" y="270" type="line"/>
      <point x="616" y="350" type="line"/>
      <point x="90" y="350" type="line"/>
      <point x="14" y="344" type="line"/>
    </contour>
    <component base="u" xOffset="30"/>
  </outline>
</glyph>
<glyph name="Lsmall" format="2">
  <advance width="440"/>
  <unicode hex="029F"/>
  <anchor x="148" y="564" name="aboveUC"/>
  <anchor x="252" y="-22" name="belowLC"/>
  <outline>
    <contour>
      <point x="58" y="0" type="line"/>
      <point x="414" y="0" type="line"/>
      <point x="414" y="134" type="line"/>
      <point x="230" y="134" type="line"/>
      <point x="230" y="500" type="line"/>
      <point x="58" y="500" type="line"/>
    </contour>
  </outline>
</glyph>
<glyph name="circumflexcmb" format="2">
  <unicode hex="0302"/>
  <anchor x="0" y="522" name="_aboveLC"/>
  <anchor x="0" y="740" name="aboveLC"/>
  <outline>
    <contour>
      <point x="-194" y="618" type="line"/>
      <point x="-130" y="558" type="line"/>
      <point x="-2" y="642" type="line"/>
      <point x="2" y="642" type="line"/>
      <point x="130" y="558" type="line"/>
      <point x="194" y="618" type="line"/>
      <point x="88" y="746" type="line"/>
      <point x="-88" y="746" type="line"/>
    </contour>
  </outline>
</glyph>
<glyph name="macroncmb" format="2">
  <unicode hex="0304"/>
  <anchor x="0" y="522" name="_aboveLC"/>
  <outline>
    <contour>
      <point x="-154" y="588" type="line"/>
      <point x="154" y="588" type="line"/>
      <point x="154" y="696" type="line"/>
      <point x="-154" y="696" type="line"/>
    </contour>
  </outline>
</glyph>
<glyph name="righttackbelowcmb" format="2">
  <unicode hex="0319"/>
  <anchor x="0" y="-22" name="_belowLC"/>
  <outline>
    <contour>
      <point x="92" y="-196" type="line"/>
      <point x="92" y="-116" type="line"/>
      <point x="-16" y="-116" type="line"/>
      <point x="-16" y="-52" type="line"/>
      <point x="-104" y="-52" type="line"/>
      <point x="-104" y="-260" type="line"/>
      <point x="-16" y="-260" type="line"/>
      <point x="-16" y="-196" type="line"/>
    </contour>
  </outline>
</glyph>
<glyph name="uptackbelowcmb" format="2">
  <unicode hex="031D"/>
  <anchor x="0" y="-22" name="_belowLC"/>
  <outline>
    <contour>
      <point x="112" y="-236" type="line"/>
      <point x="112" y="-156" type="line"/>
      <point x="44" y="-156" type="line"/>
      <point x="44" y="-52" type="line"/>
      <point x="-44" y="-52" type="line"/>
      <point x="-44" y="-156" type="line"/>
      <point x="-112" y="-156" type="line"/>
      <point x="-112" y="-236" type="line"/>
    </contour>
  </outline>
</glyph>
<glyph name="downtackbelowcmb" format="2">
  <unicode hex="031E"/>
  <anchor x="0" y="-22" name="_belowLC"/>
  <outline>
    <contour>
      <point x="112" y="-156" type="line"/>
      <point x="112" y="-76" type="line"/>
      <point x="-112" y="-76" type="line"/>
      <point x="-112" y="-156" type="line"/>
      <point x="-44" y="-156" type="line"/>
      <point x="-44" y="-260" type="line"/>
      <point x="44" y="-260" type="line"/>
      <point x="44" y="-156" type="line"/>
    </contour>
  </outline>
</glyph>
<glyph name="plusbelowcmb" format="2">
  <unicode hex="031F"/>
  <anchor x="0" y="-22" name="_belowLC"/>
  <outline>
    <contour>
      <point x="112" y="-196" type="line"/>
      <point x="112" y="-116" type="line"/>
      <point x="44" y="-116" type="line"/>
      <point x="44" y="-52" type="line"/>
      <point x="-44" y="-52" type="line"/>
      <point x="-44" y="-116" type="line"/>
      <point x="-112" y="-116" type="line"/>
      <point x="-112" y="-196" type="line"/>
      <point x="-44" y="-196" type="line"/>
      <point x="-44" y="-260" type="line"/>
      <point x="44" y="-260" type="line"/>
      <point x="44" y="-196" type="line"/>
    </contour>
  </outline>
</glyph>
<glyph name="minusbelowcmb" format="2">
  <unicode hex="0320"/>
  <anchor x="0" y="-22" name="_belowLC"/>
  <outline>
    <contour>
      <point x="-112" y="-196" type="line"/>
      <point x="112" y="-196" type="line"/>
      <point x="112" y="-116" type="line"/>
      <point x="-112" y="-116" type="line"/>
    </contour>
  </outline>
</glyph>
<glyph name="bridgebelowcmb" format="2">
  <unicode hex="032A"/>
  <anchor x="0" y="-22" name="_belowLC"/>
  <outline>
    <contour>
      <point x="48" y="-218" type="line"/>
      <point x="130" y="-218" type="line"/>
      <point x="130" y="-76" type="line"/>
      <point x="-130" y="-76" type="line"/>
      <point x="-130" y="-218" type="line"/>
      <point x="-48" y="-218" type="line"/>
      <point x="-48" y="-156" type="line"/>
      <point x="48" y="-156" type="line"/>
    </contour>
  </outline>
</glyph>
<glyph name="bridgeinvertedbelowcmb" format="2">
  <unicode hex="033A"/>
  <anchor x="0" y="-22" name="_belowLC"/>
  <outline>
    <contour>
      <point x="-130" y="-210" type="line"/>
      <point x="130" y="-210" type="line"/>
      <point x="130" y="-68" type="line"/>
      <point x="48" y="-68" type="line"/>
      <point x="48" y="-130" type="line"/>
      <point x="-48" y="-130" type="line"/>
      <point x="-48" y="-68" type="line"/>
      <point x="-130" y="-68" type="line"/>
    </contour>
  </outline>
</glyph>
<glyph name="squarebelowcmb" format="2">
  <unicode hex="033B"/>
  <anchor x="0" y="-22" name="_belowLC"/>
  <outline>
    <contour>
      <point x="-130" y="-250" type="line"/>
      <point x="130" y="-250" type="line"/>
      <point x="130" y="-62" type="line"/>
      <point x="-130" y="-62" type="line"/>
    </contour>
    <contour>
      <point x="-48" y="-190" type="line"/>
      <point x="-48" y="-120" type="line"/>
      <point x="48" y="-120" type="line"/>
      <point x="48" y="-190" type="line"/>
    </contour>
  </outline>
</glyph>
<glyph name="ghe" format="2">
  <advance width="440"/>
  <unicode hex="0433"/>
  <anchor x="242" y="522" name="aboveLC"/>
  <outline>
    <contour>
      <point x="58" y="0" type="line"/>
      <point x="230" y="0" type="line"/>
      <point x="230" y="366" type="line"/>
      <point x="414" y="366" type="line"/>
      <point x="414" y="500" type="line"/>
      <point x="58" y="500" type="line"/>
    </contour>
  </outline>
</glyph>
<glyph name="ruble" format="2">
  <advance width="540"/>
  <unicode hex="20BD"/>
  <outline>
    <contour>
      <point x="58" y="0" type="line"/>
      <point x="220" y="0" type="line"/>
      <point x="220" y="262" type="line"/>
      <point x="246" y="262" type="line" smooth="yes"/>
      <point x="366" y="262"/>
      <point x="480" y="314"/>
      <point x="480" y="446" type="curve" smooth="yes"/>
      <point x="480" y="577"/>
      <point x="372" y="634"/>
      <point x="246" y="634" type="curve" smooth="yes"/>
      <point x="58" y="634" type="line"/>
    </contour>
    <contour>
      <point x="220" y="346" type="line"/>
      <point x="220" y="528" type="line"/>
      <point x="242" y="528" type="line" smooth="yes"/>
      <point x="290" y="528"/>
      <point x="322" y="500"/>
      <point x="322" y="436" type="curve" smooth="yes"/>
      <point x="322" y="384"/>
      <point x="290" y="346"/>
      <point x="242" y="346" type="curve" smooth="yes"/>
    </contour>
    <contour>
      <point x="0" y="134" type="line"/>
      <point x="412" y="134" type="line"/>
      <point x="412" y="218" type="line"/>
      <point x="76" y="218" type="line"/>
      <point x="0" y="212" type="line"/>
    </contour>
    <contour>
      <point x="0" y="262" type="line"/>
      <point x="132" y="262" type="line"/>
      <point x="132" y="346" type="line"/>
      <point x="76" y="346" type="line"/>
      <point x="0" y="340" type="line"/>
    </contour>
  </outline>
</glyph>
<glyph name="triangleblackright" format="2">
  <advance width="870"/>
  <unicode hex="25B6"/>
  <outline>
    <contour>
      <point x="45" y="-60" type="line"/>
      <point x="47" y="-60" type="line"/>
      <point x="845" y="328" type="line"/>
      <point x="845" y="332" type="line"/>
      <point x="47" y="720" type="line"/>
      <point x="45" y="720" type="line"/>
    </contour>
  </outline>
</glyph>
<glyph name="trianglewhiteright" format="2">
  <advance width="870"/>
  <unicode hex="25B7"/>
  <outline>
    <contour>
      <point x="45" y="-60" type="line"/>
      <point x="47" y="-60" type="line"/>
      <point x="845" y="328" type="line"/>
      <point x="845" y="332" type="line"/>
      <point x="47" y="720" type="line"/>
      <point x="45" y="720" type="line"/>
    </contour>
    <contour>
      <point x="155" y="125" type="line"/>
      <point x="155" y="535" type="line"/>
      <point x="605" y="330" type="line"/>
    </contour>
  </outline>
</glyph>
<glyph name="uni3001" format="2">
  <advance width="550"/>
  <unicode hex="3001"/>
  <outline>
    <contour>
      <point x="80" y="195" type="line"/>
      <point x="275" y="135"/>
      <point x="377" y="-9"/>
      <point x="377" y="-85" type="curve" smooth="yes"/>
      <point x="377" y="-135"/>
      <point x="349" y="-168"/>
      <point x="309" y="-168" type="curve" smooth="yes"/>
      <point x="269" y="-168"/>
      <point x="240" y="-147"/>
      <point x="233" y="-85" type="curve" smooth="yes"/>
      <point x="223" y="5"/>
      <point x="206" y="88"/>
      <point x="60" y="154" type="curve"/>
    </contour>
  </outline>
</glyph>
<glyph name="uni3002" format="2">
  <advance width="550"/>
  <unicode hex="3002"/>
  <outline>
    <contour>
      <point x="275" y="-193" type="curve" smooth="yes"/>
      <point x="378" y="-193"/>
      <point x="456" y="-111"/>
      <point x="456" y="-12" type="curve" smooth="yes"/>
      <point x="456" y="87"/>
      <point x="378" y="169"/>
      <point x="275" y="169" type="curve" smooth="yes"/>
      <point x="172" y="169"/>
      <point x="94" y="87"/>
      <point x="94" y="-12" type="curve" smooth="yes"/>
      <point x="94" y="-111"/>
      <point x="172" y="-193"/>
    </contour>
    <contour>
      <point x="275" y="-103" type="curve" smooth="yes"/>
      <point x="222" y="-103"/>
      <point x="184" y="-60"/>
      <point x="184" y="-12" type="curve" smooth="yes"/>
      <point x="184" y="38"/>
      <point x="222" y="79"/>
      <point x="275" y="79" type="curve" smooth="yes"/>
      <point x="329" y="79"/>
      <point x="366" y="38"/>
      <point x="366" y="-12" type="curve" smooth="yes"/>
      <point x="366" y="-60"/>
      <point x="329" y="-103"/>
    </contour>
  </outline>
</glyph>
<glyph name="uni3008" format="2">
  <advance width="820"/>
  <unicode hex="3008"/>
  <outline>
    <contour>
      <point x="624" y="-42" type="line"/>
      <point x="720" y="-42" type="line"/>
      <point x="596" y="325" type="line"/>
      <point x="720" y="692" type="line"/>
      <point x="624" y="692" type="line"/>
      <point x="500" y="325" type="line"/>
    </contour>
  </outline>
</glyph>
<glyph name="uni3009" format="2">
  <advance width="820"/>
  <unicode hex="3009"/>
  <outline>
    <contour>
      <point x="196" y="692" type="line"/>
      <point x="100" y="692" type="line"/>
      <point x="224" y="325" type="line"/>
      <point x="100" y="-42" type="line"/>
      <point x="196" y="-42" type="line"/>
      <point x="320" y="325" type="line"/>
    </contour>
  </outline>
</glyph>
<glyph name="uni300A" format="2">
  <advance width="820"/>
  <unicode hex="300A"/>
  <outline>
    <contour>
      <point x="644" y="-42" type="line"/>
      <point x="740" y="-42" type="line"/>
      <point x="616" y="325" type="line"/>
      <point x="740" y="692" type="line"/>
      <point x="644" y="692" type="line"/>
      <point x="520" y="325" type="line"/>
    </contour>
    <contour>
      <point x="452" y="-42" type="line"/>
      <point x="548" y="-42" type="line"/>
      <point x="424" y="325" type="line"/>
      <point x="548" y="692" type="line"/>
      <point x="452" y="692" type="line"/>
      <point x="328" y="325" type="line"/>
    </contour>
  </outline>
</glyph>
<glyph name="uni300B" format="2">
  <advance width="820"/>
  <unicode hex="300B"/>
  <outline>
    <contour>
      <point x="176" y="692" type="line"/>
      <point x="80" y="692" type="line"/>
      <point x="204" y="325" type="line"/>
      <point x="80" y="-42" type="line"/>
      <point x="176" y="-42" type="line"/>
      <point x="300" y="325" type="line"/>
    </contour>
    <contour>
      <point x="368" y="692" type="line"/>
      <point x="272" y="692" type="line"/>
      <point x="396" y="325" type="line"/>
      <point x="272" y="-42" type="line"/>
      <point x="368" y="-42" type="line"/>
      <point x="492" y="325" type="line"/>
    </contour>
  </outline>
</glyph>
<glyph name="uni300D" format="2">
  <advance width="820"/>
  <unicode hex="300D"/>
  <outline>
    <contour>
      <point x="390" y="-42" type="line"/>
      <point x="390" y="692" type="line"/>
      <point x="300" y="692" type="line"/>
      <point x="300" y="48" type="line"/>
      <point x="100" y="48" type="line"/>
      <point x="100" y="-42" type="line"/>
    </contour>
  </outline>
</glyph>
<glyph name="uni300E" format="2">
  <advance width="820"/>
  <unicode hex="300E"/>
  <outline>
    <contour>
      <point x="430" y="-42" type="line"/>
      <point x="560" y="-42" type="line"/>
      <point x="560" y="562" type="line"/>
      <point x="740" y="562" type="line"/>
      <point x="740" y="692" type="line"/>
      <point x="430" y="692" type="line"/>
    </contour>
    <contour>
      <point x="470" y="-2" type="line"/>
      <point x="470" y="652" type="line"/>
      <point x="700" y="652" type="line"/>
      <point x="700" y="602" type="line"/>
      <point x="520" y="602" type="line"/>
      <point x="520" y="-2" type="line"/>
    </contour>
  </outline>
</glyph>
<glyph name="uni300F" format="2">
  <advance width="820"/>
  <unicode hex="300F"/>
  <outline>
    <contour>
      <point x="390" y="692" type="line"/>
      <point x="260" y="692" type="line"/>
      <point x="260" y="88" type="line"/>
      <point x="80" y="88" type="line"/>
      <point x="80" y="-42" type="line"/>
      <point x="390" y="-42" type="line"/>
    </contour>
    <contour>
      <point x="350" y="652" type="line"/>
      <point x="350" y="-2" type="line"/>
      <point x="120" y="-2" type="line"/>
      <point x="120" y="48" type="line"/>
      <point x="300" y="48" type="line"/>
      <point x="300" y="652" type="line"/>
    </contour>
  </outline>
</glyph>
<glyph name="uni3010" format="2">
  <advance width="820"/>
  <unicode hex="3010"/>
  <outline>
    <contour>
      <point x="430" y="-42" type="curve"/>
      <point x="740" y="-42" type="line"/>
      <point x="618" y="58"/>
      <point x="562" y="187"/>
      <point x="562" y="325" type="curve" smooth="yes"/>
      <point x="562" y="463"/>
      <point x="618" y="592"/>
      <point x="740" y="692" type="curve"/>
      <point x="430" y="692" type="line"/>
      <point x="430" y="506"/>
      <point x="430" y="90"/>
    </contour>
  </outline>
</glyph>
<glyph name="uni3011" format="2">
  <advance width="820"/>
  <unicode hex="3011"/>
  <outline>
    <contour>
      <point x="390" y="692" type="curve"/>
      <point x="80" y="692" type="line"/>
      <point x="202" y="592"/>
      <point x="258" y="463"/>
      <point x="258" y="325" type="curve" smooth="yes"/>
      <point x="258" y="187"/>
      <point x="202" y="58"/>
      <point x="80" y="-42" type="curve"/>
      <point x="390" y="-42" type="line"/>
      <point x="390" y="144"/>
      <point x="390" y="560"/>
    </contour>
  </outline>
</glyph>
<glyph name="uni301E" format="2">
  <advance width="820"/>
  <unicode hex="301E"/>
  <outline>
    <contour>
      <point x="278" y="334" type="line"/>
      <point x="299" y="353"/>
      <point x="336" y="394"/>
      <point x="355" y="417" type="curve" smooth="yes"/>
      <point x="512" y="610" type="line"/>
      <point x="534" y="641"/>
      <point x="531" y="666"/>
      <point x="509" y="683" type="curve" smooth="yes"/>
      <point x="487" y="700"/>
      <point x="461" y="693"/>
      <point x="439" y="662" type="curve"/>
      <point x="311" y="448" type="line" smooth="yes"/>
      <point x="296" y="422"/>
      <point x="271" y="373"/>
      <point x="260" y="347" type="curve"/>
    </contour>
    <contour>
      <point x="88" y="334" type="line"/>
      <point x="109" y="353"/>
      <point x="146" y="394"/>
      <point x="165" y="417" type="curve" smooth="yes"/>
      <point x="322" y="610" type="line"/>
      <point x="344" y="641"/>
      <point x="341" y="666"/>
      <point x="319" y="683" type="curve" smooth="yes"/>
      <point x="297" y="700"/>
      <point x="271" y="693"/>
      <point x="249" y="662" type="curve"/>
      <point x="121" y="448" type="line" smooth="yes"/>
      <point x="106" y="422"/>
      <point x="81" y="373"/>
      <point x="70" y="347" type="curve"/>
    </contour>
  </outline>
</glyph>
<glyph name="uni301F" format="2">
  <advance width="820"/>
  <unicode hex="301F"/>
  <outline>
    <contour>
      <point x="278" y="-42" type="line"/>
      <point x="299" y="-23"/>
      <point x="336" y="18"/>
      <point x="355" y="41" type="curve" smooth="yes"/>
      <point x="512" y="234" type="line"/>
      <point x="534" y="265"/>
      <point x="531" y="290"/>
      <point x="509" y="307" type="curve" smooth="yes"/>
      <point x="487" y="324"/>
      <point x="461" y="317"/>
      <point x="439" y="286" type="curve"/>
      <point x="311" y="72" type="line" smooth="yes"/>
      <point x="296" y="46"/>
      <point x="271" y="-3"/>
      <point x="260" y="-29" type="curve"/>
    </contour>
    <contour>
      <point x="88" y="-42" type="line"/>
      <point x="109" y="-23"/>
      <point x="146" y="18"/>
      <point x="165" y="41" type="curve" smooth="yes"/>
      <point x="322" y="234" type="line"/>
      <point x="344" y="265"/>
      <point x="341" y="290"/>
      <point x="319" y="307" type="curve" smooth="yes"/>
      <point x="297" y="324"/>
      <point x="271" y="317"/>
      <point x="249" y="286" type="curve"/>
      <point x="121" y="72" type="line" smooth="yes"/>
      <point x="106" y="46"/>
      <point x="81" y="-3"/>
      <point x="70" y="-29" type="curve"/>
    </contour>
  </outline>
</glyph>
<glyph name="u16F00" format="2">
  <advance width="530"/>
  <unicode hex="16F00"/>
  <outline>
    <contour>
      <point x="458" y="0" type="line"/>
      <point x="458" y="650" type="line"/>
      <point x="286" y="650" type="line"/>
      <point x="286" y="144" type="line"/>
      <point x="40" y="144" type="line"/>
      <point x="40" y="0" type="line"/>
    </contour>
  </outline>
</glyph>
<glyph name="u16F02" format="2">
  <advance width="606"/>
  <unicode hex="16F02"/>
  <anchor x="509" y="578" name="D"/>
  <anchor x="509" y="440" name="E"/>
  <anchor x="606" y="0" name="F"/>
  <anchor x="358" y="700" name="H"/>
  <anchor x="459" y="700" name="HD"/>
  <anchor x="606" y="220" name="K"/>
  <anchor x="303" y="-45" name="L"/>
  <anchor x="509" y="660" name="S"/>
  <anchor x="509" y="320" name="W"/>
  <outline>
    <contour>
      <point x="444" y="144" type="line"/>
      <point x="444" y="650" type="line"/>
      <point x="272" y="650" type="line"/>
      <point x="272" y="144" type="line"/>
      <point x="40" y="144" type="line"/>
      <point x="40" y="0" type="line"/>
      <point x="566" y="0" type="line"/>
      <point x="566" y="144" type="line"/>
    </contour>
  </outline>
</glyph>
<glyph name="u16F03" format="2">
  <advance width="664"/>
  <unicode hex="16F03"/>
  <anchor x="664" y="578" name="D"/>
  <anchor x="664" y="460" name="E"/>
  <anchor x="332" y="690" name="H"/>
  <anchor x="664" y="230" name="K"/>
  <anchor x="332" y="-30" name="L"/>
  <anchor x="664" y="660" name="S"/>
  <anchor x="664" y="345" name="W"/>
  <outline>
    <contour>
      <point x="592" y="0" type="line"/>
      <point x="592" y="650" type="line"/>
      <point x="420" y="650" type="line"/>
      <point x="420" y="144" type="line"/>
      <point x="234" y="144" type="line"/>
      <point x="256" y="0" type="line"/>
    </contour>
    <contour>
      <point x="256" y="0" type="curve" smooth="yes"/>
      <point x="279" y="0"/>
      <point x="320" y="125"/>
      <point x="284" y="125" type="curve"/>
      <point x="300" y="134"/>
      <point x="324" y="165"/>
      <point x="324" y="214" type="curve" smooth="yes"/>
      <point x="324" y="281"/>
      <point x="271" y="344"/>
      <point x="189" y="344" type="curve" smooth="yes"/>
      <point x="107" y="344"/>
      <point x="44" y="278"/>
      <point x="44" y="184" type="curve" smooth="yes"/>
      <point x="44" y="72"/>
      <point x="123" y="0"/>
    </contour>
    <contour>
      <point x="189" y="244" type="curve" smooth="yes"/>
      <point x="216" y="244"/>
      <point x="234" y="221"/>
      <point x="234" y="194" type="curve" smooth="yes"/>
      <point x="234" y="166"/>
      <point x="216" y="144"/>
      <point x="189" y="144" type="curve" smooth="yes"/>
      <point x="161" y="144"/>
      <point x="144" y="166"/>
      <point x="144" y="194" type="curve" smooth="yes"/>
      <point x="144" y="221"/>
      <point x="161" y="244"/>
    </contour>
  </outline>
</glyph>
<glyph name="u16F04" format="2">
  <advance width="574"/>
  <unicode hex="16F04"/>
  <anchor x="574" y="578" name="D"/>
  <anchor x="574" y="460" name="E"/>
  <anchor x="287" y="690" name="H"/>
  <anchor x="574" y="230" name="K"/>
  <anchor x="287" y="-30" name="L"/>
  <anchor x="574" y="660" name="S"/>
  <anchor x="574" y="345" name="W"/>
  <outline>
    <contour>
      <point x="196" y="650" type="curve" smooth="yes"/>
      <point x="64" y="650" type="line"/>
      <point x="64" y="512" type="line"/>
      <point x="186" y="512" type="line" smooth="yes"/>
      <point x="280" y="512"/>
      <point x="354" y="480"/>
      <point x="354" y="328" type="curve" smooth="yes"/>
      <point x="354" y="176"/>
      <point x="280" y="138"/>
      <point x="186" y="138" type="curve" smooth="yes"/>
      <point x="54" y="138" type="line"/>
      <point x="54" y="0" type="line"/>
      <point x="206" y="0" type="line" smooth="yes"/>
      <point x="394" y="0"/>
      <point x="530" y="98"/>
      <point x="530" y="328" type="curve" smooth="yes"/>
      <point x="530" y="558"/>
      <point x="394" y="650"/>
    </contour>
  </outline>
</glyph>
<glyph name="u16F05" format="2">
  <advance width="566"/>
  <unicode hex="16F05"/>
  <anchor x="566" y="578" name="D"/>
  <anchor x="566" y="403" name="E"/>
  <anchor x="566" y="0" name="F"/>
  <anchor x="566" y="10" name="FR"/>
  <anchor x="273" y="700" name="H"/>
  <anchor x="466" y="700" name="HD"/>
  <anchor x="566" y="252" name="K"/>
  <anchor x="273" y="-45" name="L"/>
  <anchor x="566" y="660" name="S"/>
  <anchor x="566" y="650" name="SR"/>
  <anchor x="566" y="670" name="SRT"/>
  <anchor x="566" y="680" name="ST"/>
  <anchor x="566" y="320" name="W"/>
  <outline>
    <contour>
      <point x="374" y="400" type="curve"/>
      <point x="374" y="470" type="line"/>
      <point x="373" y="470"/>
      <point x="331" y="470"/>
      <point x="330" y="470" type="curve" smooth="yes"/>
      <point x="231" y="470"/>
      <point x="185" y="410"/>
      <point x="185" y="330" type="curve" smooth="yes"/>
      <point x="185" y="250"/>
      <point x="231" y="190"/>
      <point x="330" y="190" type="curve" smooth="yes"/>
      <point x="331" y="190"/>
      <point x="373" y="190"/>
      <point x="374" y="190" type="curve"/>
      <point x="374" y="260" type="line"/>
      <point x="373" y="260"/>
      <point x="336" y="260"/>
      <point x="335" y="260" type="curve" smooth="yes"/>
      <point x="287" y="260"/>
      <point x="265" y="293"/>
      <point x="265" y="330" type="curve" smooth="yes"/>
      <point x="265" y="367"/>
      <point x="286" y="400"/>
      <point x="335" y="400" type="curve" smooth="yes"/>
      <point x="336" y="400"/>
      <point x="373" y="400"/>
    </contour>
    <contour>
      <point x="192" y="650" type="curve" smooth="yes"/>
      <point x="60" y="650" type="line"/>
      <point x="60" y="512" type="line"/>
      <point x="182" y="512" type="line" smooth="yes"/>
      <point x="276" y="512"/>
      <point x="350" y="480"/>
      <point x="350" y="328" type="curve" smooth="yes"/>
      <point x="350" y="176"/>
      <point x="276" y="138"/>
      <point x="182" y="138" type="curve" smooth="yes"/>
      <point x="50" y="138" type="line"/>
      <point x="50" y="0" type="line"/>
      <point x="202" y="0" type="line" smooth="yes"/>
      <point x="390" y="0"/>
      <point x="526" y="98"/>
      <point x="526" y="328" type="curve" smooth="yes"/>
      <point x="526" y="558"/>
      <point x="390" y="650"/>
    </contour>
  </outline>
</glyph>
<glyph name="u16F06" format="2">
  <advance width="740"/>
  <unicode hex="16F06"/>
  <anchor x="740" y="578" name="D"/>
  <anchor x="740" y="440" name="E"/>
  <anchor x="740" y="0" name="F"/>
  <anchor x="740" y="10" name="FR"/>
  <anchor x="370" y="700" name="H"/>
  <anchor x="690" y="700" name="HD"/>
  <anchor x="740" y="220" name="K"/>
  <anchor x="370" y="-45" name="L"/>
  <anchor x="740" y="660" name="S"/>
  <anchor x="740" y="650" name="SR"/>
  <anchor x="740" y="680" name="SRT"/>
  <anchor x="740" y="680" name="ST"/>
  <anchor x="740" y="320" name="W"/>
  <outline>
    <contour>
      <point x="30" y="172" type="curve" smooth="yes"/>
      <point x="30" y="0" type="line"/>
      <point x="202" y="0" type="line"/>
      <point x="202" y="152" type="line" smooth="yes"/>
      <point x="202" y="276"/>
      <point x="237" y="338"/>
      <point x="370" y="338" type="curve" smooth="yes"/>
      <point x="503" y="338"/>
      <point x="538" y="276"/>
      <point x="538" y="152" type="curve" smooth="yes"/>
      <point x="538" y="0" type="line"/>
      <point x="710" y="0" type="line"/>
      <point x="710" y="172" type="line" smooth="yes"/>
      <point x="710" y="360"/>
      <point x="600" y="486"/>
      <point x="370" y="486" type="curve" smooth="yes"/>
      <point x="140" y="486"/>
      <point x="30" y="360"/>
    </contour>
  </outline>
</glyph>
<glyph name="u16F07" format="2">
  <advance width="530"/>
  <unicode hex="16F07"/>
  <outline>
    <contour>
      <point x="72" y="650" type="line"/>
      <point x="72" y="0" type="line"/>
      <point x="244" y="0" type="line"/>
      <point x="244" y="506" type="line"/>
      <point x="490" y="506" type="line"/>
      <point x="490" y="650" type="line"/>
    </contour>
  </outline>
</glyph>
<glyph name="u16F0C" format="2">
  <advance width="670"/>
  <unicode hex="16F0C"/>
  <outline>
    <contour>
      <point x="196" y="0" type="line"/>
      <point x="368" y="0" type="line"/>
      <point x="368" y="506" type="line"/>
      <point x="540" y="506" type="line"/>
      <point x="540" y="650" type="line"/>
      <point x="24" y="650" type="line"/>
      <point x="24" y="506" type="line"/>
      <point x="196" y="506" type="line"/>
    </contour>
    <contour>
      <point x="464" y="650" type="line"/>
      <point x="464" y="362" type="line"/>
      <point x="616" y="362" type="line"/>
      <point x="616" y="650" type="line"/>
    </contour>
  </outline>
</glyph>
<glyph name="u16F0D" format="2">
  <advance width="564"/>
  <unicode hex="16F0D"/>
  <anchor x="282" y="690" name="H"/>
  <anchor x="564" y="660" name="S"/>
  <anchor x="564" y="345" name="W"/>
  <anchor x="564" y="460" name="E"/>
  <anchor x="564" y="230" name="K"/>
  <anchor x="564" y="578" name="D"/>
  <anchor x="282" y="-30" name="L"/>
  <outline>
    <contour>
      <point x="196" y="506" type="line"/>
      <point x="196" y="0" type="line"/>
      <point x="368" y="0" type="line"/>
      <point x="368" y="506" type="line"/>
      <point x="540" y="506" type="line"/>
      <point x="540" y="650" type="line"/>
      <point x="24" y="650" type="line"/>
      <point x="24" y="506" type="line"/>
    </contour>
    <contour>
      <point x="94" y="144" type="line"/>
      <point x="94" y="0" type="line"/>
      <point x="470" y="0" type="line"/>
      <point x="470" y="144" type="line"/>
    </contour>
  </outline>
</glyph>
<glyph name="u16F0E" format="2">
  <advance width="604"/>
  <unicode hex="16F0E"/>
  <outline>
    <contour>
      <point x="196" y="506" type="line"/>
      <point x="196" y="0" type="line"/>
      <point x="550" y="0" type="line"/>
      <point x="550" y="144" type="line"/>
      <point x="368" y="144" type="line"/>
      <point x="368" y="506" type="line"/>
      <point x="540" y="506" type="line"/>
      <point x="540" y="650" type="line"/>
      <point x="24" y="650" type="line"/>
      <point x="24" y="506" type="line"/>
    </contour>
  </outline>
</glyph>
<glyph name="u16F10" format="2">
  <advance width="624"/>
  <unicode hex="16F10"/>
  <outline>
    <contour>
      <point x="378" y="0" type="curve" smooth="yes"/>
      <point x="570" y="0" type="line"/>
      <point x="570" y="138" type="line"/>
      <point x="388" y="138" type="line" smooth="yes"/>
      <point x="294" y="138"/>
      <point x="220" y="170"/>
      <point x="220" y="322" type="curve" smooth="yes"/>
      <point x="220" y="474"/>
      <point x="294" y="512"/>
      <point x="388" y="512" type="curve" smooth="yes"/>
      <point x="560" y="512" type="line"/>
      <point x="560" y="650" type="line"/>
      <point x="368" y="650" type="line" smooth="yes"/>
      <point x="180" y="650"/>
      <point x="44" y="552"/>
      <point x="44" y="322" type="curve" smooth="yes"/>
      <point x="44" y="92"/>
      <point x="180" y="0"/>
    </contour>
  </outline>
</glyph>
<glyph name="u16F12" format="2">
  <advance width="456"/>
  <unicode hex="16F12"/>
  <anchor x="456" y="578" name="D"/>
  <anchor x="456" y="440" name="E"/>
  <anchor x="456" y="0" name="F"/>
  <anchor x="223" y="700" name="H"/>
  <anchor x="456" y="220" name="K"/>
  <anchor x="223" y="-45" name="L"/>
  <anchor x="456" y="660" name="S"/>
  <anchor x="406" y="330" name="W"/>
  <outline>
    <contour>
      <point x="344" y="0" type="curve" smooth="yes"/>
      <point x="406" y="0" type="line"/>
      <point x="406" y="138" type="line"/>
      <point x="364" y="138" type="line" smooth="yes"/>
      <point x="290" y="138"/>
      <point x="236" y="175"/>
      <point x="236" y="247" type="curve" smooth="yes"/>
      <point x="236" y="319"/>
      <point x="269" y="383"/>
      <point x="395" y="512" type="curve"/>
      <point x="325" y="620" type="line"/>
      <point x="167" y="482"/>
      <point x="60" y="348"/>
      <point x="60" y="232" type="curve" smooth="yes"/>
      <point x="60" y="72"/>
      <point x="176" y="0"/>
    </contour>
    <contour>
      <point x="50" y="512" type="line"/>
      <point x="396" y="512" type="line"/>
      <point x="396" y="650" type="line"/>
      <point x="50" y="650" type="line"/>
    </contour>
  </outline>
</glyph>
<glyph name="u16F13" format="2">
  <advance width="740"/>
  <unicode hex="16F13"/>
  <anchor x="740" y="578" name="D"/>
  <anchor x="740" y="450" name="E"/>
  <anchor x="740" y="0" name="F"/>
  <anchor x="740" y="10" name="FR"/>
  <anchor x="370" y="700" name="H"/>
  <anchor x="690" y="700" name="HD"/>
  <anchor x="740" y="210" name="K"/>
  <anchor x="370" y="-45" name="L"/>
  <anchor x="740" y="660" name="S"/>
  <anchor x="740" y="650" name="SR"/>
  <anchor x="740" y="670" name="SRT"/>
  <anchor x="740" y="680" name="ST"/>
  <anchor x="740" y="320" name="W"/>
  <outline>
    <contour>
      <point x="710" y="312" type="curve" smooth="yes"/>
      <point x="710" y="484" type="line"/>
      <point x="538" y="484" type="line"/>
      <point x="538" y="332" type="line" smooth="yes"/>
      <point x="538" y="208"/>
      <point x="503" y="136"/>
      <point x="370" y="136" type="curve" smooth="yes"/>
      <point x="237" y="136"/>
      <point x="202" y="208"/>
      <point x="202" y="332" type="curve" smooth="yes"/>
      <point x="202" y="484" type="line"/>
      <point x="30" y="484" type="line"/>
      <point x="30" y="312" type="line" smooth="yes"/>
      <point x="30" y="124"/>
      <point x="140" y="-12"/>
      <point x="370" y="-12" type="curve" smooth="yes"/>
      <point x="600" y="-12"/>
      <point x="710" y="124"/>
    </contour>
  </outline>
</glyph>
<glyph name="u16F14" format="2">
  <advance width="624"/>
  <unicode hex="16F14"/>
  <anchor x="312" y="690" name="H"/>
  <anchor x="624" y="660" name="S"/>
  <anchor x="624" y="345" name="W"/>
  <anchor x="624" y="460" name="E"/>
  <anchor x="624" y="230" name="K"/>
  <anchor x="624" y="578" name="D"/>
  <anchor x="312" y="-30" name="L"/>
  <outline>
    <contour>
      <point x="398" y="0" type="curve" smooth="yes"/>
      <point x="560" y="0" type="line"/>
      <point x="560" y="138" type="line"/>
      <point x="408" y="138" type="line" smooth="yes"/>
      <point x="314" y="138"/>
      <point x="220" y="170"/>
      <point x="220" y="328" type="curve" smooth="yes"/>
      <point x="220" y="480"/>
      <point x="307" y="544"/>
      <point x="376" y="544" type="curve"/>
      <point x="368" y="662" type="line"/>
      <point x="180" y="662"/>
      <point x="44" y="558"/>
      <point x="44" y="328" type="curve" smooth="yes"/>
      <point x="44" y="92"/>
      <point x="200" y="0"/>
    </contour>
    <contour>
      <point x="368" y="662" type="curve" smooth="yes"/>
      <point x="345" y="662"/>
      <point x="304" y="553"/>
      <point x="340" y="553" type="curve"/>
      <point x="324" y="544"/>
      <point x="300" y="513"/>
      <point x="300" y="464" type="curve" smooth="yes"/>
      <point x="300" y="397"/>
      <point x="353" y="334"/>
      <point x="435" y="334" type="curve" smooth="yes"/>
      <point x="517" y="334"/>
      <point x="580" y="402"/>
      <point x="580" y="484" type="curve" smooth="yes"/>
      <point x="580" y="576"/>
      <point x="501" y="662"/>
    </contour>
    <contour>
      <point x="435" y="434" type="curve" smooth="yes"/>
      <point x="408" y="434"/>
      <point x="390" y="457"/>
      <point x="390" y="484" type="curve" smooth="yes"/>
      <point x="390" y="512"/>
      <point x="408" y="534"/>
      <point x="435" y="534" type="curve" smooth="yes"/>
      <point x="463" y="534"/>
      <point x="480" y="512"/>
      <point x="480" y="484" type="curve" smooth="yes"/>
      <point x="480" y="457"/>
      <point x="463" y="434"/>
    </contour>
  </outline>
</glyph>
<glyph name="u16F16" format="2">
  <advance width="530"/>
  <unicode hex="16F16"/>
  <outline>
    <contour>
      <point x="72" y="0" type="line"/>
      <point x="490" y="0" type="line"/>
      <point x="490" y="144" type="line"/>
      <point x="244" y="144" type="line"/>
      <point x="244" y="650" type="line"/>
      <point x="72" y="650" type="line"/>
    </contour>
  </outline>
</glyph>
<glyph name="u16F18" format="2">
  <advance width="664"/>
  <unicode hex="16F18"/>
  <anchor x="664" y="578" name="D"/>
  <anchor x="664" y="460" name="E"/>
  <anchor x="332" y="690" name="H"/>
  <anchor x="664" y="230" name="K"/>
  <anchor x="332" y="-30" name="L"/>
  <anchor x="664" y="660" name="S"/>
  <anchor x="664" y="345" name="W"/>
  <outline>
    <contour>
      <point x="72" y="0" type="line"/>
      <point x="408" y="0" type="line"/>
      <point x="430" y="144" type="line"/>
      <point x="244" y="144" type="line"/>
      <point x="244" y="650" type="line"/>
      <point x="72" y="650" type="line"/>
    </contour>
    <contour>
      <point x="408" y="0" type="curve" smooth="yes"/>
      <point x="541" y="0"/>
      <point x="620" y="72"/>
      <point x="620" y="184" type="curve" smooth="yes"/>
      <point x="620" y="278"/>
      <point x="557" y="344"/>
      <point x="475" y="344" type="curve" smooth="yes"/>
      <point x="393" y="344"/>
      <point x="340" y="281"/>
      <point x="340" y="214" type="curve" smooth="yes"/>
      <point x="340" y="165"/>
      <point x="364" y="134"/>
      <point x="380" y="125" type="curve"/>
      <point x="344" y="125"/>
      <point x="385" y="0"/>
    </contour>
    <contour>
      <point x="475" y="244" type="curve" smooth="yes"/>
      <point x="503" y="244"/>
      <point x="520" y="221"/>
      <point x="520" y="194" type="curve" smooth="yes"/>
      <point x="520" y="166"/>
      <point x="503" y="144"/>
      <point x="475" y="144" type="curve" smooth="yes"/>
      <point x="448" y="144"/>
      <point x="430" y="166"/>
      <point x="430" y="194" type="curve" smooth="yes"/>
      <point x="430" y="221"/>
      <point x="448" y="244"/>
    </contour>
  </outline>
</glyph>
<glyph name="u16F1C" format="2">
  <advance width="644"/>
  <unicode hex="16F1C"/>
  <anchor x="614" y="578" name="D"/>
  <anchor x="614" y="460" name="E"/>
  <anchor x="322" y="690" name="H"/>
  <anchor x="614" y="230" name="K"/>
  <anchor x="322" y="-30" name="L"/>
  <anchor x="614" y="660" name="S"/>
  <anchor x="614" y="345" name="W"/>
  <outline>
    <contour>
      <point x="20" y="0" type="line"/>
      <point x="196" y="0" type="line"/>
      <point x="270" y="316" type="line" smooth="yes"/>
      <point x="286" y="378"/>
      <point x="302" y="456"/>
      <point x="316" y="522" type="curve"/>
      <point x="320" y="522" type="line"/>
      <point x="336" y="457"/>
      <point x="352" y="378"/>
      <point x="368" y="316" type="curve" smooth="yes"/>
      <point x="442" y="0" type="line"/>
      <point x="624" y="0" type="line"/>
      <point x="426" y="650" type="line"/>
      <point x="218" y="650" type="line"/>
    </contour>
    <contour>
      <point x="92" y="0" type="line"/>
      <point x="550" y="0" type="line"/>
      <point x="550" y="133" type="line"/>
      <point x="92" y="133" type="line"/>
    </contour>
    <contour>
      <point x="162" y="198" type="line"/>
      <point x="480" y="198" type="line"/>
      <point x="480" y="311" type="line"/>
      <point x="162" y="311" type="line"/>
    </contour>
  </outline>
</glyph>
<glyph name="u16F1E" format="2">
  <advance width="556"/>
  <unicode hex="16F1E"/>
  <outline>
    <contour>
      <point x="484" y="0" type="line"/>
      <point x="484" y="650" type="line"/>
      <point x="64" y="650" type="line"/>
      <point x="64" y="506" type="line"/>
      <point x="312" y="506" type="line"/>
      <point x="312" y="144" type="line"/>
      <point x="54" y="144" type="line"/>
      <point x="54" y="0" type="line"/>
    </contour>
  </outline>
</glyph>
<glyph name="u16F20" format="2">
  <advance width="604"/>
  <unicode hex="16F20"/>
  <outline>
    <contour>
      <point x="296" y="506" type="line"/>
      <point x="296" y="0" type="line"/>
      <point x="468" y="0" type="line"/>
      <point x="468" y="506" type="line"/>
      <point x="580" y="506" type="line"/>
      <point x="580" y="650" type="line"/>
      <point x="64" y="650" type="line"/>
      <point x="64" y="506" type="line"/>
    </contour>
    <contour>
      <point x="54" y="144" type="line"/>
      <point x="54" y="0" type="line"/>
      <point x="468" y="0" type="line"/>
      <point x="468" y="144" type="line"/>
    </contour>
  </outline>
</glyph>
<glyph name="u16F21" format="2">
  <advance width="616"/>
  <unicode hex="16F21"/>
  <anchor x="600" y="578" name="D"/>
  <anchor x="600" y="460" name="E"/>
  <anchor x="298" y="690" name="H"/>
  <anchor x="600" y="230" name="K"/>
  <anchor x="298" y="-30" name="L"/>
  <anchor x="600" y="660" name="S"/>
  <anchor x="600" y="345" name="W"/>
  <outline>
    <contour>
      <point x="232" y="506" type="line"/>
      <point x="232" y="0" type="line"/>
      <point x="404" y="0" type="line"/>
      <point x="404" y="506" type="line"/>
      <point x="576" y="506" type="line"/>
      <point x="576" y="650" type="line"/>
      <point x="60" y="650" type="line"/>
      <point x="60" y="506" type="line"/>
    </contour>
    <contour>
      <point x="50" y="144" type="line"/>
      <point x="50" y="0" type="line"/>
      <point x="404" y="0" type="line"/>
      <point x="404" y="144" type="line"/>
    </contour>
  </outline>
</glyph>
<glyph name="u16F23" format="2">
  <advance width="624"/>
  <unicode hex="16F23"/>
  <anchor x="624" y="578" name="D"/>
  <anchor x="624" y="460" name="E"/>
  <anchor x="312" y="690" name="H"/>
  <anchor x="624" y="230" name="K"/>
  <anchor x="312" y="-30" name="L"/>
  <anchor x="624" y="660" name="S"/>
  <anchor x="624" y="345" name="W"/>
  <outline>
    <contour>
      <point x="398" y="650" type="line" smooth="yes"/>
      <point x="200" y="650"/>
      <point x="44" y="558"/>
      <point x="44" y="322" type="curve" smooth="yes"/>
      <point x="44" y="92"/>
      <point x="180" y="-12"/>
      <point x="368" y="-12" type="curve"/>
      <point x="376" y="126" type="line"/>
      <point x="307" y="126"/>
      <point x="220" y="170"/>
      <point x="220" y="322" type="curve" smooth="yes"/>
      <point x="220" y="480"/>
      <point x="314" y="512"/>
      <point x="408" y="512" type="curve" smooth="yes"/>
      <point x="550" y="512" type="line"/>
      <point x="550" y="650" type="line"/>
    </contour>
    <contour>
      <point x="368" y="-12" type="curve" smooth="yes"/>
      <point x="501" y="-12"/>
      <point x="580" y="74"/>
      <point x="580" y="186" type="curve" smooth="yes"/>
      <point x="580" y="270"/>
      <point x="517" y="336"/>
      <point x="435" y="336" type="curve" smooth="yes"/>
      <point x="353" y="336"/>
      <point x="300" y="273"/>
      <point x="300" y="206" type="curve" smooth="yes"/>
      <point x="300" y="157"/>
      <point x="324" y="126"/>
      <point x="340" y="117" type="curve"/>
      <point x="304" y="117"/>
      <point x="345" y="-12"/>
    </contour>
    <contour>
      <point x="435" y="236" type="curve" smooth="yes"/>
      <point x="463" y="236"/>
      <point x="480" y="213"/>
      <point x="480" y="186" type="curve" smooth="yes"/>
      <point x="480" y="158"/>
      <point x="463" y="136"/>
      <point x="435" y="136" type="curve" smooth="yes"/>
      <point x="408" y="136"/>
      <point x="390" y="158"/>
      <point x="390" y="186" type="curve" smooth="yes"/>
      <point x="390" y="213"/>
      <point x="408" y="236"/>
    </contour>
  </outline>
</glyph>
<glyph name="u16F25" format="2">
  <advance width="740"/>
  <unicode hex="16F25"/>
  <anchor x="740" y="578" name="D"/>
  <anchor x="740" y="440" name="E"/>
  <anchor x="740" y="0" name="F"/>
  <anchor x="740" y="10" name="FR"/>
  <anchor x="380" y="700" name="H"/>
  <anchor x="690" y="700" name="HD"/>
  <anchor x="740" y="220" name="K"/>
  <anchor x="380" y="-45" name="L"/>
  <anchor x="740" y="660" name="S"/>
  <anchor x="740" y="650" name="SR"/>
  <anchor x="740" y="680" name="SRT"/>
  <anchor x="740" y="680" name="ST"/>
  <anchor x="740" y="320" name="W"/>
  <outline>
    <contour>
      <point x="30" y="312" type="line" smooth="yes"/>
      <point x="30" y="114"/>
      <point x="146" y="-12"/>
      <point x="380" y="-12" type="curve" smooth="yes"/>
      <point x="600" y="-12"/>
      <point x="710" y="114"/>
      <point x="710" y="292" type="curve"/>
      <point x="573" y="300" type="line"/>
      <point x="573" y="199"/>
      <point x="531" y="136"/>
      <point x="391" y="136" type="curve" smooth="yes"/>
      <point x="242" y="136"/>
      <point x="202" y="208"/>
      <point x="202" y="332" type="curve" smooth="yes"/>
      <point x="202" y="484" type="line"/>
      <point x="30" y="484" type="line"/>
    </contour>
    <contour>
      <point x="710" y="292" type="curve" smooth="yes"/>
      <point x="710" y="425"/>
      <point x="635" y="504"/>
      <point x="513" y="504" type="curve" smooth="yes"/>
      <point x="429" y="504"/>
      <point x="365" y="441"/>
      <point x="365" y="359" type="curve" smooth="yes"/>
      <point x="365" y="277"/>
      <point x="426" y="224"/>
      <point x="498" y="224" type="curve" smooth="yes"/>
      <point x="547" y="224"/>
      <point x="573" y="248"/>
      <point x="582" y="264" type="curve"/>
      <point x="582" y="228"/>
      <point x="710" y="269"/>
    </contour>
    <contour>
      <point x="464" y="359" type="curve" smooth="yes"/>
      <point x="464" y="387"/>
      <point x="486" y="405"/>
      <point x="513" y="405" type="curve" smooth="yes"/>
      <point x="541" y="405"/>
      <point x="562" y="387"/>
      <point x="562" y="359" type="curve" smooth="yes"/>
      <point x="562" y="332"/>
      <point x="541" y="313"/>
      <point x="513" y="313" type="curve" smooth="yes"/>
      <point x="486" y="313"/>
      <point x="464" y="332"/>
    </contour>
  </outline>
</glyph>
<glyph name="u16F26" format="2">
  <advance width="530"/>
  <unicode hex="16F26"/>
  <outline>
    <contour>
      <point x="458" y="650" type="line"/>
      <point x="40" y="650" type="line"/>
      <point x="40" y="506" type="line"/>
      <point x="286" y="506" type="line"/>
      <point x="286" y="0" type="line"/>
      <point x="458" y="0" type="line"/>
    </contour>
  </outline>
</glyph>
<glyph name="u16F28" format="2">
  <advance width="332"/>
  <unicode hex="16F28"/>
  <anchor x="166" y="700" name="H"/>
  <anchor x="332" y="660" name="S"/>
  <anchor x="332" y="340" name="W"/>
  <anchor x="332" y="460" name="E"/>
  <anchor x="332" y="220" name="K"/>
  <anchor x="332" y="0" name="F"/>
  <anchor x="332" y="578" name="D"/>
  <anchor x="166" y="-40" name="L"/>
  <outline>
    <contour>
      <point x="80" y="0" type="line"/>
      <point x="252" y="0" type="line"/>
      <point x="252" y="650" type="line"/>
      <point x="80" y="650" type="line"/>
    </contour>
  </outline>
</glyph>
<glyph name="u16F2A" format="2">
  <advance width="604"/>
  <unicode hex="16F2A"/>
  <outline>
    <contour>
      <point x="408" y="144" type="line"/>
      <point x="408" y="650" type="line"/>
      <point x="64" y="650" type="line"/>
      <point x="64" y="506" type="line"/>
      <point x="236" y="506" type="line"/>
      <point x="236" y="144" type="line"/>
      <point x="54" y="144" type="line"/>
      <point x="54" y="0" type="line"/>
      <point x="580" y="0" type="line"/>
      <point x="580" y="144" type="line"/>
    </contour>
  </outline>
</glyph>
<glyph name="u16F2C" format="2">
  <advance width="555"/>
  <unicode hex="16F2C"/>
  <anchor x="277" y="700" name="H"/>
  <anchor x="555" y="660" name="S"/>
  <anchor x="555" y="340" name="W"/>
  <anchor x="555" y="446" name="E"/>
  <anchor x="555" y="234" name="K"/>
  <anchor x="555" y="0" name="F"/>
  <anchor x="555" y="578" name="D"/>
  <anchor x="277" y="-40" name="L"/>
  <outline>
    <contour>
      <point x="382" y="383" type="line"/>
      <point x="200" y="373"/>
      <point x="40" y="308"/>
      <point x="40" y="176" type="curve" smooth="yes"/>
      <point x="40" y="76"/>
      <point x="130" y="-12"/>
      <point x="292" y="-12" type="curve" smooth="yes"/>
      <point x="374" y="-12"/>
      <point x="463" y="17"/>
      <point x="525" y="75" type="curve"/>
      <point x="460" y="189" type="line"/>
      <point x="414" y="152"/>
      <point x="356" y="136"/>
      <point x="308" y="136" type="curve" smooth="yes"/>
      <point x="236" y="136"/>
      <point x="206" y="163"/>
      <point x="206" y="202" type="curve" smooth="yes"/>
      <point x="206" y="243"/>
      <point x="258" y="277"/>
      <point x="382" y="277" type="curve"/>
    </contour>
    <contour>
      <point x="448" y="485" type="curve"/>
      <point x="511" y="608" type="line"/>
      <point x="443" y="648"/>
      <point x="390" y="662"/>
      <point x="312" y="662" type="curve" smooth="yes"/>
      <point x="140" y="662"/>
      <point x="50" y="574"/>
      <point x="50" y="474" type="curve" smooth="yes"/>
      <point x="50" y="364"/>
      <point x="204" y="288"/>
      <point x="382" y="277" type="curve"/>
      <point x="382" y="383" type="line"/>
      <point x="274" y="383"/>
      <point x="216" y="407"/>
      <point x="216" y="448" type="curve" smooth="yes"/>
      <point x="216" y="487"/>
      <point x="246" y="514"/>
      <point x="318" y="514" type="curve" smooth="yes"/>
      <point x="363" y="514"/>
      <point x="401" y="504"/>
    </contour>
  </outline>
</glyph>
<glyph name="u16F2E" format="2">
  <advance width="545"/>
  <unicode hex="16F2E"/>
  <anchor x="545" y="578" name="D"/>
  <anchor x="545" y="446" name="E"/>
  <anchor x="545" y="0" name="F"/>
  <anchor x="272" y="700" name="H"/>
  <anchor x="545" y="234" name="K"/>
  <anchor x="272" y="-40" name="L"/>
  <anchor x="545" y="660" name="S"/>
  <anchor x="545" y="340" name="W"/>
  <outline>
    <contour>
      <point x="65" y="0" type="line"/>
      <point x="495" y="0" type="line"/>
      <point x="495" y="144" type="line"/>
      <point x="237" y="144" type="line"/>
      <point x="237" y="506" type="line"/>
      <point x="485" y="506" type="line"/>
      <point x="485" y="650" type="line"/>
      <point x="65" y="650" type="line"/>
    </contour>
  </outline>
</glyph>
<glyph name="u16F30" format="2">
  <advance width="604"/>
  <unicode hex="16F30"/>
  <outline>
    <contour>
      <point x="308" y="506" type="line"/>
      <point x="540" y="506" type="line"/>
      <point x="540" y="650" type="line"/>
      <point x="24" y="650" type="line"/>
      <point x="24" y="506" type="line"/>
      <point x="136" y="506" type="line"/>
      <point x="136" y="0" type="line"/>
      <point x="308" y="0" type="line"/>
    </contour>
    <contour>
      <point x="550" y="144" type="line"/>
      <point x="136" y="144" type="line"/>
      <point x="136" y="0" type="line"/>
      <point x="550" y="0" type="line"/>
    </contour>
  </outline>
</glyph>
<glyph name="u16F31" format="2">
  <advance width="555"/>
  <unicode hex="16F31"/>
  <anchor x="559" y="578" name="D"/>
  <anchor x="559" y="460" name="E"/>
  <anchor x="276" y="690" name="H"/>
  <anchor x="559" y="230" name="K"/>
  <anchor x="276" y="-30" name="L"/>
  <anchor x="559" y="660" name="S"/>
  <anchor x="559" y="345" name="W"/>
  <outline>
    <contour>
      <point x="65" y="0" type="line"/>
      <point x="505" y="0" type="line"/>
      <point x="505" y="144" type="line"/>
      <point x="237" y="144" type="line"/>
      <point x="237" y="506" type="line"/>
      <point x="495" y="506" type="line"/>
      <point x="495" y="650" type="line"/>
      <point x="65" y="650" type="line"/>
    </contour>
    <contour>
      <point x="343" y="650" type="line"/>
      <point x="343" y="362" type="line"/>
      <point x="495" y="362" type="line"/>
      <point x="495" y="650" type="line"/>
    </contour>
  </outline>
</glyph>
<glyph name="u16F32" format="2">
  <advance width="604"/>
  <unicode hex="16F32"/>
  <outline>
    <contour>
      <point x="196" y="144" type="line"/>
      <point x="24" y="144" type="line"/>
      <point x="24" y="0" type="line"/>
      <point x="550" y="0" type="line"/>
      <point x="550" y="144" type="line"/>
      <point x="368" y="144" type="line"/>
      <point x="368" y="506" type="line"/>
      <point x="540" y="506" type="line"/>
      <point x="540" y="650" type="line"/>
      <point x="196" y="650" type="line"/>
    </contour>
  </outline>
</glyph>
<glyph name="u16F33" format="2">
  <advance width="542"/>
  <unicode hex="16F33"/>
  <anchor x="532" y="578" name="D"/>
  <anchor x="532" y="460" name="E"/>
  <anchor x="267" y="690" name="H"/>
  <anchor x="532" y="230" name="K"/>
  <anchor x="267" y="-30" name="L"/>
  <anchor x="532" y="660" name="S"/>
  <anchor x="532" y="345" name="W"/>
  <outline>
    <contour>
      <point x="75" y="-12" type="line"/>
      <point x="419" y="102"/>
      <point x="492" y="219"/>
      <point x="492" y="500" type="curve" smooth="yes"/>
      <point x="492" y="650" type="line"/>
      <point x="320" y="650" type="line"/>
      <point x="320" y="500" type="line" smooth="yes"/>
      <point x="320" y="288"/>
      <point x="290" y="215"/>
      <point x="30" y="127" type="curve"/>
    </contour>
  </outline>
</glyph>
<glyph name="u16F34" format="2">
  <advance width="562"/>
  <unicode hex="16F34"/>
  <anchor x="562" y="578" name="D"/>
  <anchor x="562" y="450" name="E"/>
  <anchor x="542" y="0" name="F"/>
  <anchor x="562" y="10" name="FR"/>
  <anchor x="294" y="700" name="H"/>
  <anchor x="512" y="700" name="HD"/>
  <anchor x="562" y="210" name="K"/>
  <anchor x="284" y="-45" name="L"/>
  <anchor x="562" y="660" name="S"/>
  <anchor x="562" y="650" name="SR"/>
  <anchor x="562" y="670" name="SRT"/>
  <anchor x="562" y="680" name="ST"/>
  <anchor x="562" y="320" name="W"/>
  <outline>
    <contour>
      <point x="95" y="-12" type="line"/>
      <point x="439" y="102"/>
      <point x="512" y="219"/>
      <point x="512" y="500" type="curve" smooth="yes"/>
      <point x="512" y="650" type="line"/>
      <point x="340" y="650" type="line"/>
      <point x="340" y="500" type="line" smooth="yes"/>
      <point x="340" y="288"/>
      <point x="310" y="215"/>
      <point x="50" y="127" type="curve"/>
    </contour>
    <contour>
      <point x="56" y="506" type="line"/>
      <point x="512" y="506" type="line"/>
      <point x="512" y="650" type="line"/>
      <point x="56" y="650" type="line"/>
    </contour>
  </outline>
</glyph>
<glyph name="u16F35" format="2">
  <advance width="630"/>
  <unicode hex="16F35"/>
  <anchor x="315" y="690" name="H"/>
  <anchor x="630" y="660" name="S"/>
  <anchor x="630" y="345" name="W"/>
  <anchor x="630" y="460" name="E"/>
  <anchor x="630" y="230" name="K"/>
  <anchor x="630" y="578" name="D"/>
  <anchor x="315" y="-30" name="L"/>
  <outline>
    <contour>
      <point x="72" y="0" type="line"/>
      <point x="244" y="0" type="line"/>
      <point x="244" y="218" type="line"/>
      <point x="318" y="218" type="line" smooth="yes"/>
      <point x="458" y="218"/>
      <point x="578" y="283"/>
      <point x="578" y="440" type="curve" smooth="yes"/>
      <point x="578" y="602"/>
      <point x="458" y="650"/>
      <point x="318" y="650" type="curve" smooth="yes"/>
      <point x="72" y="650" type="line"/>
    </contour>
    <contour>
      <point x="244" y="354" type="line"/>
      <point x="244" y="514" type="line"/>
      <point x="306" y="514" type="line" smooth="yes"/>
      <point x="374" y="514"/>
      <point x="410" y="496"/>
      <point x="410" y="440" type="curve" smooth="yes"/>
      <point x="410" y="384"/>
      <point x="374" y="354"/>
      <point x="306" y="354" type="curve" smooth="yes"/>
    </contour>
    <contour>
      <point x="422" y="0" type="line"/>
      <point x="614" y="0" type="line"/>
      <point x="403" y="377" type="line"/>
      <point x="287" y="263" type="line"/>
    </contour>
  </outline>
</glyph>
<glyph name="u16F37" format="2">
  <advance width="556"/>
  <unicode hex="16F37"/>
  <anchor x="540" y="578" name="D"/>
  <anchor x="540" y="460" name="E"/>
  <anchor x="278" y="690" name="H"/>
  <anchor x="540" y="230" name="K"/>
  <anchor x="278" y="-30" name="L"/>
  <anchor x="540" y="660" name="S"/>
  <anchor x="540" y="345" name="W"/>
  <outline>
    <contour>
      <point x="192" y="0" type="line"/>
      <point x="364" y="0" type="line"/>
      <point x="364" y="650" type="line"/>
      <point x="192" y="650" type="line"/>
    </contour>
    <contour>
      <point x="40" y="489" type="line"/>
      <point x="40" y="345" type="line"/>
      <point x="516" y="345" type="line"/>
      <point x="516" y="489" type="line"/>
    </contour>
  </outline>
</glyph>
<glyph name="u16F39" format="2">
  <advance width="576"/>
  <unicode hex="16F39"/>
  <anchor x="536" y="578" name="D"/>
  <anchor x="576" y="440" name="E"/>
  <anchor x="576" y="0" name="F"/>
  <anchor x="576" y="10" name="FR"/>
  <anchor x="278" y="700" name="H"/>
  <anchor x="506" y="700" name="HD"/>
  <anchor x="576" y="220" name="K"/>
  <anchor x="354" y="-45" name="L"/>
  <anchor x="556" y="660" name="S"/>
  <anchor x="576" y="650" name="SR"/>
  <anchor x="576" y="680" name="SRT"/>
  <anchor x="556" y="680" name="ST"/>
  <anchor x="576" y="320" name="W"/>
  <outline>
    <contour>
      <point x="192" y="0" type="line"/>
      <point x="364" y="0" type="line"/>
      <point x="364" y="650" type="line"/>
      <point x="192" y="650" type="line"/>
    </contour>
    <contour>
      <point x="40" y="489" type="line"/>
      <point x="40" y="345" type="line"/>
      <point x="516" y="345" type="line"/>
      <point x="516" y="489" type="line"/>
    </contour>
    <contour>
      <point x="192" y="144" type="line"/>
      <point x="192" y="0" type="line"/>
      <point x="526" y="0" type="line"/>
      <point x="526" y="144" type="line"/>
    </contour>
  </outline>
</glyph>
<glyph name="u16F3B" format="2">
  <advance width="598"/>
  <unicode hex="16F3B"/>
  <anchor x="598" y="578" name="D"/>
  <anchor x="598" y="446" name="E"/>
  <anchor x="598" y="0" name="F"/>
  <anchor x="299" y="700" name="H"/>
  <anchor x="598" y="234" name="K"/>
  <anchor x="299" y="-40" name="L"/>
  <anchor x="598" y="660" name="S"/>
  <anchor x="598" y="340" name="W"/>
  <outline>
    <contour>
      <point x="296" y="-12" type="curve" smooth="yes"/>
      <point x="458" y="-12"/>
      <point x="548" y="86"/>
      <point x="548" y="206" type="curve" smooth="yes"/>
      <point x="548" y="296"/>
      <point x="493" y="366"/>
      <point x="368" y="377" type="curve" smooth="yes"/>
      <point x="288" y="384" type="line"/>
      <point x="192" y="282" type="line"/>
      <point x="266" y="277" type="line" smooth="yes"/>
      <point x="352" y="271"/>
      <point x="382" y="243"/>
      <point x="382" y="202" type="curve" smooth="yes"/>
      <point x="382" y="163"/>
      <point x="352" y="136"/>
      <point x="300" y="136" type="curve" smooth="yes"/>
      <point x="252" y="136"/>
      <point x="194" y="162"/>
      <point x="148" y="199" type="curve"/>
      <point x="50" y="81" type="line"/>
      <point x="120" y="18"/>
      <point x="214" y="-12"/>
    </contour>
    <contour>
      <point x="192" y="282" type="curve"/>
      <point x="200" y="282"/>
      <point x="211" y="282"/>
      <point x="219" y="282" type="curve"/>
      <point x="315" y="350"/>
      <point x="448" y="447"/>
      <point x="537" y="512" type="curve"/>
      <point x="454" y="597" type="line"/>
      <point x="359" y="526"/>
      <point x="276" y="465"/>
      <point x="192" y="404" type="curve"/>
      <point x="192" y="388"/>
      <point x="192" y="303"/>
    </contour>
    <contour>
      <point x="60" y="512" type="line"/>
      <point x="538" y="512" type="line"/>
      <point x="538" y="650" type="line"/>
      <point x="60" y="650" type="line"/>
    </contour>
  </outline>
</glyph>
<glyph name="u16F42" format="2">
  <advance width="656"/>
  <unicode hex="16F42"/>
  <anchor x="664" y="578" name="D"/>
  <anchor x="664" y="460" name="E"/>
  <anchor x="328" y="690" name="H"/>
  <anchor x="664" y="230" name="K"/>
  <anchor x="328" y="-30" name="L"/>
  <anchor x="664" y="660" name="S"/>
  <anchor x="664" y="345" name="W"/>
  <outline>
    <contour>
      <point x="330" y="-12" type="curve" smooth="yes"/>
      <point x="512" y="-12"/>
      <point x="596" y="92"/>
      <point x="596" y="314" type="curve" smooth="yes"/>
      <point x="596" y="650" type="line"/>
      <point x="430" y="650" type="line"/>
      <point x="430" y="294" type="line" smooth="yes"/>
      <point x="430" y="178"/>
      <point x="398" y="136"/>
      <point x="330" y="136" type="curve" smooth="yes"/>
      <point x="262" y="136"/>
      <point x="232" y="178"/>
      <point x="232" y="294" type="curve" smooth="yes"/>
      <point x="232" y="650" type="line"/>
      <point x="60" y="650" type="line"/>
      <point x="60" y="314" type="line" smooth="yes"/>
      <point x="60" y="92"/>
      <point x="148" y="-12"/>
    </contour>
  </outline>
</glyph>
<glyph name="u16F43" format="2">
  <advance width="624"/>
  <unicode hex="16F43"/>
  <anchor x="584" y="578" name="D"/>
  <anchor x="584" y="460" name="E"/>
  <anchor x="312" y="690" name="H"/>
  <anchor x="584" y="230" name="K"/>
  <anchor x="312" y="-30" name="L"/>
  <anchor x="584" y="660" name="S"/>
  <anchor x="584" y="345" name="W"/>
  <outline>
    <contour>
      <point x="226" y="0" type="line"/>
      <point x="398" y="0" type="line"/>
      <point x="398" y="224" type="line"/>
      <point x="594" y="650" type="line"/>
      <point x="414" y="650" type="line"/>
      <point x="366" y="514" type="line"/>
      <point x="349" y="465"/>
      <point x="332" y="420"/>
      <point x="315" y="369" type="curve"/>
      <point x="311" y="369" type="line"/>
      <point x="294" y="420"/>
      <point x="278" y="465"/>
      <point x="262" y="514" type="curve"/>
      <point x="214" y="650" type="line"/>
      <point x="30" y="650" type="line"/>
      <point x="226" y="224" type="line"/>
    </contour>
  </outline>
</glyph>
<glyph name="u16F48" format="2">
  <advance width="682"/>
  <unicode hex="16F48"/>
  <anchor x="666" y="578" name="D"/>
  <anchor x="666" y="460" name="E"/>
  <anchor x="331" y="690" name="H"/>
  <anchor x="666" y="230" name="K"/>
  <anchor x="331" y="-30" name="L"/>
  <anchor x="666" y="660" name="S"/>
  <anchor x="666" y="345" name="W"/>
  <outline>
    <contour>
      <point x="298" y="0" type="line"/>
      <point x="470" y="0" type="line"/>
      <point x="470" y="506" type="line"/>
      <point x="642" y="506" type="line"/>
      <point x="642" y="650" type="line"/>
      <point x="126" y="650" type="line"/>
      <point x="126" y="506" type="line"/>
      <point x="298" y="506" type="line"/>
    </contour>
    <contour>
      <point x="50" y="762" type="line"/>
      <point x="50" y="394" type="line"/>
      <point x="202" y="394" type="line"/>
      <point x="202" y="762" type="line"/>
    </contour>
  </outline>
</glyph>
<glyph name="u16F49" format="2">
  <advance width="650"/>
  <unicode hex="16F49"/>
  <outline>
    <contour>
      <point x="302" y="0" type="line"/>
      <point x="474" y="0" type="line"/>
      <point x="474" y="650" type="line"/>
      <point x="302" y="650" type="line"/>
    </contour>
    <contour>
      <point x="150" y="489" type="line"/>
      <point x="150" y="345" type="line"/>
      <point x="626" y="345" type="line"/>
      <point x="626" y="489" type="line"/>
    </contour>
    <contour>
      <point x="54" y="601" type="line"/>
      <point x="54" y="233" type="line"/>
      <point x="206" y="233" type="line"/>
      <point x="206" y="601" type="line"/>
    </contour>
  </outline>
</glyph>
<glyph name="u16F4A" format="2">
  <advance width="710"/>
  <unicode hex="16F4A"/>
  <anchor x="355" y="690" name="H"/>
  <anchor x="710" y="660" name="S"/>
  <anchor x="710" y="345" name="W"/>
  <anchor x="710" y="460" name="E"/>
  <anchor x="710" y="230" name="K"/>
  <anchor x="710" y="578" name="D"/>
  <anchor x="355" y="-30" name="L"/>
  <outline>
    <contour>
      <point x="302" y="506" type="line"/>
      <point x="302" y="0" type="line"/>
      <point x="656" y="0" type="line"/>
      <point x="656" y="144" type="line"/>
      <point x="474" y="144" type="line"/>
      <point x="474" y="506" type="line"/>
      <point x="646" y="506" type="line"/>
      <point x="646" y="650" type="line"/>
      <point x="130" y="650" type="line"/>
      <point x="130" y="506" type="line"/>
    </contour>
    <contour>
      <point x="54" y="762" type="line"/>
      <point x="54" y="394" type="line"/>
      <point x="206" y="394" type="line"/>
      <point x="206" y="762" type="line"/>
    </contour>
  </outline>
</glyph>
<glyph name="u16F4F" format="2">
  <advance width="208"/>
  <unicode hex="16F4F"/>
  <outline>
    <contour>
      <point x="54" y="0" type="line"/>
      <point x="154" y="0" type="line"/>
      <point x="154" y="276" type="line"/>
      <point x="54" y="276" type="line"/>
    </contour>
  </outline>
</glyph>
<glyph name="u16F50" format="2">
  <advance width="461"/>
  <unicode hex="16F50"/>
  <anchor x="475" y="578" name="D"/>
  <anchor x="475" y="460" name="E"/>
  <anchor x="235" y="690" name="H"/>
  <anchor x="475" y="230" name="K"/>
  <anchor x="235" y="-30" name="L"/>
  <anchor x="475" y="660" name="S"/>
  <anchor x="475" y="345" name="W"/>
  <outline>
    <contour>
      <point x="384" y="0" type="curve" smooth="yes"/>
      <point x="421" y="0" type="line"/>
      <point x="421" y="144" type="line"/>
      <point x="404" y="144" type="line" smooth="yes"/>
      <point x="310" y="144"/>
      <point x="216" y="170"/>
      <point x="216" y="322" type="curve" smooth="yes"/>
      <point x="216" y="464"/>
      <point x="310" y="506"/>
      <point x="404" y="506" type="curve" smooth="yes"/>
      <point x="411" y="506" type="line"/>
      <point x="411" y="650" type="line"/>
      <point x="384" y="650" type="line" smooth="yes"/>
      <point x="196" y="650"/>
      <point x="40" y="542"/>
      <point x="40" y="322" type="curve" smooth="yes"/>
      <point x="40" y="92"/>
      <point x="186" y="0"/>
    </contour>
  </outline>
</glyph>
<glyph name="u16F51" format="2">
  <advance width="262"/>
  <unicode hex="16F51"/>
  <anchor x="212" y="700" name="HD"/>
  <anchor x="262" y="660" name="S"/>
  <anchor x="0" y="660" name="SB"/>
  <anchor x="262" y="330" name="W"/>
  <outline>
    <contour>
      <point x="57" y="452" type="line"/>
      <point x="203" y="482"/>
      <point x="222" y="548"/>
      <point x="222" y="588" type="curve" smooth="yes"/>
      <point x="222" y="628"/>
      <point x="190" y="662"/>
      <point x="120" y="662" type="curve" smooth="yes"/>
      <point x="60" y="662"/>
      <point x="25" y="635"/>
      <point x="25" y="601" type="curve" smooth="yes"/>
      <point x="25" y="562"/>
      <point x="62" y="552"/>
      <point x="105" y="552" type="curve" smooth="yes"/>
      <point x="127" y="552"/>
      <point x="145" y="559"/>
      <point x="161" y="576" type="curve"/>
      <point x="115" y="619" type="line"/>
      <point x="116" y="575" type="line"/>
      <point x="116" y="537"/>
      <point x="104" y="520"/>
      <point x="30" y="502" type="curve"/>
    </contour>
  </outline>
</glyph>
<glyph name="u16F52" format="2">
  <advance width="235"/>
  <unicode hex="16F52"/>
  <anchor x="0" y="566" name="S"/>
  <anchor x="235" y="566" name="SB"/>
  <outline>
    <contour>
      <point x="179" y="748" type="line"/>
      <point x="73" y="698"/>
      <point x="24" y="637"/>
      <point x="24" y="572" type="curve" smooth="yes"/>
      <point x="24" y="512"/>
      <point x="56" y="478"/>
      <point x="121" y="478" type="curve" smooth="yes"/>
      <point x="171" y="478"/>
      <point x="211" y="509"/>
      <point x="211" y="553" type="curve" smooth="yes"/>
      <point x="211" y="602"/>
      <point x="169" y="628"/>
      <point x="121" y="628" type="curve" smooth="yes"/>
      <point x="99" y="628"/>
      <point x="81" y="616"/>
      <point x="65" y="604" type="curve"/>
      <point x="111" y="551" type="line"/>
      <point x="110" y="595" type="line"/>
      <point x="110" y="643"/>
      <point x="142" y="670"/>
      <point x="206" y="698" type="curve"/>
    </contour>
  </outline>
</glyph>
<glyph name="u16F53" format="2">
  <advance width="235"/>
  <unicode hex="16F53"/>
  <anchor x="235" y="0" name="F"/>
  <anchor x="0" y="0" name="FB"/>
  <outline>
    <contour>
      <point x="56" y="-123" type="line"/>
      <point x="162" y="-73"/>
      <point x="211" y="-12"/>
      <point x="211" y="53" type="curve" smooth="yes"/>
      <point x="211" y="113"/>
      <point x="179" y="147"/>
      <point x="114" y="147" type="curve" smooth="yes"/>
      <point x="64" y="147"/>
      <point x="24" y="116"/>
      <point x="24" y="72" type="curve" smooth="yes"/>
      <point x="24" y="23"/>
      <point x="66" y="-3"/>
      <point x="114" y="-3" type="curve" smooth="yes"/>
      <point x="136" y="-3"/>
      <point x="154" y="9"/>
      <point x="170" y="21" type="curve"/>
      <point x="124" y="74" type="line"/>
      <point x="125" y="30" type="line"/>
      <point x="125" y="-18"/>
      <point x="93" y="-45"/>
      <point x="29" y="-73" type="curve"/>
    </contour>
  </outline>
</glyph>
<glyph name="u16F54" format="2">
  <advance width="302"/>
  <unicode hex="16F54"/>
  <outline>
    <contour>
      <point x="24" y="183" type="line"/>
      <point x="24" y="93" type="line"/>
      <point x="278" y="93" type="line"/>
      <point x="278" y="183" type="line"/>
    </contour>
  </outline>
</glyph>
<glyph name="u16F55" format="2">
  <advance width="479"/>
  <unicode hex="16F55"/>
  <anchor x="479" y="0" name="F"/>
  <anchor x="0" y="0" name="FB"/>
  <anchor x="0" y="10" name="FBR"/>
  <anchor x="479" y="10" name="FR"/>
  <anchor x="479" y="200" name="S"/>
  <anchor x="0" y="200" name="SB"/>
  <anchor x="0" y="190" name="SBR"/>
  <anchor x="0" y="210" name="SBRT"/>
  <anchor x="0" y="220" name="SBT"/>
  <anchor x="479" y="190" name="SR"/>
  <anchor x="479" y="210" name="SRT"/>
  <anchor x="479" y="220" name="ST"/>
  <anchor x="479" y="138" name="W"/>
  <anchor x="0" y="138" name="WB"/>
  <outline>
    <contour>
      <point x="259" y="276" type="curve"/>
      <point x="159" y="276" type="line"/>
      <point x="159" y="266"/>
      <point x="159" y="148"/>
      <point x="159" y="138" type="curve" smooth="yes"/>
      <point x="159" y="51"/>
      <point x="222" y="-12"/>
      <point x="304" y="-12" type="curve" smooth="yes"/>
      <point x="386" y="-12"/>
      <point x="449" y="51"/>
      <point x="449" y="138" type="curve" smooth="yes"/>
      <point x="449" y="148"/>
      <point x="449" y="266"/>
      <point x="449" y="276" type="curve"/>
      <point x="349" y="276" type="line"/>
      <point x="349" y="266"/>
      <point x="349" y="143"/>
      <point x="349" y="133" type="curve" smooth="yes"/>
      <point x="349" y="100"/>
      <point x="331" y="83"/>
      <point x="304" y="83" type="curve" smooth="yes"/>
      <point x="276" y="83"/>
      <point x="259" y="100"/>
      <point x="259" y="133" type="curve" smooth="yes"/>
      <point x="259" y="143"/>
      <point x="259" y="266"/>
    </contour>
    <contour>
      <point x="25" y="276" type="line"/>
      <point x="25" y="186" type="line"/>
      <point x="259" y="186" type="line"/>
      <point x="259" y="276" type="line"/>
    </contour>
  </outline>
</glyph>
<glyph name="u16F56" format="2">
  <advance width="350"/>
  <unicode hex="16F56"/>
  <anchor x="350" y="148" name="E"/>
  <anchor x="0" y="148" name="EB"/>
  <anchor x="350" y="0" name="F"/>
  <anchor x="0" y="0" name="FB"/>
  <anchor x="0" y="10" name="FBR"/>
  <anchor x="350" y="10" name="FR"/>
  <anchor x="350" y="128" name="K"/>
  <anchor x="0" y="128" name="KB"/>
  <anchor x="350" y="200" name="S"/>
  <anchor x="0" y="200" name="SB"/>
  <anchor x="0" y="190" name="SBR"/>
  <anchor x="0" y="296" name="SBRT"/>
  <anchor x="0" y="306" name="SBT"/>
  <anchor x="350" y="190" name="SR"/>
  <anchor x="350" y="296" name="SRT"/>
  <anchor x="350" y="306" name="ST"/>
  <anchor x="350" y="138" name="W"/>
  <anchor x="0" y="138" name="WB"/>
  <outline>
    <contour>
      <point x="130" y="276" type="curve"/>
      <point x="30" y="276" type="line"/>
      <point x="30" y="266"/>
      <point x="30" y="148"/>
      <point x="30" y="138" type="curve" smooth="yes"/>
      <point x="30" y="51"/>
      <point x="93" y="-12"/>
      <point x="175" y="-12" type="curve" smooth="yes"/>
      <point x="257" y="-12"/>
      <point x="320" y="51"/>
      <point x="320" y="138" type="curve" smooth="yes"/>
      <point x="320" y="148"/>
      <point x="320" y="266"/>
      <point x="320" y="276" type="curve"/>
      <point x="220" y="276" type="line"/>
      <point x="220" y="266"/>
      <point x="220" y="143"/>
      <point x="220" y="133" type="curve" smooth="yes"/>
      <point x="220" y="100"/>
      <point x="202" y="83"/>
      <point x="175" y="83" type="curve" smooth="yes"/>
      <point x="147" y="83"/>
      <point x="130" y="100"/>
      <point x="130" y="133" type="curve" smooth="yes"/>
      <point x="130" y="143"/>
      <point x="130" y="266"/>
    </contour>
    <contour>
      <point x="30" y="223" type="line"/>
      <point x="30" y="148" type="line"/>
      <point x="320" y="148" type="line"/>
      <point x="320" y="223" type="line"/>
    </contour>
  </outline>
</glyph>
<glyph name="u16F57" format="2">
  <advance width="416"/>
  <unicode hex="16F57"/>
  <anchor x="416" y="0" name="F"/>
  <anchor x="0" y="0" name="FB"/>
  <anchor x="416" y="200" name="S"/>
  <anchor x="0" y="200" name="SB"/>
  <anchor x="416" y="138" name="W"/>
  <anchor x="0" y="138" name="WB"/>
  <outline>
    <contour>
      <point x="25" y="201" type="line"/>
      <point x="189" y="201" type="line"/>
      <point x="239" y="276" type="line"/>
      <point x="25" y="276" type="line"/>
    </contour>
    <contour>
      <point x="258" y="-12" type="curve" smooth="yes"/>
      <point x="355" y="-12"/>
      <point x="396" y="58"/>
      <point x="396" y="135" type="curve"/>
      <point x="371" y="135"/>
      <point x="339" y="135"/>
      <point x="311" y="135" type="curve"/>
      <point x="311" y="90"/>
      <point x="289" y="68"/>
      <point x="260" y="68" type="curve" smooth="yes"/>
      <point x="230" y="68"/>
      <point x="212" y="87"/>
      <point x="212" y="133" type="curve" smooth="yes"/>
      <point x="212" y="182"/>
      <point x="246" y="228"/>
      <point x="286" y="276" type="curve"/>
      <point x="197" y="276" type="line"/>
      <point x="163" y="240"/>
      <point x="125" y="181"/>
      <point x="125" y="117" type="curve" smooth="yes"/>
      <point x="125" y="51"/>
      <point x="161" y="-12"/>
    </contour>
  </outline>
</glyph>
<glyph name="u16F58" format="2">
  <advance width="416"/>
  <unicode hex="16F58"/>
  <anchor x="415" y="200" name="S"/>
  <anchor x="1" y="200" name="SB"/>
  <anchor x="415" y="138" name="W"/>
  <anchor x="1" y="138" name="WB"/>
  <outline>
    <contour>
      <point x="25" y="276" type="line"/>
      <point x="25" y="201" type="line"/>
      <point x="184" y="201" type="line"/>
      <point x="239" y="276" type="line"/>
    </contour>
    <contour>
      <point x="206" y="170" type="curve"/>
      <point x="206" y="111" type="line"/>
      <point x="215" y="126"/>
      <point x="233" y="143"/>
      <point x="260" y="143" type="curve" smooth="yes"/>
      <point x="296" y="143"/>
      <point x="306" y="123"/>
      <point x="306" y="105" type="curve" smooth="yes"/>
      <point x="306" y="85"/>
      <point x="289" y="68"/>
      <point x="260" y="68" type="curve" smooth="yes"/>
      <point x="230" y="68"/>
      <point x="212" y="87"/>
      <point x="212" y="133" type="curve" smooth="yes"/>
      <point x="212" y="182"/>
      <point x="246" y="228"/>
      <point x="286" y="276" type="curve"/>
      <point x="197" y="276" type="line"/>
      <point x="163" y="240"/>
      <point x="125" y="181"/>
      <point x="125" y="117" type="curve" smooth="yes"/>
      <point x="125" y="51"/>
      <point x="161" y="-12"/>
      <point x="258" y="-12" type="curve" smooth="yes"/>
      <point x="355" y="-12"/>
      <point x="391" y="53"/>
      <point x="391" y="105" type="curve" smooth="yes"/>
      <point x="391" y="163"/>
      <point x="352" y="213"/>
      <point x="285" y="213" type="curve" smooth="yes"/>
      <point x="247" y="213"/>
      <point x="217" y="185"/>
    </contour>
  </outline>
</glyph>
<glyph name="u16F59" format="2">
  <advance width="340"/>
  <unicode hex="16F59"/>
  <anchor x="339" y="200" name="S"/>
  <anchor x="1" y="200" name="SB"/>
  <anchor x="339" y="138" name="W"/>
  <anchor x="1" y="138" name="WB"/>
  <outline>
    <contour>
      <point x="170" y="-12" type="curve" smooth="yes"/>
      <point x="252" y="-12"/>
      <point x="315" y="56"/>
      <point x="315" y="138" type="curve" smooth="yes"/>
      <point x="315" y="220"/>
      <point x="252" y="288"/>
      <point x="170" y="288" type="curve" smooth="yes"/>
      <point x="88" y="288"/>
      <point x="25" y="220"/>
      <point x="25" y="138" type="curve" smooth="yes"/>
      <point x="25" y="56"/>
      <point x="88" y="-12"/>
    </contour>
    <contour>
      <point x="170" y="88" type="curve" smooth="yes"/>
      <point x="143" y="88"/>
      <point x="125" y="111"/>
      <point x="125" y="138" type="curve" smooth="yes"/>
      <point x="125" y="166"/>
      <point x="143" y="188"/>
      <point x="170" y="188" type="curve" smooth="yes"/>
      <point x="198" y="188"/>
      <point x="215" y="166"/>
      <point x="215" y="138" type="curve" smooth="yes"/>
      <point x="215" y="111"/>
      <point x="198" y="88"/>
    </contour>
  </outline>
</glyph>
<glyph name="u16F5A" format="2">
  <advance width="409"/>
  <unicode hex="16F5A"/>
  <anchor x="408" y="200" name="S"/>
  <anchor x="1" y="200" name="SB"/>
  <anchor x="408" y="138" name="W"/>
  <anchor x="1" y="138" name="WB"/>
  <outline>
    <contour>
      <point x="170" y="-12" type="curve" smooth="yes"/>
      <point x="252" y="-12"/>
      <point x="315" y="52"/>
      <point x="315" y="132" type="curve" smooth="yes"/>
      <point x="315" y="212"/>
      <point x="252" y="276"/>
      <point x="170" y="276" type="curve" smooth="yes"/>
      <point x="88" y="276"/>
      <point x="25" y="212"/>
      <point x="25" y="132" type="curve" smooth="yes"/>
      <point x="25" y="52"/>
      <point x="88" y="-12"/>
    </contour>
    <contour>
      <point x="170" y="82" type="curve" smooth="yes"/>
      <point x="140" y="82"/>
      <point x="120" y="105"/>
      <point x="120" y="132" type="curve" smooth="yes"/>
      <point x="120" y="160"/>
      <point x="140" y="182"/>
      <point x="170" y="182" type="curve" smooth="yes"/>
      <point x="201" y="182"/>
      <point x="220" y="160"/>
      <point x="220" y="132" type="curve" smooth="yes"/>
      <point x="220" y="105"/>
      <point x="201" y="82"/>
    </contour>
    <contour>
      <point x="170" y="276" type="line"/>
      <point x="170" y="186" type="line"/>
      <point x="384" y="186" type="line"/>
      <point x="384" y="276" type="line"/>
    </contour>
  </outline>
</glyph>
<glyph name="u16F5B" format="2">
  <advance width="338"/>
  <unicode hex="16F5B"/>
  <anchor x="0" y="200" name="_S"/>
  <anchor x="0" y="138" name="_W"/>
  <anchor x="338" y="200" name="S"/>
  <anchor x="338" y="138" name="W"/>
  <outline>
    <contour>
      <point x="169" y="-12" type="curve" smooth="yes"/>
      <point x="251" y="-12"/>
      <point x="314" y="46"/>
      <point x="314" y="128" type="curve" smooth="yes"/>
      <point x="314" y="210"/>
      <point x="251" y="268"/>
      <point x="169" y="268" type="curve" smooth="yes"/>
      <point x="87" y="268"/>
      <point x="24" y="210"/>
      <point x="24" y="128" type="curve" smooth="yes"/>
      <point x="24" y="46"/>
      <point x="87" y="-12"/>
    </contour>
    <contour>
      <point x="169" y="78" type="curve" smooth="yes"/>
      <point x="139" y="78"/>
      <point x="119" y="101"/>
      <point x="119" y="128" type="curve" smooth="yes"/>
      <point x="119" y="156"/>
      <point x="139" y="178"/>
      <point x="169" y="178" type="curve" smooth="yes"/>
      <point x="200" y="178"/>
      <point x="219" y="156"/>
      <point x="219" y="128" type="curve" smooth="yes"/>
      <point x="219" y="101"/>
      <point x="200" y="78"/>
    </contour>
    <contour>
      <point x="219" y="336" type="line"/>
      <point x="119" y="336" type="line"/>
      <point x="119" y="210" type="line"/>
      <point x="219" y="210" type="line"/>
    </contour>
  </outline>
</glyph>
<glyph name="u16F5C" format="2">
  <advance width="301"/>
  <unicode hex="16F5C"/>
  <outline>
    <contour>
      <point x="24" y="75" type="curve"/>
      <point x="24" y="0" type="line"/>
      <point x="34" y="0"/>
      <point x="127" y="0"/>
      <point x="137" y="0" type="curve" smooth="yes"/>
      <point x="214" y="0"/>
      <point x="277" y="34"/>
      <point x="277" y="118" type="curve" smooth="yes"/>
      <point x="277" y="202"/>
      <point x="214" y="236"/>
      <point x="137" y="236" type="curve" smooth="yes"/>
      <point x="127" y="236"/>
      <point x="34" y="236"/>
      <point x="24" y="236" type="curve"/>
      <point x="24" y="161" type="line"/>
      <point x="34" y="161"/>
      <point x="107" y="161"/>
      <point x="117" y="161" type="curve" smooth="yes"/>
      <point x="155" y="161"/>
      <point x="177" y="147"/>
      <point x="177" y="118" type="curve" smooth="yes"/>
      <point x="177" y="88"/>
      <point x="155" y="75"/>
      <point x="117" y="75" type="curve" smooth="yes"/>
      <point x="107" y="75"/>
      <point x="34" y="75"/>
    </contour>
    <contour>
      <point x="124" y="332" type="line"/>
      <point x="24" y="332" type="line"/>
      <point x="24" y="161" type="line"/>
      <point x="124" y="161" type="line"/>
    </contour>
  </outline>
</glyph>
<glyph name="u16F5D" format="2">
  <advance width="313"/>
  <unicode hex="16F5D"/>
  <anchor x="0" y="200" name="SB"/>
  <anchor x="0" y="138" name="WB"/>
  <anchor x="0" y="0" name="FB"/>
  <anchor x="313" y="200" name="S"/>
  <anchor x="313" y="138" name="W"/>
  <anchor x="313" y="0" name="F"/>
  <outline>
    <contour>
      <point x="283" y="186" type="curve"/>
      <point x="283" y="276" type="line"/>
      <point x="273" y="276"/>
      <point x="185" y="276"/>
      <point x="175" y="276" type="curve" smooth="yes"/>
      <point x="88" y="276"/>
      <point x="25" y="222"/>
      <point x="25" y="138" type="curve" smooth="yes"/>
      <point x="25" y="54"/>
      <point x="88" y="0"/>
      <point x="175" y="0" type="curve" smooth="yes"/>
      <point x="185" y="0"/>
      <point x="273" y="0"/>
      <point x="283" y="0" type="curve"/>
      <point x="283" y="90" type="line"/>
      <point x="273" y="90"/>
      <point x="185" y="90"/>
      <point x="175" y="90" type="curve" smooth="yes"/>
      <point x="142" y="90"/>
      <point x="125" y="109"/>
      <point x="125" y="138" type="curve" smooth="yes"/>
      <point x="125" y="168"/>
      <point x="142" y="186"/>
      <point x="175" y="186" type="curve" smooth="yes"/>
      <point x="185" y="186"/>
      <point x="273" y="186"/>
    </contour>
  </outline>
</glyph>
<glyph name="u16F5E" format="2">
  <advance width="301"/>
  <unicode hex="16F5E"/>
  <anchor x="0" y="200" name="_S"/>
  <anchor x="0" y="138" name="_W"/>
  <anchor x="301" y="200" name="S"/>
  <anchor x="301" y="138" name="W"/>
  <outline>
    <contour>
      <point x="267" y="262" type="curve"/>
      <point x="267" y="332" type="line"/>
      <point x="257" y="332"/>
      <point x="174" y="332"/>
      <point x="164" y="332" type="curve" smooth="yes"/>
      <point x="87" y="332"/>
      <point x="29" y="316"/>
      <point x="29" y="232" type="curve" smooth="yes"/>
      <point x="29" y="148"/>
      <point x="147" y="132"/>
      <point x="164" y="132" type="curve" smooth="yes"/>
      <point x="174" y="132"/>
      <point x="207" y="132"/>
      <point x="217" y="132" type="curve"/>
      <point x="217" y="202" type="line"/>
      <point x="207" y="202"/>
      <point x="194" y="202"/>
      <point x="184" y="202" type="curve" smooth="yes"/>
      <point x="149" y="202"/>
      <point x="129" y="208"/>
      <point x="129" y="232" type="curve" smooth="yes"/>
      <point x="129" y="257"/>
      <point x="149" y="262"/>
      <point x="184" y="262" type="curve" smooth="yes"/>
      <point x="194" y="262"/>
      <point x="257" y="262"/>
    </contour>
    <contour>
      <point x="217" y="132" type="curve"/>
      <point x="217" y="202" type="line"/>
      <point x="207" y="202"/>
      <point x="174" y="202"/>
      <point x="164" y="202" type="curve" smooth="yes"/>
      <point x="147" y="202"/>
      <point x="24" y="185"/>
      <point x="24" y="101" type="curve" smooth="yes"/>
      <point x="24" y="17"/>
      <point x="87" y="0"/>
      <point x="164" y="0" type="curve" smooth="yes"/>
      <point x="174" y="0"/>
      <point x="267" y="0"/>
      <point x="277" y="0" type="curve"/>
      <point x="277" y="70" type="line"/>
      <point x="267" y="70"/>
      <point x="194" y="70"/>
      <point x="184" y="70" type="curve" smooth="yes"/>
      <point x="146" y="70"/>
      <point x="124" y="75"/>
      <point x="124" y="101" type="curve" smooth="yes"/>
      <point x="124" y="128"/>
      <point x="146" y="132"/>
      <point x="184" y="132" type="curve" smooth="yes"/>
      <point x="194" y="132"/>
      <point x="207" y="132"/>
    </contour>
  </outline>
</glyph>
<glyph name="u16F5F" format="2">
  <advance width="460"/>
  <unicode hex="16F5F"/>
  <anchor x="0" y="200" name="SB"/>
  <anchor x="0" y="138" name="WB"/>
  <anchor x="460" y="200" name="S"/>
  <anchor x="460" y="138" name="W"/>
  <outline>
    <contour>
      <point x="267" y="262" type="curve"/>
      <point x="267" y="332" type="line"/>
      <point x="257" y="332"/>
      <point x="174" y="332"/>
      <point x="164" y="332" type="curve" smooth="yes"/>
      <point x="87" y="332"/>
      <point x="29" y="316"/>
      <point x="29" y="232" type="curve" smooth="yes"/>
      <point x="29" y="148"/>
      <point x="147" y="132"/>
      <point x="164" y="132" type="curve" smooth="yes"/>
      <point x="174" y="132"/>
      <point x="207" y="132"/>
      <point x="217" y="132" type="curve"/>
      <point x="217" y="202" type="line"/>
      <point x="207" y="202"/>
      <point x="194" y="202"/>
      <point x="184" y="202" type="curve" smooth="yes"/>
      <point x="149" y="202"/>
      <point x="129" y="208"/>
      <point x="129" y="232" type="curve" smooth="yes"/>
      <point x="129" y="257"/>
      <point x="149" y="262"/>
      <point x="184" y="262" type="curve" smooth="yes"/>
      <point x="194" y="262"/>
      <point x="257" y="262"/>
    </contour>
    <contour>
      <point x="217" y="132" type="curve"/>
      <point x="217" y="202" type="line"/>
      <point x="207" y="202"/>
      <point x="174" y="202"/>
      <point x="164" y="202" type="curve" smooth="yes"/>
      <point x="147" y="202"/>
      <point x="24" y="185"/>
      <point x="24" y="101" type="curve" smooth="yes"/>
      <point x="24" y="17"/>
      <point x="87" y="0"/>
      <point x="164" y="0" type="curve" smooth="yes"/>
      <point x="174" y="0"/>
      <point x="267" y="0"/>
      <point x="277" y="0" type="curve"/>
      <point x="277" y="70" type="line"/>
      <point x="267" y="70"/>
      <point x="194" y="70"/>
      <point x="184" y="70" type="curve" smooth="yes"/>
      <point x="146" y="70"/>
      <point x="124" y="75"/>
      <point x="124" y="101" type="curve" smooth="yes"/>
      <point x="124" y="128"/>
      <point x="146" y="132"/>
      <point x="184" y="132" type="curve" smooth="yes"/>
      <point x="194" y="132"/>
      <point x="207" y="132"/>
    </contour>
    <contour>
      <point x="330" y="-73" type="curve" smooth="yes"/>
      <point x="389" y="-73"/>
      <point x="436" y="-24"/>
      <point x="436" y="35" type="curve" smooth="yes"/>
      <point x="436" y="94"/>
      <point x="389" y="143"/>
      <point x="330" y="143" type="curve" smooth="yes"/>
      <point x="271" y="143"/>
      <point x="224" y="94"/>
      <point x="224" y="35" type="curve" smooth="yes"/>
      <point x="224" y="-24"/>
      <point x="271" y="-73"/>
    </contour>
    <contour>
      <point x="330" y="-3" type="curve" smooth="yes"/>
      <point x="309" y="-3"/>
      <point x="295" y="14"/>
      <point x="295" y="35" type="curve" smooth="yes"/>
      <point x="295" y="57"/>
      <point x="309" y="73"/>
      <point x="330" y="73" type="curve" smooth="yes"/>
      <point x="352" y="73"/>
      <point x="365" y="57"/>
      <point x="365" y="35" type="curve" smooth="yes"/>
      <point x="365" y="14"/>
      <point x="352" y="-3"/>
    </contour>
  </outline>
</glyph>
<glyph name="u16F60" format="2">
  <advance width="308"/>
  <unicode hex="16F60"/>
  <anchor x="308" y="0" name="F"/>
  <anchor x="0" y="0" name="FB"/>
  <anchor x="0" y="10" name="FBR"/>
  <anchor x="308" y="10" name="FR"/>
  <anchor x="308" y="256" name="S"/>
  <anchor x="0" y="256" name="SB"/>
  <anchor x="0" y="246" name="SBR"/>
  <anchor x="0" y="352" name="SBRT"/>
  <anchor x="0" y="362" name="SBT"/>
  <anchor x="308" y="246" name="SR"/>
  <anchor x="308" y="352" name="SRT"/>
  <anchor x="308" y="362" name="ST"/>
  <anchor x="308" y="138" name="W"/>
  <anchor x="0" y="138" name="WB"/>
  <outline>
    <contour>
      <point x="278" y="257" type="curve"/>
      <point x="278" y="332" type="line"/>
      <point x="268" y="332"/>
      <point x="175" y="332"/>
      <point x="165" y="332" type="curve" smooth="yes"/>
      <point x="88" y="332"/>
      <point x="25" y="298"/>
      <point x="25" y="214" type="curve" smooth="yes"/>
      <point x="25" y="130"/>
      <point x="88" y="96"/>
      <point x="165" y="96" type="curve" smooth="yes"/>
      <point x="175" y="96"/>
      <point x="268" y="96"/>
      <point x="278" y="96" type="curve"/>
      <point x="278" y="171" type="line"/>
      <point x="268" y="171"/>
      <point x="195" y="171"/>
      <point x="185" y="171" type="curve" smooth="yes"/>
      <point x="147" y="171"/>
      <point x="125" y="185"/>
      <point x="125" y="214" type="curve" smooth="yes"/>
      <point x="125" y="244"/>
      <point x="147" y="257"/>
      <point x="185" y="257" type="curve" smooth="yes"/>
      <point x="195" y="257"/>
      <point x="268" y="257"/>
    </contour>
    <contour>
      <point x="178" y="0" type="line"/>
      <point x="278" y="0" type="line"/>
      <point x="278" y="171" type="line"/>
      <point x="178" y="171" type="line"/>
    </contour>
  </outline>
</glyph>
<glyph name="u16F61" format="2">
  <advance width="350"/>
  <unicode hex="16F61"/>
  <anchor x="354" y="200" name="S"/>
  <anchor x="-4" y="200" name="SB"/>
  <anchor x="354" y="138" name="W"/>
  <anchor x="-4" y="138" name="WB"/>
  <outline>
    <contour>
      <point x="220" y="0" type="curve"/>
      <point x="320" y="0" type="line"/>
      <point x="320" y="10"/>
      <point x="320" y="128"/>
      <point x="320" y="138" type="curve" smooth="yes"/>
      <point x="320" y="225"/>
      <point x="257" y="288"/>
      <point x="175" y="288" type="curve" smooth="yes"/>
      <point x="93" y="288"/>
      <point x="30" y="225"/>
      <point x="30" y="138" type="curve" smooth="yes"/>
      <point x="30" y="128"/>
      <point x="30" y="10"/>
      <point x="30" y="0" type="curve"/>
      <point x="130" y="0" type="line"/>
      <point x="130" y="10"/>
      <point x="130" y="133"/>
      <point x="130" y="143" type="curve" smooth="yes"/>
      <point x="130" y="176"/>
      <point x="148" y="193"/>
      <point x="175" y="193" type="curve" smooth="yes"/>
      <point x="203" y="193"/>
      <point x="220" y="176"/>
      <point x="220" y="143" type="curve" smooth="yes"/>
      <point x="220" y="133"/>
      <point x="220" y="10"/>
    </contour>
  </outline>
</glyph>
<glyph name="u16F62" format="2">
  <advance width="479"/>
  <unicode hex="16F62"/>
  <anchor x="479" y="0" name="F"/>
  <anchor x="0" y="0" name="FB"/>
  <anchor x="479" y="200" name="S"/>
  <anchor x="0" y="200" name="SB"/>
  <anchor x="479" y="138" name="W"/>
  <anchor x="0" y="138" name="WB"/>
  <outline>
    <contour>
      <point x="220" y="0" type="curve"/>
      <point x="320" y="0" type="line"/>
      <point x="320" y="10"/>
      <point x="320" y="128"/>
      <point x="320" y="138" type="curve" smooth="yes"/>
      <point x="320" y="225"/>
      <point x="257" y="288"/>
      <point x="175" y="288" type="curve" smooth="yes"/>
      <point x="93" y="288"/>
      <point x="30" y="225"/>
      <point x="30" y="138" type="curve" smooth="yes"/>
      <point x="30" y="128"/>
      <point x="30" y="10"/>
      <point x="30" y="0" type="curve"/>
      <point x="130" y="0" type="line"/>
      <point x="130" y="10"/>
      <point x="130" y="133"/>
      <point x="130" y="143" type="curve" smooth="yes"/>
      <point x="130" y="176"/>
      <point x="148" y="193"/>
      <point x="175" y="193" type="curve" smooth="yes"/>
      <point x="203" y="193"/>
      <point x="220" y="176"/>
      <point x="220" y="143" type="curve" smooth="yes"/>
      <point x="220" y="133"/>
      <point x="220" y="10"/>
    </contour>
    <contour>
      <point x="454" y="0" type="line"/>
      <point x="454" y="90" type="line"/>
      <point x="220" y="90" type="line"/>
      <point x="220" y="0" type="line"/>
    </contour>
  </outline>
</glyph>
<glyph name="u16F63" format="2">
  <advance width="501"/>
  <unicode hex="16F63"/>
  <anchor x="501" y="0" name="F"/>
  <anchor x="0" y="0" name="FB"/>
  <anchor x="501" y="200" name="S"/>
  <anchor x="0" y="200" name="SB"/>
  <anchor x="501" y="138" name="W"/>
  <anchor x="0" y="138" name="WB"/>
  <outline>
    <contour>
      <point x="170" y="288" type="curve" smooth="yes"/>
      <point x="88" y="288"/>
      <point x="30" y="225"/>
      <point x="30" y="138" type="curve" smooth="yes"/>
      <point x="30" y="128"/>
      <point x="30" y="10"/>
      <point x="30" y="0" type="curve"/>
      <point x="130" y="0" type="line"/>
      <point x="130" y="10"/>
      <point x="130" y="133"/>
      <point x="130" y="143" type="curve" smooth="yes"/>
      <point x="130" y="176"/>
      <point x="142" y="193"/>
      <point x="170" y="193" type="curve" smooth="yes"/>
      <point x="197" y="193"/>
      <point x="210" y="176"/>
      <point x="210" y="143" type="curve" smooth="yes"/>
      <point x="210" y="133"/>
      <point x="210" y="10"/>
      <point x="210" y="0" type="curve"/>
      <point x="310" y="0" type="line"/>
      <point x="310" y="10"/>
      <point x="310" y="128"/>
      <point x="310" y="138" type="curve" smooth="yes"/>
      <point x="310" y="225"/>
      <point x="252" y="288"/>
    </contour>
    <contour>
      <point x="210" y="75" type="line"/>
      <point x="210" y="0" type="line"/>
      <point x="384" y="0" type="line"/>
      <point x="444" y="75" type="line"/>
    </contour>
    <contour>
      <point x="453" y="-213" type="curve" smooth="yes"/>
      <point x="550" y="-213"/>
      <point x="591" y="-143"/>
      <point x="591" y="-66" type="curve"/>
      <point x="566" y="-66"/>
      <point x="534" y="-66"/>
      <point x="506" y="-66" type="curve"/>
      <point x="506" y="-111"/>
      <point x="484" y="-133"/>
      <point x="455" y="-133" type="curve" smooth="yes"/>
      <point x="425" y="-133"/>
      <point x="407" y="-114"/>
      <point x="407" y="-68" type="curve" smooth="yes"/>
      <point x="407" y="-19"/>
      <point x="441" y="27"/>
      <point x="481" y="75" type="curve"/>
      <point x="392" y="75" type="line"/>
      <point x="358" y="39"/>
      <point x="320" y="-20"/>
      <point x="320" y="-84" type="curve" smooth="yes"/>
      <point x="320" y="-150"/>
      <point x="356" y="-213"/>
    </contour>
  </outline>
</glyph>
<glyph name="u16F64" format="2">
  <advance width="565"/>
  <unicode hex="16F64"/>
  <anchor x="565" y="0" name="F"/>
  <anchor x="0" y="0" name="FB"/>
  <anchor x="565" y="200" name="S"/>
  <anchor x="0" y="200" name="SB"/>
  <anchor x="565" y="138" name="W"/>
  <anchor x="0" y="138" name="WB"/>
  <outline>
    <contour>
      <point x="30" y="0" type="curve"/>
      <point x="130" y="0" type="line"/>
      <point x="130" y="10"/>
      <point x="130" y="133"/>
      <point x="130" y="143" type="curve" smooth="yes"/>
      <point x="130" y="176"/>
      <point x="142" y="193"/>
      <point x="170" y="193" type="curve" smooth="yes"/>
      <point x="197" y="193"/>
      <point x="210" y="176"/>
      <point x="210" y="143" type="curve" smooth="yes"/>
      <point x="210" y="133"/>
      <point x="210" y="10"/>
      <point x="210" y="0" type="curve"/>
      <point x="310" y="0" type="line"/>
      <point x="310" y="10"/>
      <point x="310" y="128"/>
      <point x="310" y="138" type="curve" smooth="yes"/>
      <point x="310" y="225"/>
      <point x="252" y="288"/>
      <point x="170" y="288" type="curve" smooth="yes"/>
      <point x="88" y="288"/>
      <point x="30" y="225"/>
      <point x="30" y="138" type="curve" smooth="yes"/>
      <point x="30" y="128"/>
      <point x="30" y="10"/>
    </contour>
    <contour>
      <point x="210" y="0" type="line"/>
      <point x="384" y="0" type="line"/>
      <point x="439" y="75" type="line"/>
      <point x="210" y="75" type="line"/>
    </contour>
    <contour>
      <point x="486" y="75" type="curve"/>
      <point x="416" y="75" type="line"/>
      <point x="347" y="40"/>
      <point x="315" y="-25"/>
      <point x="315" y="-79" type="curve" smooth="yes"/>
      <point x="315" y="-123"/>
      <point x="346" y="-183"/>
      <point x="438" y="-183" type="curve" smooth="yes"/>
      <point x="530" y="-183"/>
      <point x="565" y="-121"/>
      <point x="565" y="-71" type="curve" smooth="yes"/>
      <point x="565" y="-15"/>
      <point x="532" y="22"/>
      <point x="470" y="22" type="curve" smooth="yes"/>
      <point x="427" y="22"/>
      <point x="402" y="-11"/>
      <point x="391" y="-26" type="curve"/>
      <point x="391" y="-70" type="line"/>
      <point x="400" y="-55"/>
      <point x="418" y="-38"/>
      <point x="440" y="-38" type="curve" smooth="yes"/>
      <point x="471" y="-38"/>
      <point x="480" y="-55"/>
      <point x="480" y="-71" type="curve" smooth="yes"/>
      <point x="480" y="-89"/>
      <point x="464" y="-103"/>
      <point x="440" y="-103" type="curve" smooth="yes"/>
      <point x="415" y="-103"/>
      <point x="397" y="-87"/>
      <point x="397" y="-63" type="curve" smooth="yes"/>
      <point x="397" y="-20"/>
      <point x="413" y="35"/>
    </contour>
  </outline>
</glyph>
<glyph name="u16F65" format="2">
  <advance width="521"/>
  <unicode hex="16F65"/>
  <anchor x="0" y="200" name="SB"/>
  <anchor x="0" y="138" name="WB"/>
  <anchor x="0" y="0" name="FB"/>
  <anchor x="521" y="200" name="S"/>
  <anchor x="521" y="138" name="W"/>
  <anchor x="521" y="0" name="F"/>
  <outline>
    <contour>
      <point x="210" y="138" type="curve"/>
      <point x="310" y="138" type="line"/>
      <point x="310" y="148"/>
      <point x="310" y="158"/>
      <point x="310" y="168" type="curve" smooth="yes"/>
      <point x="310" y="245"/>
      <point x="252" y="288"/>
      <point x="170" y="288" type="curve" smooth="yes"/>
      <point x="88" y="288"/>
      <point x="30" y="225"/>
      <point x="30" y="138" type="curve" smooth="yes"/>
      <point x="30" y="128"/>
      <point x="30" y="10"/>
      <point x="30" y="0" type="curve"/>
      <point x="130" y="0" type="line"/>
      <point x="130" y="10"/>
      <point x="130" y="133"/>
      <point x="130" y="143" type="curve" smooth="yes"/>
      <point x="130" y="176"/>
      <point x="143" y="193"/>
      <point x="170" y="193" type="curve" smooth="yes"/>
      <point x="198" y="193"/>
      <point x="210" y="171"/>
      <point x="210" y="148" type="curve" smooth="yes"/>
      <point x="210" y="128"/>
      <point x="210" y="148"/>
    </contour>
    <contour>
      <point x="353" y="-12" type="curve" smooth="yes"/>
      <point x="435" y="-12"/>
      <point x="496" y="56"/>
      <point x="496" y="138" type="curve" smooth="yes"/>
      <point x="496" y="220"/>
      <point x="435" y="288"/>
      <point x="353" y="288" type="curve" smooth="yes"/>
      <point x="271" y="288"/>
      <point x="210" y="220"/>
      <point x="210" y="138" type="curve" smooth="yes"/>
      <point x="210" y="56"/>
      <point x="271" y="-12"/>
    </contour>
    <contour>
      <point x="353" y="88" type="curve" smooth="yes"/>
      <point x="326" y="88"/>
      <point x="310" y="111"/>
      <point x="310" y="138" type="curve" smooth="yes"/>
      <point x="310" y="166"/>
      <point x="326" y="188"/>
      <point x="353" y="188" type="curve" smooth="yes"/>
      <point x="381" y="188"/>
      <point x="396" y="166"/>
      <point x="396" y="138" type="curve" smooth="yes"/>
      <point x="396" y="111"/>
      <point x="381" y="88"/>
    </contour>
  </outline>
</glyph>
<glyph name="u16F66" format="2">
  <advance width="334"/>
  <unicode hex="16F66"/>
  <anchor x="334" y="128" name="E"/>
  <anchor x="0" y="128" name="EB"/>
  <anchor x="334" y="0" name="F"/>
  <anchor x="0" y="0" name="FB"/>
  <anchor x="0" y="10" name="FBR"/>
  <anchor x="334" y="10" name="FR"/>
  <anchor x="334" y="108" name="K"/>
  <anchor x="0" y="108" name="KB"/>
  <anchor x="334" y="180" name="S"/>
  <anchor x="0" y="180" name="SB"/>
  <anchor x="0" y="170" name="SBR"/>
  <anchor x="0" y="256" name="SBRT"/>
  <anchor x="0" y="266" name="SBT"/>
  <anchor x="334" y="170" name="SR"/>
  <anchor x="334" y="256" name="SRT"/>
  <anchor x="334" y="266" name="ST"/>
  <anchor x="334" y="118" name="W"/>
  <anchor x="0" y="118" name="WB"/>
  <outline>
    <contour>
      <point x="30" y="236" type="line"/>
      <point x="30" y="146" type="line"/>
      <point x="304" y="146" type="line"/>
      <point x="304" y="236" type="line"/>
    </contour>
    <contour>
      <point x="30" y="90" type="line"/>
      <point x="30" y="0" type="line"/>
      <point x="304" y="0" type="line"/>
      <point x="304" y="90" type="line"/>
    </contour>
  </outline>
</glyph>
<glyph name="u16F67" format="2">
  <advance width="520"/>
  <unicode hex="16F67"/>
  <anchor x="524" y="200" name="S"/>
  <anchor x="-4" y="200" name="SB"/>
  <anchor x="524" y="138" name="W"/>
  <anchor x="-4" y="138" name="WB"/>
  <outline>
    <contour>
      <point x="210" y="45" type="curve"/>
      <point x="310" y="45" type="line"/>
      <point x="310" y="55"/>
      <point x="310" y="158"/>
      <point x="310" y="168" type="curve" smooth="yes"/>
      <point x="310" y="215"/>
      <point x="252" y="288"/>
      <point x="170" y="288" type="curve" smooth="yes"/>
      <point x="88" y="288"/>
      <point x="30" y="225"/>
      <point x="30" y="138" type="curve" smooth="yes"/>
      <point x="30" y="128"/>
      <point x="30" y="10"/>
      <point x="30" y="0" type="curve"/>
      <point x="130" y="0" type="line"/>
      <point x="130" y="10"/>
      <point x="130" y="133"/>
      <point x="130" y="143" type="curve" smooth="yes"/>
      <point x="130" y="176"/>
      <point x="143" y="193"/>
      <point x="170" y="193" type="curve" smooth="yes"/>
      <point x="198" y="193"/>
      <point x="210" y="171"/>
      <point x="210" y="148" type="curve" smooth="yes"/>
      <point x="210" y="38"/>
      <point x="210" y="55"/>
    </contour>
    <contour>
      <point x="310" y="43" type="line"/>
      <point x="310" y="53"/>
      <point x="310" y="38"/>
      <point x="310" y="148" type="curve" smooth="yes"/>
      <point x="310" y="171"/>
      <point x="322" y="193"/>
      <point x="350" y="193" type="curve" smooth="yes"/>
      <point x="377" y="193"/>
      <point x="390" y="176"/>
      <point x="390" y="143" type="curve" smooth="yes"/>
      <point x="390" y="133"/>
      <point x="390" y="10"/>
      <point x="390" y="0" type="curve"/>
      <point x="490" y="0" type="line"/>
      <point x="490" y="10"/>
      <point x="490" y="128"/>
      <point x="490" y="138" type="curve" smooth="yes"/>
      <point x="490" y="225"/>
      <point x="432" y="288"/>
      <point x="350" y="288" type="curve" smooth="yes"/>
      <point x="268" y="288"/>
      <point x="210" y="215"/>
      <point x="210" y="168" type="curve" smooth="yes"/>
      <point x="210" y="148"/>
      <point x="210" y="53"/>
      <point x="210" y="43" type="curve"/>
    </contour>
  </outline>
</glyph>
<glyph name="u16F68" format="2">
  <advance width="528"/>
  <unicode hex="16F68"/>
  <outline>
    <contour>
      <point x="214" y="135" type="curve"/>
      <point x="314" y="135" type="line"/>
      <point x="314" y="145"/>
      <point x="314" y="158"/>
      <point x="314" y="168" type="curve" smooth="yes"/>
      <point x="314" y="245"/>
      <point x="256" y="288"/>
      <point x="174" y="288" type="curve" smooth="yes"/>
      <point x="92" y="288"/>
      <point x="34" y="225"/>
      <point x="34" y="138" type="curve" smooth="yes"/>
      <point x="34" y="128"/>
      <point x="34" y="10"/>
      <point x="34" y="0" type="curve"/>
      <point x="134" y="0" type="line"/>
      <point x="134" y="10"/>
      <point x="134" y="133"/>
      <point x="134" y="143" type="curve" smooth="yes"/>
      <point x="134" y="176"/>
      <point x="147" y="193"/>
      <point x="174" y="193" type="curve" smooth="yes"/>
      <point x="202" y="193"/>
      <point x="214" y="171"/>
      <point x="214" y="148" type="curve" smooth="yes"/>
      <point x="214" y="128"/>
      <point x="214" y="145"/>
    </contour>
    <contour>
      <point x="314" y="143" type="curve"/>
      <point x="214" y="143" type="line"/>
      <point x="214" y="133"/>
      <point x="214" y="128"/>
      <point x="214" y="108" type="curve" smooth="yes"/>
      <point x="214" y="31"/>
      <point x="272" y="-12"/>
      <point x="354" y="-12" type="curve" smooth="yes"/>
      <point x="436" y="-12"/>
      <point x="494" y="51"/>
      <point x="494" y="138" type="curve" smooth="yes"/>
      <point x="494" y="148"/>
      <point x="494" y="266"/>
      <point x="494" y="276" type="curve"/>
      <point x="394" y="276" type="line"/>
      <point x="394" y="266"/>
      <point x="394" y="143"/>
      <point x="394" y="133" type="curve" smooth="yes"/>
      <point x="394" y="100"/>
      <point x="381" y="83"/>
      <point x="354" y="83" type="curve" smooth="yes"/>
      <point x="326" y="83"/>
      <point x="314" y="105"/>
      <point x="314" y="128" type="curve" smooth="yes"/>
      <point x="314" y="148"/>
      <point x="314" y="133"/>
    </contour>
  </outline>
</glyph>
<glyph name="u16F69" format="2">
  <advance width="493"/>
  <unicode hex="16F69"/>
  <anchor x="0" y="200" name="SB"/>
  <anchor x="0" y="138" name="WB"/>
  <anchor x="493" y="200" name="S"/>
  <anchor x="493" y="138" name="W"/>
  <outline>
    <contour>
      <point x="214" y="90" type="curve"/>
      <point x="314" y="90" type="line"/>
      <point x="314" y="100"/>
      <point x="314" y="128"/>
      <point x="314" y="138" type="curve" smooth="yes"/>
      <point x="314" y="225"/>
      <point x="256" y="288"/>
      <point x="174" y="288" type="curve" smooth="yes"/>
      <point x="92" y="288"/>
      <point x="34" y="225"/>
      <point x="34" y="138" type="curve" smooth="yes"/>
      <point x="34" y="128"/>
      <point x="34" y="10"/>
      <point x="34" y="0" type="curve"/>
      <point x="134" y="0" type="line"/>
      <point x="134" y="10"/>
      <point x="134" y="133"/>
      <point x="134" y="143" type="curve" smooth="yes"/>
      <point x="134" y="176"/>
      <point x="147" y="193"/>
      <point x="174" y="193" type="curve" smooth="yes"/>
      <point x="202" y="193"/>
      <point x="214" y="176"/>
      <point x="214" y="143" type="curve" smooth="yes"/>
      <point x="214" y="133"/>
      <point x="214" y="100"/>
    </contour>
    <contour>
      <point x="308" y="74" type="curve"/>
      <point x="308" y="5" type="line"/>
      <point x="317" y="20"/>
      <point x="335" y="37"/>
      <point x="362" y="37" type="curve" smooth="yes"/>
      <point x="398" y="37"/>
      <point x="408" y="17"/>
      <point x="408" y="-1" type="curve" smooth="yes"/>
      <point x="408" y="-21"/>
      <point x="391" y="-38"/>
      <point x="362" y="-38" type="curve" smooth="yes"/>
      <point x="332" y="-38"/>
      <point x="314" y="-19"/>
      <point x="314" y="27" type="curve" smooth="yes"/>
      <point x="314" y="46"/>
      <point x="314" y="107"/>
      <point x="314" y="116" type="curve"/>
      <point x="214" y="116" type="line"/>
      <point x="214" y="107"/>
      <point x="214" y="25"/>
      <point x="214" y="11" type="curve" smooth="yes"/>
      <point x="214" y="-55"/>
      <point x="263" y="-118"/>
      <point x="360" y="-118" type="curve" smooth="yes"/>
      <point x="457" y="-118"/>
      <point x="493" y="-53"/>
      <point x="493" y="-1" type="curve" smooth="yes"/>
      <point x="493" y="57"/>
      <point x="454" y="107"/>
      <point x="387" y="107" type="curve" smooth="yes"/>
      <point x="349" y="107"/>
      <point x="319" y="89"/>
    </contour>
  </outline>
</glyph>
<glyph name="u16F6A" format="2">
  <advance width="358"/>
  <unicode hex="16F6A"/>
  <anchor x="0" y="200" name="SB"/>
  <anchor x="0" y="138" name="WB"/>
  <anchor x="358" y="200" name="S"/>
  <anchor x="358" y="138" name="W"/>
  <outline>
    <contour>
      <point x="134" y="276" type="curve"/>
      <point x="34" y="276" type="line"/>
      <point x="34" y="266"/>
      <point x="34" y="148"/>
      <point x="34" y="138" type="curve" smooth="yes"/>
      <point x="34" y="51"/>
      <point x="97" y="-12"/>
      <point x="179" y="-12" type="curve" smooth="yes"/>
      <point x="261" y="-12"/>
      <point x="324" y="51"/>
      <point x="324" y="138" type="curve" smooth="yes"/>
      <point x="324" y="148"/>
      <point x="324" y="266"/>
      <point x="324" y="276" type="curve"/>
      <point x="224" y="276" type="line"/>
      <point x="224" y="266"/>
      <point x="224" y="143"/>
      <point x="224" y="133" type="curve" smooth="yes"/>
      <point x="224" y="100"/>
      <point x="206" y="83"/>
      <point x="179" y="83" type="curve" smooth="yes"/>
      <point x="151" y="83"/>
      <point x="134" y="100"/>
      <point x="134" y="133" type="curve" smooth="yes"/>
      <point x="134" y="143"/>
      <point x="134" y="266"/>
    </contour>
  </outline>
</glyph>
<glyph name="u16F6B" format="2">
  <advance width="479"/>
  <unicode hex="16F6B"/>
  <anchor x="0" y="200" name="SB"/>
  <anchor x="0" y="138" name="WB"/>
  <anchor x="0" y="0" name="FB"/>
  <anchor x="479" y="200" name="S"/>
  <anchor x="479" y="138" name="W"/>
  <anchor x="479" y="0" name="F"/>
  <outline>
    <contour>
      <point x="130" y="276" type="curve"/>
      <point x="30" y="276" type="line"/>
      <point x="30" y="266"/>
      <point x="30" y="148"/>
      <point x="30" y="138" type="curve" smooth="yes"/>
      <point x="30" y="51"/>
      <point x="93" y="-12"/>
      <point x="175" y="-12" type="curve" smooth="yes"/>
      <point x="257" y="-12"/>
      <point x="320" y="51"/>
      <point x="320" y="138" type="curve" smooth="yes"/>
      <point x="320" y="148"/>
      <point x="320" y="266"/>
      <point x="320" y="276" type="curve"/>
      <point x="220" y="276" type="line"/>
      <point x="220" y="266"/>
      <point x="220" y="143"/>
      <point x="220" y="133" type="curve" smooth="yes"/>
      <point x="220" y="100"/>
      <point x="202" y="83"/>
      <point x="175" y="83" type="curve" smooth="yes"/>
      <point x="147" y="83"/>
      <point x="130" y="100"/>
      <point x="130" y="133" type="curve" smooth="yes"/>
      <point x="130" y="143"/>
      <point x="130" y="266"/>
    </contour>
    <contour>
      <point x="220" y="276" type="line"/>
      <point x="220" y="186" type="line"/>
      <point x="454" y="186" type="line"/>
      <point x="454" y="276" type="line"/>
    </contour>
  </outline>
</glyph>
<glyph name="u16F6C" format="2">
  <advance width="671"/>
  <unicode hex="16F6C"/>
  <anchor x="0" y="200" name="SB"/>
  <anchor x="0" y="138" name="WB"/>
  <anchor x="0" y="0" name="FB"/>
  <anchor x="671" y="200" name="S"/>
  <anchor x="671" y="138" name="W"/>
  <anchor x="671" y="0" name="F"/>
  <outline>
    <contour>
      <point x="170" y="-12" type="curve" smooth="yes"/>
      <point x="252" y="-12"/>
      <point x="310" y="51"/>
      <point x="310" y="138" type="curve" smooth="yes"/>
      <point x="310" y="148"/>
      <point x="310" y="266"/>
      <point x="310" y="276" type="curve"/>
      <point x="210" y="276" type="line"/>
      <point x="210" y="266"/>
      <point x="210" y="143"/>
      <point x="210" y="133" type="curve" smooth="yes"/>
      <point x="210" y="100"/>
      <point x="197" y="83"/>
      <point x="170" y="83" type="curve" smooth="yes"/>
      <point x="142" y="83"/>
      <point x="130" y="100"/>
      <point x="130" y="133" type="curve" smooth="yes"/>
      <point x="130" y="143"/>
      <point x="130" y="266"/>
      <point x="130" y="276" type="curve"/>
      <point x="30" y="276" type="line"/>
      <point x="30" y="266"/>
      <point x="30" y="148"/>
      <point x="30" y="138" type="curve" smooth="yes"/>
      <point x="30" y="51"/>
      <point x="88" y="-12"/>
    </contour>
    <contour>
      <point x="210" y="201" type="line"/>
      <point x="444" y="201" type="line"/>
      <point x="494" y="276" type="line"/>
      <point x="210" y="276" type="line"/>
    </contour>
    <contour>
      <point x="513" y="-12" type="curve" smooth="yes"/>
      <point x="610" y="-12"/>
      <point x="651" y="58"/>
      <point x="651" y="135" type="curve"/>
      <point x="626" y="135"/>
      <point x="594" y="135"/>
      <point x="566" y="135" type="curve"/>
      <point x="566" y="90"/>
      <point x="544" y="68"/>
      <point x="515" y="68" type="curve" smooth="yes"/>
      <point x="485" y="68"/>
      <point x="467" y="87"/>
      <point x="467" y="133" type="curve" smooth="yes"/>
      <point x="467" y="182"/>
      <point x="501" y="228"/>
      <point x="541" y="276" type="curve"/>
      <point x="452" y="276" type="line"/>
      <point x="418" y="240"/>
      <point x="380" y="181"/>
      <point x="380" y="117" type="curve" smooth="yes"/>
      <point x="380" y="51"/>
      <point x="416" y="-12"/>
    </contour>
  </outline>
</glyph>
<glyph name="u16F6D" format="2">
  <advance width="671"/>
  <unicode hex="16F6D"/>
  <anchor x="671" y="0" name="F"/>
  <anchor x="0" y="0" name="FB"/>
  <anchor x="671" y="200" name="S"/>
  <anchor x="0" y="200" name="SB"/>
  <anchor x="671" y="138" name="W"/>
  <anchor x="0" y="138" name="WB"/>
  <outline>
    <contour>
      <point x="130" y="276" type="curve"/>
      <point x="30" y="276" type="line"/>
      <point x="30" y="266"/>
      <point x="30" y="148"/>
      <point x="30" y="138" type="curve" smooth="yes"/>
      <point x="30" y="51"/>
      <point x="88" y="-12"/>
      <point x="170" y="-12" type="curve" smooth="yes"/>
      <point x="252" y="-12"/>
      <point x="310" y="51"/>
      <point x="310" y="138" type="curve" smooth="yes"/>
      <point x="310" y="148"/>
      <point x="310" y="266"/>
      <point x="310" y="276" type="curve"/>
      <point x="210" y="276" type="line"/>
      <point x="210" y="266"/>
      <point x="210" y="143"/>
      <point x="210" y="133" type="curve" smooth="yes"/>
      <point x="210" y="100"/>
      <point x="197" y="83"/>
      <point x="170" y="83" type="curve" smooth="yes"/>
      <point x="142" y="83"/>
      <point x="130" y="100"/>
      <point x="130" y="133" type="curve" smooth="yes"/>
      <point x="130" y="143"/>
      <point x="130" y="266"/>
    </contour>
    <contour>
      <point x="210" y="276" type="line"/>
      <point x="210" y="201" type="line"/>
      <point x="439" y="201" type="line"/>
      <point x="494" y="276" type="line"/>
    </contour>
    <contour>
      <point x="461" y="170" type="curve"/>
      <point x="461" y="111" type="line"/>
      <point x="470" y="126"/>
      <point x="488" y="143"/>
      <point x="515" y="143" type="curve" smooth="yes"/>
      <point x="551" y="143"/>
      <point x="561" y="123"/>
      <point x="561" y="105" type="curve" smooth="yes"/>
      <point x="561" y="85"/>
      <point x="544" y="68"/>
      <point x="515" y="68" type="curve" smooth="yes"/>
      <point x="485" y="68"/>
      <point x="467" y="87"/>
      <point x="467" y="133" type="curve" smooth="yes"/>
      <point x="467" y="182"/>
      <point x="501" y="228"/>
      <point x="541" y="276" type="curve"/>
      <point x="452" y="276" type="line"/>
      <point x="418" y="240"/>
      <point x="380" y="181"/>
      <point x="380" y="117" type="curve" smooth="yes"/>
      <point x="380" y="51"/>
      <point x="416" y="-12"/>
      <point x="513" y="-12" type="curve" smooth="yes"/>
      <point x="610" y="-12"/>
      <point x="646" y="53"/>
      <point x="646" y="105" type="curve" smooth="yes"/>
      <point x="646" y="163"/>
      <point x="607" y="213"/>
      <point x="540" y="213" type="curve" smooth="yes"/>
      <point x="502" y="213"/>
      <point x="472" y="185"/>
    </contour>
  </outline>
</glyph>
<glyph name="u16F6E" format="2">
  <advance width="528"/>
  <unicode hex="16F6E"/>
  <anchor x="528" y="200" name="S"/>
  <anchor x="0" y="200" name="SB"/>
  <anchor x="528" y="138" name="W"/>
  <anchor x="0" y="138" name="WB"/>
  <outline>
    <contour>
      <point x="214" y="231" type="line"/>
      <point x="214" y="221"/>
      <point x="214" y="238"/>
      <point x="214" y="128" type="curve" smooth="yes"/>
      <point x="214" y="105"/>
      <point x="202" y="83"/>
      <point x="174" y="83" type="curve" smooth="yes"/>
      <point x="147" y="83"/>
      <point x="134" y="100"/>
      <point x="134" y="133" type="curve" smooth="yes"/>
      <point x="134" y="143"/>
      <point x="134" y="266"/>
      <point x="134" y="276" type="curve"/>
      <point x="34" y="276" type="line"/>
      <point x="34" y="266"/>
      <point x="34" y="148"/>
      <point x="34" y="138" type="curve" smooth="yes"/>
      <point x="34" y="51"/>
      <point x="92" y="-12"/>
      <point x="174" y="-12" type="curve" smooth="yes"/>
      <point x="256" y="-12"/>
      <point x="314" y="61"/>
      <point x="314" y="108" type="curve" smooth="yes"/>
      <point x="314" y="118"/>
      <point x="314" y="221"/>
      <point x="314" y="231" type="curve"/>
    </contour>
    <contour>
      <point x="314" y="233" type="curve"/>
      <point x="214" y="233" type="line"/>
      <point x="214" y="223"/>
      <point x="214" y="128"/>
      <point x="214" y="108" type="curve" smooth="yes"/>
      <point x="214" y="61"/>
      <point x="272" y="-12"/>
      <point x="354" y="-12" type="curve" smooth="yes"/>
      <point x="436" y="-12"/>
      <point x="494" y="51"/>
      <point x="494" y="138" type="curve" smooth="yes"/>
      <point x="494" y="148"/>
      <point x="494" y="266"/>
      <point x="494" y="276" type="curve"/>
      <point x="394" y="276" type="line"/>
      <point x="394" y="266"/>
      <point x="394" y="143"/>
      <point x="394" y="133" type="curve" smooth="yes"/>
      <point x="394" y="100"/>
      <point x="381" y="83"/>
      <point x="354" y="83" type="curve" smooth="yes"/>
      <point x="326" y="83"/>
      <point x="314" y="105"/>
      <point x="314" y="128" type="curve" smooth="yes"/>
      <point x="314" y="238"/>
      <point x="314" y="223"/>
    </contour>
  </outline>
</glyph>
<glyph name="u16F6F" format="2">
  <advance width="528"/>
  <unicode hex="16F6F"/>
  <anchor x="528" y="200" name="S"/>
  <anchor x="0" y="200" name="SB"/>
  <anchor x="528" y="138" name="W"/>
  <anchor x="0" y="138" name="WB"/>
  <outline>
    <contour>
      <point x="394" y="161" type="line"/>
      <point x="394" y="151"/>
      <point x="394" y="168"/>
      <point x="394" y="128" type="curve" smooth="yes"/>
      <point x="394" y="105"/>
      <point x="382" y="83"/>
      <point x="354" y="83" type="curve" smooth="yes"/>
      <point x="327" y="83"/>
      <point x="314" y="100"/>
      <point x="314" y="133" type="curve" smooth="yes"/>
      <point x="314" y="143"/>
      <point x="314" y="266"/>
      <point x="314" y="276" type="curve"/>
      <point x="214" y="276" type="line"/>
      <point x="214" y="266"/>
      <point x="214" y="148"/>
      <point x="214" y="138" type="curve" smooth="yes"/>
      <point x="214" y="56"/>
      <point x="272" y="-12"/>
      <point x="354" y="-12" type="curve" smooth="yes"/>
      <point x="436" y="-12"/>
      <point x="494" y="41"/>
      <point x="494" y="118" type="curve" smooth="yes"/>
      <point x="494" y="128"/>
      <point x="494" y="151"/>
      <point x="494" y="161" type="curve"/>
    </contour>
    <contour>
      <point x="174" y="-12" type="curve" smooth="yes"/>
      <point x="256" y="-12"/>
      <point x="314" y="56"/>
      <point x="314" y="138" type="curve" smooth="yes"/>
      <point x="314" y="148"/>
      <point x="314" y="266"/>
      <point x="314" y="276" type="curve"/>
      <point x="214" y="276" type="line"/>
      <point x="214" y="266"/>
      <point x="214" y="143"/>
      <point x="214" y="133" type="curve" smooth="yes"/>
      <point x="214" y="100"/>
      <point x="201" y="83"/>
      <point x="174" y="83" type="curve" smooth="yes"/>
      <point x="146" y="83"/>
      <point x="134" y="100"/>
      <point x="134" y="133" type="curve" smooth="yes"/>
      <point x="134" y="143"/>
      <point x="134" y="266"/>
      <point x="134" y="276" type="curve"/>
      <point x="34" y="276" type="line"/>
      <point x="34" y="266"/>
      <point x="34" y="148"/>
      <point x="34" y="138" type="curve" smooth="yes"/>
      <point x="34" y="51"/>
      <point x="92" y="-12"/>
    </contour>
  </outline>
</glyph>
<glyph name="u16F70" format="2">
  <advance width="527"/>
  <unicode hex="16F70"/>
  <anchor x="527" y="200" name="S"/>
  <anchor x="0" y="200" name="SB"/>
  <anchor x="527" y="138" name="W"/>
  <anchor x="0" y="138" name="WB"/>
  <outline>
    <contour>
      <point x="308" y="180" type="curve"/>
      <point x="308" y="111" type="line"/>
      <point x="317" y="126"/>
      <point x="335" y="143"/>
      <point x="362" y="143" type="curve" smooth="yes"/>
      <point x="398" y="143"/>
      <point x="408" y="123"/>
      <point x="408" y="105" type="curve" smooth="yes"/>
      <point x="408" y="85"/>
      <point x="391" y="68"/>
      <point x="362" y="68" type="curve" smooth="yes"/>
      <point x="332" y="68"/>
      <point x="314" y="87"/>
      <point x="314" y="133" type="curve" smooth="yes"/>
      <point x="314" y="152"/>
      <point x="314" y="213"/>
      <point x="314" y="222" type="curve"/>
      <point x="214" y="222" type="line"/>
      <point x="214" y="213"/>
      <point x="214" y="131"/>
      <point x="214" y="117" type="curve" smooth="yes"/>
      <point x="214" y="61"/>
      <point x="263" y="-12"/>
      <point x="360" y="-12" type="curve" smooth="yes"/>
      <point x="457" y="-12"/>
      <point x="493" y="53"/>
      <point x="493" y="105" type="curve" smooth="yes"/>
      <point x="493" y="163"/>
      <point x="454" y="213"/>
      <point x="387" y="213" type="curve" smooth="yes"/>
      <point x="349" y="213"/>
      <point x="319" y="195"/>
    </contour>
    <contour>
      <point x="174" y="-12" type="curve" smooth="yes"/>
      <point x="256" y="-12"/>
      <point x="314" y="56"/>
      <point x="314" y="138" type="curve" smooth="yes"/>
      <point x="314" y="148"/>
      <point x="314" y="266"/>
      <point x="314" y="276" type="curve"/>
      <point x="214" y="276" type="line"/>
      <point x="214" y="266"/>
      <point x="214" y="143"/>
      <point x="214" y="133" type="curve" smooth="yes"/>
      <point x="214" y="100"/>
      <point x="201" y="83"/>
      <point x="174" y="83" type="curve" smooth="yes"/>
      <point x="146" y="83"/>
      <point x="134" y="100"/>
      <point x="134" y="133" type="curve" smooth="yes"/>
      <point x="134" y="143"/>
      <point x="134" y="266"/>
      <point x="134" y="276" type="curve"/>
      <point x="34" y="276" type="line"/>
      <point x="34" y="266"/>
      <point x="34" y="148"/>
      <point x="34" y="138" type="curve" smooth="yes"/>
      <point x="34" y="51"/>
      <point x="92" y="-12"/>
    </contour>
  </outline>
</glyph>
<glyph name="u16F71" format="2">
  <advance width="313"/>
  <unicode hex="16F71"/>
  <anchor x="313" y="0" name="F"/>
  <anchor x="0" y="0" name="FB"/>
  <anchor x="0" y="10" name="FBR"/>
  <anchor x="313" y="10" name="FR"/>
  <anchor x="313" y="200" name="S"/>
  <anchor x="0" y="200" name="SB"/>
  <anchor x="0" y="190" name="SBR"/>
  <anchor x="0" y="296" name="SBRT"/>
  <anchor x="0" y="306" name="SBT"/>
  <anchor x="313" y="190" name="SR"/>
  <anchor x="313" y="296" name="SRT"/>
  <anchor x="313" y="306" name="ST"/>
  <anchor x="313" y="138" name="W"/>
  <anchor x="0" y="138" name="WB"/>
  <outline>
    <contour>
      <point x="30" y="90" type="curve"/>
      <point x="30" y="0" type="line"/>
      <point x="40" y="0"/>
      <point x="128" y="0"/>
      <point x="138" y="0" type="curve" smooth="yes"/>
      <point x="225" y="0"/>
      <point x="288" y="54"/>
      <point x="288" y="138" type="curve" smooth="yes"/>
      <point x="288" y="222"/>
      <point x="225" y="276"/>
      <point x="138" y="276" type="curve" smooth="yes"/>
      <point x="128" y="276"/>
      <point x="40" y="276"/>
      <point x="30" y="276" type="curve"/>
      <point x="30" y="186" type="line"/>
      <point x="40" y="186"/>
      <point x="128" y="186"/>
      <point x="138" y="186" type="curve" smooth="yes"/>
      <point x="171" y="186"/>
      <point x="188" y="167"/>
      <point x="188" y="138" type="curve" smooth="yes"/>
      <point x="188" y="108"/>
      <point x="171" y="90"/>
      <point x="138" y="90" type="curve" smooth="yes"/>
      <point x="128" y="90"/>
      <point x="40" y="90"/>
    </contour>
  </outline>
</glyph>
<glyph name="u16F72" format="2">
  <advance width="316"/>
  <unicode hex="16F72"/>
  <anchor x="0" y="200" name="SB"/>
  <anchor x="0" y="138" name="WB"/>
  <anchor x="0" y="0" name="FB"/>
  <anchor x="316" y="200" name="S"/>
  <anchor x="316" y="138" name="W"/>
  <anchor x="316" y="0" name="F"/>
  <outline>
    <contour>
      <point x="210" y="106" type="curve"/>
      <point x="210" y="165" type="line"/>
      <point x="201" y="150"/>
      <point x="183" y="133"/>
      <point x="156" y="133" type="curve" smooth="yes"/>
      <point x="120" y="133"/>
      <point x="110" y="153"/>
      <point x="110" y="171" type="curve" smooth="yes"/>
      <point x="110" y="191"/>
      <point x="127" y="208"/>
      <point x="156" y="208" type="curve" smooth="yes"/>
      <point x="186" y="208"/>
      <point x="204" y="189"/>
      <point x="204" y="143" type="curve" smooth="yes"/>
      <point x="204" y="94"/>
      <point x="186" y="39"/>
      <point x="103" y="-12" type="curve"/>
      <point x="146" y="-62" type="line"/>
      <point x="270" y="14"/>
      <point x="291" y="95"/>
      <point x="291" y="159" type="curve" smooth="yes"/>
      <point x="291" y="225"/>
      <point x="255" y="288"/>
      <point x="158" y="288" type="curve" smooth="yes"/>
      <point x="61" y="288"/>
      <point x="25" y="223"/>
      <point x="25" y="171" type="curve" smooth="yes"/>
      <point x="25" y="113"/>
      <point x="64" y="63"/>
      <point x="131" y="63" type="curve" smooth="yes"/>
      <point x="169" y="63"/>
      <point x="199" y="91"/>
    </contour>
  </outline>
</glyph>
<glyph name="u16F73" format="2">
  <advance width="301"/>
  <unicode hex="16F73"/>
  <anchor x="0" y="200" name="_S"/>
  <anchor x="0" y="138" name="_W"/>
  <anchor x="301" y="200" name="S"/>
  <anchor x="301" y="138" name="W"/>
  <outline>
    <contour>
      <point x="24" y="257" type="line"/>
      <point x="34" y="257"/>
      <point x="107" y="257"/>
      <point x="117" y="257" type="curve" smooth="yes"/>
      <point x="155" y="257"/>
      <point x="177" y="244"/>
      <point x="177" y="214" type="curve" smooth="yes"/>
      <point x="177" y="185"/>
      <point x="155" y="171"/>
      <point x="117" y="171" type="curve" smooth="yes"/>
      <point x="107" y="171"/>
      <point x="34" y="171"/>
      <point x="24" y="171" type="curve"/>
      <point x="24" y="96" type="line"/>
      <point x="34" y="96"/>
      <point x="127" y="96"/>
      <point x="137" y="96" type="curve" smooth="yes"/>
      <point x="214" y="96"/>
      <point x="277" y="130"/>
      <point x="277" y="214" type="curve" smooth="yes"/>
      <point x="277" y="298"/>
      <point x="214" y="332"/>
      <point x="137" y="332" type="curve" smooth="yes"/>
      <point x="127" y="332"/>
      <point x="34" y="332"/>
      <point x="24" y="332" type="curve"/>
    </contour>
    <contour>
      <point x="124" y="0" type="line"/>
      <point x="124" y="171" type="line"/>
      <point x="24" y="171" type="line"/>
      <point x="24" y="0" type="line"/>
    </contour>
  </outline>
</glyph>
<glyph name="u16F74" format="2">
  <advance width="301"/>
  <unicode hex="16F74"/>
  <anchor x="0" y="200" name="SB"/>
  <anchor x="0" y="138" name="WB"/>
  <anchor x="301" y="200" name="S"/>
  <anchor x="301" y="138" name="W"/>
  <outline>
    <contour>
      <point x="277" y="75" type="line"/>
      <point x="267" y="75"/>
      <point x="194" y="75"/>
      <point x="184" y="75" type="curve" smooth="yes"/>
      <point x="146" y="75"/>
      <point x="124" y="88"/>
      <point x="124" y="118" type="curve" smooth="yes"/>
      <point x="124" y="147"/>
      <point x="146" y="161"/>
      <point x="184" y="161" type="curve" smooth="yes"/>
      <point x="194" y="161"/>
      <point x="267" y="161"/>
      <point x="277" y="161" type="curve"/>
      <point x="277" y="236" type="line"/>
      <point x="267" y="236"/>
      <point x="174" y="236"/>
      <point x="164" y="236" type="curve" smooth="yes"/>
      <point x="87" y="236"/>
      <point x="24" y="202"/>
      <point x="24" y="118" type="curve" smooth="yes"/>
      <point x="24" y="34"/>
      <point x="87" y="0"/>
      <point x="164" y="0" type="curve" smooth="yes"/>
      <point x="174" y="0"/>
      <point x="267" y="0"/>
      <point x="277" y="0" type="curve"/>
    </contour>
    <contour>
      <point x="177" y="332" type="line"/>
      <point x="177" y="161" type="line"/>
      <point x="277" y="161" type="line"/>
      <point x="277" y="332" type="line"/>
    </contour>
  </outline>
</glyph>
<glyph name="u16F75" format="2">
  <advance width="312"/>
  <unicode hex="16F75"/>
  <outline>
    <contour>
      <point x="24" y="276" type="line"/>
      <point x="24" y="186" type="line"/>
      <point x="278" y="186" type="line"/>
      <point x="278" y="276" type="line"/>
    </contour>
    <contour>
      <point x="178" y="276" type="line"/>
      <point x="178" y="0" type="line"/>
      <point x="278" y="0" type="line"/>
      <point x="278" y="276" type="line"/>
    </contour>
  </outline>
</glyph>
<glyph name="u16F76" format="2">
  <advance width="348"/>
  <unicode hex="16F76"/>
  <anchor x="0" y="200" name="SB"/>
  <anchor x="0" y="138" name="WB"/>
  <anchor x="348" y="200" name="S"/>
  <anchor x="348" y="138" name="W"/>
  <outline>
    <contour>
      <point x="134" y="115" type="line"/>
      <point x="134" y="125"/>
      <point x="134" y="108"/>
      <point x="134" y="148" type="curve" smooth="yes"/>
      <point x="134" y="171"/>
      <point x="146" y="193"/>
      <point x="174" y="193" type="curve" smooth="yes"/>
      <point x="201" y="193"/>
      <point x="214" y="176"/>
      <point x="214" y="143" type="curve" smooth="yes"/>
      <point x="214" y="133"/>
      <point x="214" y="10"/>
      <point x="214" y="0" type="curve"/>
      <point x="314" y="0" type="line"/>
      <point x="314" y="10"/>
      <point x="314" y="128"/>
      <point x="314" y="138" type="curve" smooth="yes"/>
      <point x="314" y="220"/>
      <point x="256" y="288"/>
      <point x="174" y="288" type="curve" smooth="yes"/>
      <point x="92" y="288"/>
      <point x="34" y="235"/>
      <point x="34" y="158" type="curve" smooth="yes"/>
      <point x="34" y="148"/>
      <point x="34" y="125"/>
      <point x="34" y="115" type="curve"/>
    </contour>
  </outline>
</glyph>
<glyph name="u16F77" format="2">
  <advance width="312"/>
  <unicode hex="16F77"/>
  <outline>
    <contour>
      <point x="288" y="276" type="line"/>
      <point x="34" y="276" type="line"/>
      <point x="34" y="186" type="line"/>
      <point x="288" y="186" type="line"/>
    </contour>
    <contour>
      <point x="134" y="276" type="line"/>
      <point x="34" y="276" type="line"/>
      <point x="34" y="0" type="line"/>
      <point x="134" y="0" type="line"/>
    </contour>
  </outline>
</glyph>
<glyph name="u16F78" format="2">
  <advance width="344"/>
  <unicode hex="16F78"/>
  <anchor x="344" y="200" name="S"/>
  <anchor x="-4" y="200" name="SB"/>
  <anchor x="344" y="138" name="W"/>
  <anchor x="-4" y="138" name="WB"/>
  <outline>
    <contour>
      <point x="210" y="115" type="curve"/>
      <point x="310" y="115" type="line"/>
      <point x="310" y="125"/>
      <point x="310" y="148"/>
      <point x="310" y="158" type="curve" smooth="yes"/>
      <point x="310" y="235"/>
      <point x="252" y="288"/>
      <point x="170" y="288" type="curve" smooth="yes"/>
      <point x="88" y="288"/>
      <point x="30" y="220"/>
      <point x="30" y="138" type="curve" smooth="yes"/>
      <point x="30" y="128"/>
      <point x="30" y="10"/>
      <point x="30" y="0" type="curve"/>
      <point x="130" y="0" type="line"/>
      <point x="130" y="10"/>
      <point x="130" y="133"/>
      <point x="130" y="143" type="curve" smooth="yes"/>
      <point x="130" y="176"/>
      <point x="143" y="193"/>
      <point x="170" y="193" type="curve" smooth="yes"/>
      <point x="198" y="193"/>
      <point x="210" y="171"/>
      <point x="210" y="148" type="curve" smooth="yes"/>
      <point x="210" y="108"/>
      <point x="210" y="125"/>
    </contour>
  </outline>
</glyph>
<glyph name="u16F79" format="2">
  <advance width="208"/>
  <unicode hex="16F79"/>
  <anchor x="0" y="200" name="_S"/>
  <anchor x="0" y="138" name="_W"/>
  <anchor x="208" y="200" name="S"/>
  <anchor x="208" y="138" name="W"/>
  <outline>
    <contour>
      <point x="154" y="276" type="line"/>
      <point x="54" y="276" type="line"/>
      <point x="54" y="0" type="line"/>
      <point x="154" y="0" type="line"/>
    </contour>
  </outline>
</glyph>
<glyph name="u16F7A" format="2">
  <advance width="348"/>
  <unicode hex="16F7A"/>
  <anchor x="0" y="200" name="_S"/>
  <anchor x="0" y="138" name="_W"/>
  <anchor x="348" y="200" name="S"/>
  <anchor x="348" y="138" name="W"/>
  <outline>
    <contour>
      <point x="214" y="161" type="line"/>
      <point x="214" y="151"/>
      <point x="214" y="168"/>
      <point x="214" y="128" type="curve" smooth="yes"/>
      <point x="214" y="105"/>
      <point x="202" y="83"/>
      <point x="174" y="83" type="curve" smooth="yes"/>
      <point x="147" y="83"/>
      <point x="134" y="100"/>
      <point x="134" y="133" type="curve" smooth="yes"/>
      <point x="134" y="143"/>
      <point x="134" y="266"/>
      <point x="134" y="276" type="curve"/>
      <point x="34" y="276" type="line"/>
      <point x="34" y="266"/>
      <point x="34" y="148"/>
      <point x="34" y="138" type="curve" smooth="yes"/>
      <point x="34" y="56"/>
      <point x="92" y="-12"/>
      <point x="174" y="-12" type="curve" smooth="yes"/>
      <point x="256" y="-12"/>
      <point x="314" y="41"/>
      <point x="314" y="118" type="curve" smooth="yes"/>
      <point x="314" y="128"/>
      <point x="314" y="151"/>
      <point x="314" y="161" type="curve"/>
    </contour>
  </outline>
</glyph>
<glyph name="u16F7B" format="2">
  <advance width="342"/>
  <unicode hex="16F7B"/>
  <outline>
    <contour>
      <point x="198" y="276" type="line"/>
      <point x="198" y="0" type="line"/>
      <point x="298" y="0" type="line"/>
      <point x="298" y="276" type="line"/>
    </contour>
    <contour>
      <point x="44" y="276" type="line"/>
      <point x="44" y="0" type="line"/>
      <point x="144" y="0" type="line"/>
      <point x="144" y="276" type="line"/>
    </contour>
  </outline>
</glyph>
<glyph name="u16F7C" format="2">
  <advance width="345"/>
  <unicode hex="16F7C"/>
  <anchor x="345" y="0" name="F"/>
  <anchor x="0" y="0" name="FB"/>
  <anchor x="345" y="200" name="S"/>
  <anchor x="0" y="200" name="SB"/>
  <anchor x="345" y="138" name="W"/>
  <anchor x="0" y="138" name="WB"/>
  <outline>
    <contour>
      <point x="170" y="8" type="curve" smooth="yes"/>
      <point x="252" y="8"/>
      <point x="315" y="66"/>
      <point x="315" y="148" type="curve" smooth="yes"/>
      <point x="315" y="230"/>
      <point x="252" y="288"/>
      <point x="170" y="288" type="curve" smooth="yes"/>
      <point x="88" y="288"/>
      <point x="25" y="230"/>
      <point x="25" y="148" type="curve" smooth="yes"/>
      <point x="25" y="66"/>
      <point x="88" y="8"/>
    </contour>
    <contour>
      <point x="170" y="98" type="curve" smooth="yes"/>
      <point x="140" y="98"/>
      <point x="120" y="121"/>
      <point x="120" y="148" type="curve" smooth="yes"/>
      <point x="120" y="176"/>
      <point x="140" y="198"/>
      <point x="170" y="198" type="curve" smooth="yes"/>
      <point x="201" y="198"/>
      <point x="220" y="176"/>
      <point x="220" y="148" type="curve" smooth="yes"/>
      <point x="220" y="121"/>
      <point x="201" y="98"/>
    </contour>
    <contour>
      <point x="315" y="148" type="line"/>
      <point x="220" y="56" type="line"/>
      <point x="220" y="-83" type="line"/>
      <point x="315" y="-83" type="line"/>
    </contour>
  </outline>
</glyph>
<glyph name="u16F7D" format="2">
  <advance width="316"/>
  <unicode hex="16F7D"/>
  <anchor x="316" y="148" name="E"/>
  <anchor x="0" y="148" name="EB"/>
  <anchor x="316" y="0" name="F"/>
  <anchor x="0" y="0" name="FB"/>
  <anchor x="0" y="10" name="FBR"/>
  <anchor x="316" y="10" name="FR"/>
  <anchor x="316" y="128" name="K"/>
  <anchor x="0" y="128" name="KB"/>
  <anchor x="316" y="200" name="S"/>
  <anchor x="0" y="200" name="SB"/>
  <anchor x="0" y="190" name="SBR"/>
  <anchor x="0" y="346" name="SBRT"/>
  <anchor x="0" y="356" name="SBT"/>
  <anchor x="316" y="190" name="SR"/>
  <anchor x="316" y="346" name="SRT"/>
  <anchor x="316" y="356" name="ST"/>
  <anchor x="316" y="138" name="W"/>
  <anchor x="0" y="138" name="WB"/>
  <outline>
    <contour>
      <point x="158" y="-12" type="curve" smooth="yes"/>
      <point x="255" y="-12"/>
      <point x="296" y="58"/>
      <point x="296" y="135" type="curve"/>
      <point x="271" y="135"/>
      <point x="239" y="135"/>
      <point x="211" y="135" type="curve"/>
      <point x="211" y="90"/>
      <point x="189" y="68"/>
      <point x="160" y="68" type="curve" smooth="yes"/>
      <point x="130" y="68"/>
      <point x="112" y="92"/>
      <point x="112" y="128" type="curve" smooth="yes"/>
      <point x="112" y="181"/>
      <point x="150" y="227"/>
      <point x="233" y="278" type="curve"/>
      <point x="190" y="338" type="line"/>
      <point x="56" y="262"/>
      <point x="25" y="183"/>
      <point x="25" y="112" type="curve" smooth="yes"/>
      <point x="25" y="56"/>
      <point x="61" y="-12"/>
    </contour>
  </outline>
</glyph>
<glyph name="u16F7E" format="2">
  <advance width="314"/>
  <unicode hex="16F7E"/>
  <anchor x="0" y="200" name="_S"/>
  <anchor x="0" y="138" name="_W"/>
  <anchor x="314" y="200" name="S"/>
  <anchor x="314" y="138" name="W"/>
  <outline>
    <contour>
      <point x="105" y="170" type="curve"/>
      <point x="105" y="111" type="line"/>
      <point x="114" y="126"/>
      <point x="132" y="143"/>
      <point x="159" y="143" type="curve" smooth="yes"/>
      <point x="195" y="143"/>
      <point x="205" y="123"/>
      <point x="205" y="105" type="curve" smooth="yes"/>
      <point x="205" y="85"/>
      <point x="188" y="68"/>
      <point x="159" y="68" type="curve" smooth="yes"/>
      <point x="129" y="68"/>
      <point x="111" y="87"/>
      <point x="111" y="133" type="curve" smooth="yes"/>
      <point x="111" y="182"/>
      <point x="129" y="237"/>
      <point x="212" y="288" type="curve"/>
      <point x="169" y="338" type="line"/>
      <point x="45" y="262"/>
      <point x="24" y="181"/>
      <point x="24" y="117" type="curve" smooth="yes"/>
      <point x="24" y="51"/>
      <point x="60" y="-12"/>
      <point x="157" y="-12" type="curve" smooth="yes"/>
      <point x="254" y="-12"/>
      <point x="290" y="53"/>
      <point x="290" y="105" type="curve" smooth="yes"/>
      <point x="290" y="163"/>
      <point x="251" y="213"/>
      <point x="184" y="213" type="curve" smooth="yes"/>
      <point x="146" y="213"/>
      <point x="116" y="185"/>
    </contour>
  </outline>
</glyph>
<glyph name="u16F7F" format="2">
  <advance width="321"/>
  <unicode hex="16F7F"/>
  <anchor x="0" y="200" name="_S"/>
  <anchor x="0" y="138" name="_W"/>
  <anchor x="321" y="200" name="S"/>
  <anchor x="321" y="138" name="W"/>
  <outline>
    <contour>
      <point x="24" y="257" type="line"/>
      <point x="34" y="257"/>
      <point x="127" y="257"/>
      <point x="137" y="257" type="curve" smooth="yes"/>
      <point x="175" y="257"/>
      <point x="197" y="244"/>
      <point x="197" y="214" type="curve" smooth="yes"/>
      <point x="197" y="185"/>
      <point x="175" y="171"/>
      <point x="137" y="171" type="curve" smooth="yes"/>
      <point x="127" y="171"/>
      <point x="34" y="171"/>
      <point x="24" y="171" type="curve"/>
      <point x="24" y="96" type="line"/>
      <point x="34" y="96"/>
      <point x="147" y="96"/>
      <point x="157" y="96" type="curve" smooth="yes"/>
      <point x="234" y="96"/>
      <point x="297" y="130"/>
      <point x="297" y="214" type="curve" smooth="yes"/>
      <point x="297" y="298"/>
      <point x="234" y="332"/>
      <point x="157" y="332" type="curve" smooth="yes"/>
      <point x="147" y="332"/>
      <point x="34" y="332"/>
      <point x="24" y="332" type="curve"/>
    </contour>
    <contour>
      <point x="124" y="0" type="line"/>
      <point x="124" y="293" type="line"/>
      <point x="24" y="293" type="line"/>
      <point x="24" y="0" type="line"/>
    </contour>
  </outline>
</glyph>
<glyph name="u16F80" format="2">
  <advance width="358"/>
  <unicode hex="16F80"/>
  <anchor x="0" y="200" name="SB"/>
  <anchor x="0" y="138" name="WB"/>
  <anchor x="0" y="0" name="FB"/>
  <anchor x="358" y="200" name="S"/>
  <anchor x="358" y="138" name="W"/>
  <anchor x="358" y="0" name="F"/>
  <outline>
    <contour>
      <point x="134" y="196" type="curve"/>
      <point x="34" y="196" type="line"/>
      <point x="34" y="186"/>
      <point x="34" y="148"/>
      <point x="34" y="138" type="curve" smooth="yes"/>
      <point x="34" y="51"/>
      <point x="97" y="-12"/>
      <point x="179" y="-12" type="curve" smooth="yes"/>
      <point x="261" y="-12"/>
      <point x="324" y="51"/>
      <point x="324" y="138" type="curve" smooth="yes"/>
      <point x="324" y="148"/>
      <point x="324" y="186"/>
      <point x="324" y="196" type="curve"/>
      <point x="224" y="196" type="line"/>
      <point x="224" y="186"/>
      <point x="224" y="143"/>
      <point x="224" y="133" type="curve" smooth="yes"/>
      <point x="224" y="100"/>
      <point x="206" y="83"/>
      <point x="179" y="83" type="curve" smooth="yes"/>
      <point x="151" y="83"/>
      <point x="134" y="100"/>
      <point x="134" y="133" type="curve" smooth="yes"/>
      <point x="134" y="143"/>
      <point x="134" y="186"/>
    </contour>
    <contour>
      <point x="274" y="232" type="curve" smooth="yes"/>
      <point x="305" y="232"/>
      <point x="330" y="257"/>
      <point x="330" y="288" type="curve" smooth="yes"/>
      <point x="330" y="319"/>
      <point x="305" y="344"/>
      <point x="274" y="344" type="curve" smooth="yes"/>
      <point x="243" y="344"/>
      <point x="218" y="319"/>
      <point x="218" y="288" type="curve" smooth="yes"/>
      <point x="218" y="257"/>
      <point x="243" y="232"/>
    </contour>
    <contour>
      <point x="84" y="232" type="curve" smooth="yes"/>
      <point x="115" y="232"/>
      <point x="140" y="257"/>
      <point x="140" y="288" type="curve" smooth="yes"/>
      <point x="140" y="319"/>
      <point x="115" y="344"/>
      <point x="84" y="344" type="curve" smooth="yes"/>
      <point x="53" y="344"/>
      <point x="28" y="319"/>
      <point x="28" y="288" type="curve" smooth="yes"/>
      <point x="28" y="257"/>
      <point x="53" y="232"/>
    </contour>
  </outline>
</glyph>
<glyph name="u16F81" format="2">
  <advance width="327"/>
  <unicode hex="16F81"/>
  <anchor x="327" y="0" name="F"/>
  <anchor x="0" y="0" name="FB"/>
  <anchor x="327" y="200" name="S"/>
  <anchor x="0" y="200" name="SB"/>
  <anchor x="327" y="138" name="W"/>
  <anchor x="0" y="138" name="WB"/>
  <outline>
    <contour>
      <point x="297" y="10" type="curve"/>
      <point x="273" y="86" type="line"/>
      <point x="245" y="75"/>
      <point x="215" y="68"/>
      <point x="184" y="68" type="curve" smooth="yes"/>
      <point x="135" y="68"/>
      <point x="115" y="93"/>
      <point x="115" y="138" type="curve" smooth="yes"/>
      <point x="115" y="182"/>
      <point x="140" y="213"/>
      <point x="175" y="213" type="curve" smooth="yes"/>
      <point x="202" y="213"/>
      <point x="217" y="204"/>
      <point x="217" y="190" type="curve" smooth="yes"/>
      <point x="217" y="173"/>
      <point x="202" y="167"/>
      <point x="169" y="167" type="curve" smooth="yes"/>
      <point x="162" y="167"/>
      <point x="156" y="167"/>
      <point x="148" y="167" type="curve"/>
      <point x="148" y="102" type="line"/>
      <point x="157" y="102"/>
      <point x="172" y="102"/>
      <point x="179" y="102" type="curve" smooth="yes"/>
      <point x="267" y="102"/>
      <point x="297" y="142"/>
      <point x="297" y="190" type="curve" smooth="yes"/>
      <point x="297" y="238"/>
      <point x="258" y="288"/>
      <point x="175" y="288" type="curve" smooth="yes"/>
      <point x="88" y="288"/>
      <point x="25" y="220"/>
      <point x="25" y="138" type="curve" smooth="yes"/>
      <point x="25" y="55"/>
      <point x="83" y="-12"/>
      <point x="184" y="-12" type="curve" smooth="yes"/>
      <point x="221" y="-12"/>
      <point x="250" y="-7"/>
    </contour>
  </outline>
</glyph>
<glyph name="u16F82" format="2">
  <advance width="312"/>
  <unicode hex="16F82"/>
  <outline>
    <contour>
      <point x="288" y="0" type="line"/>
      <point x="288" y="90" type="line"/>
      <point x="34" y="90" type="line"/>
      <point x="34" y="0" type="line"/>
    </contour>
    <contour>
      <point x="134" y="0" type="line"/>
      <point x="134" y="276" type="line"/>
      <point x="34" y="276" type="line"/>
      <point x="34" y="0" type="line"/>
    </contour>
  </outline>
</glyph>
<glyph name="u16F83" format="2">
  <advance width="370"/>
  <unicode hex="16F83"/>
  <anchor x="365" y="200" name="S"/>
  <anchor x="5" y="200" name="SB"/>
  <anchor x="365" y="138" name="W"/>
  <anchor x="5" y="138" name="WB"/>
  <outline>
    <contour>
      <point x="115" y="0" type="line"/>
      <point x="255" y="0" type="line"/>
      <point x="355" y="276" type="line"/>
      <point x="255" y="276" type="line"/>
      <point x="210" y="152" type="line" smooth="yes"/>
      <point x="200" y="124"/>
      <point x="195" y="107"/>
      <point x="186" y="77" type="curve"/>
      <point x="184" y="77" type="line"/>
      <point x="175" y="107"/>
      <point x="170" y="124"/>
      <point x="160" y="152" type="curve" smooth="yes"/>
      <point x="115" y="276" type="line"/>
      <point x="15" y="276" type="line"/>
    </contour>
  </outline>
</glyph>
<glyph name="u16F84" format="2">
  <advance width="360"/>
  <unicode hex="16F84"/>
  <outline>
    <contour>
      <point x="110" y="276" type="line"/>
      <point x="5" y="0" type="line"/>
      <point x="105" y="0" type="line"/>
      <point x="152" y="124" type="line" smooth="yes"/>
      <point x="163" y="152"/>
      <point x="170" y="173"/>
      <point x="179" y="203" type="curve"/>
      <point x="181" y="203" type="line"/>
      <point x="190" y="173"/>
      <point x="197" y="152"/>
      <point x="208" y="124" type="curve" smooth="yes"/>
      <point x="255" y="0" type="line"/>
      <point x="355" y="0" type="line"/>
      <point x="250" y="276" type="line"/>
    </contour>
  </outline>
</glyph>
<glyph name="u16F85" format="2">
  <advance width="343"/>
  <unicode hex="16F85"/>
  <anchor x="343" y="148" name="E"/>
  <anchor x="0" y="148" name="EB"/>
  <anchor x="343" y="0" name="F"/>
  <anchor x="0" y="0" name="FB"/>
  <anchor x="0" y="10" name="FBR"/>
  <anchor x="343" y="10" name="FR"/>
  <anchor x="343" y="128" name="K"/>
  <anchor x="0" y="128" name="KB"/>
  <anchor x="343" y="200" name="S"/>
  <anchor x="0" y="200" name="SB"/>
  <anchor x="0" y="190" name="SBR"/>
  <anchor x="0" y="352" name="SBRT"/>
  <anchor x="0" y="362" name="SBT"/>
  <anchor x="343" y="190" name="SR"/>
  <anchor x="343" y="352" name="SRT"/>
  <anchor x="343" y="362" name="ST"/>
  <anchor x="343" y="138" name="W"/>
  <anchor x="0" y="138" name="WB"/>
  <outline>
    <contour>
      <point x="130" y="332" type="line"/>
      <point x="30" y="332" type="line"/>
      <point x="30" y="39" type="line"/>
      <point x="130" y="39" type="line"/>
    </contour>
    <contour>
      <point x="197" y="235" type="curve" smooth="yes"/>
      <point x="159" y="235"/>
      <point x="129" y="207"/>
      <point x="118" y="192" type="curve"/>
      <point x="118" y="123" type="line"/>
      <point x="127" y="138"/>
      <point x="145" y="155"/>
      <point x="172" y="155" type="curve" smooth="yes"/>
      <point x="208" y="155"/>
      <point x="218" y="135"/>
      <point x="218" y="117" type="curve" smooth="yes"/>
      <point x="218" y="97"/>
      <point x="210" y="75"/>
      <point x="153" y="75" type="curve" smooth="yes"/>
      <point x="30" y="75" type="line"/>
      <point x="30" y="0" type="line"/>
      <point x="173" y="0" type="line" smooth="yes"/>
      <point x="288" y="0"/>
      <point x="318" y="65"/>
      <point x="318" y="117" type="curve" smooth="yes"/>
      <point x="318" y="175"/>
      <point x="284" y="235"/>
    </contour>
  </outline>
</glyph>
<glyph name="u16F86" format="2">
  <advance width="340"/>
  <unicode hex="16F86"/>
  <anchor x="334" y="200" name="S"/>
  <anchor x="6" y="200" name="SB"/>
  <anchor x="334" y="138" name="W"/>
  <anchor x="6" y="138" name="WB"/>
  <outline>
    <contour>
      <point x="210" y="0" type="line"/>
      <point x="310" y="0" type="line"/>
      <point x="310" y="276" type="line"/>
      <point x="210" y="276" type="line"/>
    </contour>
    <contour>
      <point x="151" y="87" type="curve" smooth="yes"/>
      <point x="189" y="87"/>
      <point x="219" y="115"/>
      <point x="230" y="130" type="curve"/>
      <point x="230" y="199" type="line"/>
      <point x="221" y="184"/>
      <point x="203" y="167"/>
      <point x="176" y="167" type="curve" smooth="yes"/>
      <point x="140" y="167"/>
      <point x="130" y="187"/>
      <point x="130" y="205" type="curve" smooth="yes"/>
      <point x="130" y="214"/>
      <point x="130" y="268"/>
      <point x="130" y="276" type="curve"/>
      <point x="30" y="276" type="line"/>
      <point x="30" y="268"/>
      <point x="30" y="214"/>
      <point x="30" y="205" type="curve" smooth="yes"/>
      <point x="30" y="146"/>
      <point x="64" y="87"/>
    </contour>
  </outline>
</glyph>
<glyph name="u16F87" format="2">
  <advance width="520"/>
  <unicode hex="16F87"/>
  <anchor x="524" y="200" name="S"/>
  <anchor x="-4" y="200" name="SB"/>
  <anchor x="524" y="138" name="W"/>
  <anchor x="-4" y="138" name="WB"/>
  <outline>
    <contour>
      <point x="310" y="135" type="line"/>
      <point x="310" y="145"/>
      <point x="310" y="128"/>
      <point x="310" y="148" type="curve" smooth="yes"/>
      <point x="310" y="171"/>
      <point x="322" y="193"/>
      <point x="350" y="193" type="curve" smooth="yes"/>
      <point x="377" y="193"/>
      <point x="390" y="176"/>
      <point x="390" y="143" type="curve" smooth="yes"/>
      <point x="390" y="133"/>
      <point x="390" y="10"/>
      <point x="390" y="0" type="curve"/>
      <point x="490" y="0" type="line"/>
      <point x="490" y="10"/>
      <point x="490" y="128"/>
      <point x="490" y="138" type="curve" smooth="yes"/>
      <point x="490" y="225"/>
      <point x="432" y="288"/>
      <point x="350" y="288" type="curve" smooth="yes"/>
      <point x="268" y="288"/>
      <point x="210" y="245"/>
      <point x="210" y="168" type="curve" smooth="yes"/>
      <point x="210" y="158"/>
      <point x="210" y="145"/>
      <point x="210" y="135" type="curve"/>
    </contour>
    <contour>
      <point x="210" y="143" type="line"/>
      <point x="210" y="133"/>
      <point x="210" y="148"/>
      <point x="210" y="128" type="curve" smooth="yes"/>
      <point x="210" y="105"/>
      <point x="198" y="83"/>
      <point x="170" y="83" type="curve" smooth="yes"/>
      <point x="143" y="83"/>
      <point x="130" y="100"/>
      <point x="130" y="133" type="curve" smooth="yes"/>
      <point x="130" y="143"/>
      <point x="130" y="266"/>
      <point x="130" y="276" type="curve"/>
      <point x="30" y="276" type="line"/>
      <point x="30" y="266"/>
      <point x="30" y="148"/>
      <point x="30" y="138" type="curve" smooth="yes"/>
      <point x="30" y="51"/>
      <point x="88" y="-12"/>
      <point x="170" y="-12" type="curve" smooth="yes"/>
      <point x="252" y="-12"/>
      <point x="310" y="31"/>
      <point x="310" y="108" type="curve" smooth="yes"/>
      <point x="310" y="128"/>
      <point x="310" y="133"/>
      <point x="310" y="143" type="curve"/>
    </contour>
  </outline>
</glyph>
<glyph name="u16F93" format="2">
  <advance width="340"/>
  <unicode hex="16F93"/>
  <outline>
    <contour>
      <point x="30" y="276" type="line"/>
      <point x="30" y="186" type="line"/>
      <point x="310" y="186" type="line"/>
      <point x="310" y="276" type="line"/>
    </contour>
    <contour>
      <point x="120" y="276" type="line"/>
      <point x="120" y="0" type="line"/>
      <point x="220" y="0" type="line"/>
      <point x="220" y="276" type="line"/>
    </contour>
  </outline>
</glyph>
<glyph name="u16F94" format="2">
  <advance width="303"/>
  <unicode hex="16F94"/>
  <outline>
    <contour>
      <point x="268" y="196" type="line"/>
      <point x="268" y="276" type="line"/>
      <point x="38" y="276" type="line"/>
      <point x="38" y="196" type="line"/>
    </contour>
    <contour>
      <point x="230" y="238" type="line"/>
      <point x="106" y="158" type="line"/>
      <point x="106" y="124" type="line"/>
      <point x="113" y="124"/>
      <point x="142" y="125"/>
      <point x="148" y="125" type="curve"/>
      <point x="268" y="196" type="line"/>
    </contour>
    <contour>
      <point x="25" y="47" type="line"/>
      <point x="51" y="11"/>
      <point x="96" y="-12"/>
      <point x="150" y="-12" type="curve" smooth="yes"/>
      <point x="220" y="-12"/>
      <point x="278" y="35"/>
      <point x="278" y="89" type="curve" smooth="yes"/>
      <point x="278" y="148"/>
      <point x="236" y="172"/>
      <point x="137" y="175" type="curve"/>
      <point x="106" y="124" type="line"/>
      <point x="185" y="124"/>
      <point x="198" y="107"/>
      <point x="198" y="94" type="curve" smooth="yes"/>
      <point x="198" y="78"/>
      <point x="180" y="68"/>
      <point x="150" y="68" type="curve" smooth="yes"/>
      <point x="119" y="68"/>
      <point x="99" y="79"/>
      <point x="84" y="99" type="curve"/>
    </contour>
  </outline>
</glyph>
<glyph name="u16F95" format="2">
  <advance width="442"/>
  <unicode hex="16F95"/>
  <outline>
    <contour>
      <point x="30" y="276" type="line"/>
      <point x="139" y="276" type="line"/>
      <point x="191" y="180" type="line"/>
      <point x="218" y="132" type="line"/>
      <point x="221" y="132" type="line"/>
      <point x="246" y="180" type="line"/>
      <point x="293" y="276" type="line"/>
      <point x="412" y="276" type="line"/>
      <point x="412" y="0" type="line"/>
      <point x="312" y="0" type="line"/>
      <point x="312" y="93" type="line"/>
      <point x="314" y="120"/>
      <point x="318" y="146"/>
      <point x="320" y="173" type="curve"/>
      <point x="317" y="173" type="line"/>
      <point x="288" y="114" type="line"/>
      <point x="263" y="65" type="line"/>
      <point x="175" y="65" type="line"/>
      <point x="152" y="114" type="line"/>
      <point x="125" y="173" type="line"/>
      <point x="122" y="173" type="line"/>
      <point x="124" y="146"/>
      <point x="128" y="120"/>
      <point x="130" y="93" type="curve"/>
      <point x="130" y="0" type="line"/>
      <point x="30" y="0" type="line"/>
    </contour>
  </outline>
</glyph>
<glyph name="u16F96" format="2">
  <advance width="285"/>
  <unicode hex="16F96"/>
  <outline>
    <contour>
      <point x="30" y="276" type="line"/>
      <point x="30" y="186" type="line"/>
      <point x="260" y="186" type="line"/>
      <point x="260" y="276" type="line"/>
    </contour>
    <contour>
      <point x="30" y="276" type="line"/>
      <point x="30" y="0" type="line"/>
      <point x="130" y="0" type="line"/>
      <point x="130" y="276" type="line"/>
    </contour>
  </outline>
</glyph>
<glyph name="u16F97" format="2">
  <advance width="284"/>
  <unicode hex="16F97"/>
  <outline>
    <contour>
      <point x="146" y="-12" type="curve" smooth="yes"/>
      <point x="196" y="-12"/>
      <point x="256" y="14"/>
      <point x="256" y="72" type="curve" smooth="yes"/>
      <point x="256" y="123"/>
      <point x="204" y="152"/>
      <point x="167" y="172" type="curve" smooth="yes"/>
      <point x="146" y="184"/>
      <point x="129" y="194"/>
      <point x="129" y="203" type="curve" smooth="yes"/>
      <point x="129" y="214"/>
      <point x="137" y="219"/>
      <point x="151" y="219" type="curve" smooth="yes"/>
      <point x="164" y="219"/>
      <point x="173" y="212"/>
      <point x="180" y="198" type="curve"/>
      <point x="250" y="225" type="line"/>
      <point x="234" y="261"/>
      <point x="199" y="288"/>
      <point x="143" y="288" type="curve" smooth="yes"/>
      <point x="93" y="288"/>
      <point x="30" y="259"/>
      <point x="30" y="202" type="curve" smooth="yes"/>
      <point x="30" y="163"/>
      <point x="77" y="131"/>
      <point x="115" y="110" type="curve" smooth="yes"/>
      <point x="138" y="97"/>
      <point x="157" y="85"/>
      <point x="157" y="75" type="curve" smooth="yes"/>
      <point x="157" y="64"/>
      <point x="146" y="58"/>
      <point x="133" y="58" type="curve" smooth="yes"/>
      <point x="120" y="58"/>
      <point x="104" y="66"/>
      <point x="94" y="83" type="curve"/>
      <point x="17" y="56" type="line"/>
      <point x="41" y="14"/>
      <point x="81" y="-12"/>
    </contour>
  </outline>
</glyph>
<glyph name="u16F98" format="2">
  <advance width="285"/>
  <unicode hex="16F98"/>
  <outline>
    <contour>
      <point x="30" y="0" type="line"/>
      <point x="260" y="0" type="line"/>
      <point x="260" y="90" type="line"/>
      <point x="30" y="90" type="line"/>
    </contour>
    <contour>
      <point x="30" y="0" type="line"/>
      <point x="130" y="0" type="line"/>
      <point x="130" y="276" type="line"/>
      <point x="30" y="276" type="line"/>
    </contour>
  </outline>
</glyph>
<glyph name="u16F99" format="2">
  <advance width="331"/>
  <unicode hex="16F99"/>
  <outline>
    <contour>
      <point x="229" y="98" type="line"/>
      <point x="225" y="86"/>
      <point x="219" y="73"/>
      <point x="208" y="73" type="curve" smooth="yes"/>
      <point x="197" y="73"/>
      <point x="188" y="82"/>
      <point x="188" y="112" type="curve" smooth="yes"/>
      <point x="188" y="158" type="line"/>
      <point x="256" y="158" type="line"/>
      <point x="256" y="238" type="line"/>
      <point x="188" y="238" type="line"/>
      <point x="188" y="296" type="line"/>
      <point x="91" y="296" type="line"/>
      <point x="88" y="238" type="line"/>
      <point x="25" y="235" type="line"/>
      <point x="25" y="158" type="line"/>
      <point x="88" y="158" type="line"/>
      <point x="88" y="115" type="line" smooth="yes"/>
      <point x="88" y="40"/>
      <point x="119" y="-12"/>
      <point x="196" y="-12" type="curve" smooth="yes"/>
      <point x="267" y="-12"/>
      <point x="300" y="44"/>
      <point x="306" y="75" type="curve"/>
    </contour>
  </outline>
</glyph>
<glyph name="u16F9A" format="2">
  <advance width="526"/>
  <unicode hex="16F9A"/>
  <outline>
    <contour>
      <point x="213" y="135" type="curve"/>
      <point x="313" y="135" type="line"/>
      <point x="313" y="145"/>
      <point x="313" y="158"/>
      <point x="313" y="188" type="curve" smooth="yes"/>
      <point x="313" y="255"/>
      <point x="255" y="288"/>
      <point x="168" y="288" type="curve" smooth="yes"/>
      <point x="61" y="288"/>
      <point x="8" y="230"/>
      <point x="22" y="139" type="curve" smooth="yes"/>
      <point x="26" y="120"/>
      <point x="44" y="3"/>
      <point x="46" y="-7" type="curve"/>
      <point x="144" y="9" type="line"/>
      <point x="143" y="19"/>
      <point x="125" y="135"/>
      <point x="121" y="155" type="curve" smooth="yes"/>
      <point x="117" y="182"/>
      <point x="126" y="193"/>
      <point x="168" y="193" type="curve" smooth="yes"/>
      <point x="201" y="193"/>
      <point x="213" y="181"/>
      <point x="213" y="168" type="curve" smooth="yes"/>
      <point x="213" y="128"/>
      <point x="213" y="145"/>
    </contour>
    <contour>
      <point x="313" y="143" type="curve"/>
      <point x="213" y="143" type="line"/>
      <point x="213" y="133"/>
      <point x="213" y="128"/>
      <point x="213" y="88" type="curve" smooth="yes"/>
      <point x="213" y="21"/>
      <point x="271" y="-12"/>
      <point x="358" y="-12" type="curve" smooth="yes"/>
      <point x="465" y="-12"/>
      <point x="518" y="45"/>
      <point x="504" y="137" type="curve" smooth="yes"/>
      <point x="500" y="156"/>
      <point x="482" y="273"/>
      <point x="480" y="283" type="curve"/>
      <point x="382" y="267" type="line"/>
      <point x="383" y="257"/>
      <point x="401" y="141"/>
      <point x="405" y="121" type="curve" smooth="yes"/>
      <point x="409" y="93"/>
      <point x="400" y="83"/>
      <point x="358" y="83" type="curve" smooth="yes"/>
      <point x="325" y="83"/>
      <point x="313" y="95"/>
      <point x="313" y="108" type="curve" smooth="yes"/>
      <point x="313" y="148"/>
      <point x="313" y="133"/>
    </contour>
  </outline>
</glyph>
<glyph name="u16F9B" format="2">
  <advance width="530"/>
  <unicode hex="16F9B"/>
  <outline>
    <contour>
      <point x="170" y="193" type="curve" smooth="yes"/>
      <point x="203" y="193"/>
      <point x="215" y="171"/>
      <point x="215" y="148" type="curve" smooth="yes"/>
      <point x="215" y="38"/>
      <point x="215" y="55"/>
      <point x="215" y="45" type="curve"/>
      <point x="315" y="45" type="line"/>
      <point x="315" y="55"/>
      <point x="315" y="158"/>
      <point x="315" y="168" type="curve" smooth="yes"/>
      <point x="315" y="215"/>
      <point x="257" y="288"/>
      <point x="170" y="288" type="curve" smooth="yes"/>
      <point x="92" y="288"/>
      <point x="25" y="237"/>
      <point x="25" y="158" type="curve" smooth="yes"/>
      <point x="25" y="132"/>
      <point x="48" y="24"/>
      <point x="50" y="0" type="curve"/>
      <point x="150" y="0" type="line"/>
      <point x="146" y="30"/>
      <point x="125" y="147"/>
      <point x="125" y="158" type="curve" smooth="yes"/>
      <point x="125" y="177"/>
      <point x="142" y="193"/>
    </contour>
    <contour>
      <point x="360" y="193" type="curve" smooth="yes"/>
      <point x="388" y="193"/>
      <point x="405" y="177"/>
      <point x="405" y="158" type="curve" smooth="yes"/>
      <point x="405" y="149"/>
      <point x="383" y="23"/>
      <point x="380" y="0" type="curve"/>
      <point x="480" y="0" type="line"/>
      <point x="483" y="24"/>
      <point x="505" y="135"/>
      <point x="505" y="158" type="curve" smooth="yes"/>
      <point x="505" y="237"/>
      <point x="438" y="288"/>
      <point x="360" y="288" type="curve" smooth="yes"/>
      <point x="273" y="288"/>
      <point x="215" y="215"/>
      <point x="215" y="168" type="curve" smooth="yes"/>
      <point x="215" y="148"/>
      <point x="215" y="53"/>
      <point x="215" y="43" type="curve"/>
      <point x="315" y="43" type="line"/>
      <point x="315" y="53"/>
      <point x="315" y="38"/>
      <point x="315" y="148" type="curve" smooth="yes"/>
      <point x="315" y="171"/>
      <point x="327" y="193"/>
    </contour>
  </outline>
</glyph>
<glyph name="u16F9C" format="2">
  <advance width="349"/>
  <unicode hex="16F9C"/>
  <outline>
    <contour>
      <point x="334" y="177" type="line"/>
      <point x="299" y="199"/>
      <point x="244" y="214"/>
      <point x="187" y="214" type="curve" smooth="yes"/>
      <point x="100" y="214"/>
      <point x="47" y="153"/>
      <point x="47" y="95" type="curve" smooth="yes"/>
      <point x="47" y="43"/>
      <point x="86" y="-13"/>
      <point x="173" y="-13" type="curve" smooth="yes"/>
      <point x="254" y="-13"/>
      <point x="295" y="44"/>
      <point x="295" y="110" type="curve" smooth="yes"/>
      <point x="295" y="216"/>
      <point x="186" y="304"/>
      <point x="49" y="353" type="curve"/>
      <point x="10" y="290" type="line"/>
      <point x="143" y="239"/>
      <point x="209" y="164"/>
      <point x="209" y="112" type="curve" smooth="yes"/>
      <point x="209" y="82"/>
      <point x="190" y="67"/>
      <point x="169" y="67" type="curve" smooth="yes"/>
      <point x="146" y="67"/>
      <point x="132" y="81"/>
      <point x="132" y="102" type="curve" smooth="yes"/>
      <point x="132" y="128"/>
      <point x="152" y="151"/>
      <point x="191" y="151" type="curve" smooth="yes"/>
      <point x="238" y="151"/>
      <point x="303" y="134"/>
      <point x="339" y="112" type="curve"/>
    </contour>
  </outline>
</glyph>
<glyph name="u16F9D" format="2">
  <advance width="314"/>
  <unicode hex="16F9D"/>
  <outline>
    <contour>
      <point x="166" y="93" type="curve" smooth="yes"/>
      <point x="233" y="93"/>
      <point x="289" y="127"/>
      <point x="289" y="188" type="curve" smooth="yes"/>
      <point x="289" y="236"/>
      <point x="244" y="288"/>
      <point x="165" y="288" type="curve" smooth="yes"/>
      <point x="86" y="288"/>
      <point x="25" y="231"/>
      <point x="25" y="148" type="curve" smooth="yes"/>
      <point x="25" y="78"/>
      <point x="75" y="13"/>
      <point x="178" y="-22" type="curve"/>
      <point x="219" y="40" type="line"/>
      <point x="159" y="65"/>
      <point x="109" y="90"/>
      <point x="109" y="137" type="curve" smooth="yes"/>
      <point x="109" y="182"/>
      <point x="136" y="208"/>
      <point x="165" y="208" type="curve" smooth="yes"/>
      <point x="189" y="208"/>
      <point x="204" y="199"/>
      <point x="204" y="185" type="curve" smooth="yes"/>
      <point x="204" y="169"/>
      <point x="181" y="158"/>
      <point x="157" y="158" type="curve" smooth="yes"/>
      <point x="131" y="158"/>
      <point x="96" y="168"/>
      <point x="84" y="180" type="curve"/>
      <point x="84" y="135" type="line"/>
      <point x="99" y="112"/>
      <point x="132" y="93"/>
    </contour>
  </outline>
</glyph>
<glyph name="u16F9E" format="2">
  <advance width="349"/>
  <unicode hex="16F9E"/>
  <outline>
    <contour>
      <point x="15" y="98" type="line"/>
      <point x="50" y="76"/>
      <point x="105" y="61"/>
      <point x="162" y="61" type="curve" smooth="yes"/>
      <point x="246" y="61"/>
      <point x="299" y="122"/>
      <point x="299" y="180" type="curve" smooth="yes"/>
      <point x="299" y="230"/>
      <point x="260" y="288"/>
      <point x="176" y="288" type="curve" smooth="yes"/>
      <point x="98" y="288"/>
      <point x="57" y="231"/>
      <point x="57" y="165" type="curve" smooth="yes"/>
      <point x="57" y="59"/>
      <point x="163" y="-29"/>
      <point x="300" y="-78" type="curve"/>
      <point x="339" y="-15" type="line"/>
      <point x="206" y="36"/>
      <point x="142" y="111"/>
      <point x="142" y="163" type="curve" smooth="yes"/>
      <point x="142" y="193"/>
      <point x="159" y="208"/>
      <point x="180" y="208" type="curve" smooth="yes"/>
      <point x="200" y="208"/>
      <point x="214" y="194"/>
      <point x="214" y="173" type="curve" smooth="yes"/>
      <point x="214" y="147"/>
      <point x="194" y="124"/>
      <point x="158" y="124" type="curve" smooth="yes"/>
      <point x="111" y="124"/>
      <point x="46" y="141"/>
      <point x="10" y="163" type="curve"/>
    </contour>
  </outline>
</glyph>
<glyph name="u16F9F" format="2">
  <advance width="520"/>
  <unicode hex="16F9F"/>
  <outline>
    <contour>
      <point x="165" y="83" type="curve" smooth="yes"/>
      <point x="137" y="83"/>
      <point x="120" y="99"/>
      <point x="120" y="118" type="curve" smooth="yes"/>
      <point x="120" y="129"/>
      <point x="141" y="246"/>
      <point x="145" y="276" type="curve"/>
      <point x="45" y="276" type="line"/>
      <point x="43" y="252"/>
      <point x="20" y="144"/>
      <point x="20" y="118" type="curve" smooth="yes"/>
      <point x="20" y="39"/>
      <point x="87" y="-12"/>
      <point x="165" y="-12" type="curve" smooth="yes"/>
      <point x="252" y="-12"/>
      <point x="310" y="61"/>
      <point x="310" y="108" type="curve" smooth="yes"/>
      <point x="310" y="118"/>
      <point x="310" y="221"/>
      <point x="310" y="231" type="curve"/>
      <point x="210" y="231" type="line"/>
      <point x="210" y="221"/>
      <point x="210" y="238"/>
      <point x="210" y="128" type="curve" smooth="yes"/>
      <point x="210" y="105"/>
      <point x="198" y="83"/>
    </contour>
    <contour>
      <point x="355" y="83" type="curve" smooth="yes"/>
      <point x="322" y="83"/>
      <point x="310" y="105"/>
      <point x="310" y="128" type="curve" smooth="yes"/>
      <point x="310" y="238"/>
      <point x="310" y="223"/>
      <point x="310" y="233" type="curve"/>
      <point x="210" y="233" type="line"/>
      <point x="210" y="223"/>
      <point x="210" y="128"/>
      <point x="210" y="108" type="curve" smooth="yes"/>
      <point x="210" y="61"/>
      <point x="268" y="-12"/>
      <point x="355" y="-12" type="curve" smooth="yes"/>
      <point x="433" y="-12"/>
      <point x="500" y="39"/>
      <point x="500" y="118" type="curve" smooth="yes"/>
      <point x="500" y="141"/>
      <point x="478" y="252"/>
      <point x="475" y="276" type="curve"/>
      <point x="375" y="276" type="line"/>
      <point x="378" y="253"/>
      <point x="400" y="127"/>
      <point x="400" y="118" type="curve" smooth="yes"/>
      <point x="400" y="99"/>
      <point x="383" y="83"/>
    </contour>
  </outline>
</glyph>
<glyph name="E.sc" format="2">
  <advance width="508"/>
  <anchor x="271" y="564" name="aboveUC"/>
  <anchor x="272" y="-22" name="belowLC"/>
  <anchor x="336" y="0" name="ogonekUC"/>
  <outline>
    <contour>
      <point x="72" y="0" type="line"/>
      <point x="454" y="0" type="line"/>
      <point x="454" y="132" type="line"/>
      <point x="244" y="132" type="line"/>
      <point x="244" y="206" type="line"/>
      <point x="416" y="206" type="line"/>
      <point x="416" y="330" type="line"/>
      <point x="244" y="330" type="line"/>
      <point x="244" y="400" type="line"/>
      <point x="444" y="400" type="line"/>
      <point x="444" y="532" type="line"/>
      <point x="72" y="532" type="line"/>
    </contour>
  </outline>
</glyph>
<glyph name="I.alt" format="2">
  <advance width="416"/>
  <anchor x="208" y="672" name="aboveUC"/>
  <anchor x="208" y="-22" name="belowLC"/>
  <anchor x="190" y="0" name="ogonekUC"/>
  <outline>
    <contour>
      <point x="54" y="0" type="line"/>
      <point x="362" y="0" type="line"/>
      <point x="362" y="144" type="line"/>
      <point x="294" y="144" type="line"/>
      <point x="294" y="506" type="line"/>
      <point x="362" y="506" type="line"/>
      <point x="362" y="650" type="line"/>
      <point x="54" y="650" type="line"/>
      <point x="54" y="506" type="line"/>
      <point x="122" y="506" type="line"/>
      <point x="122" y="144" type="line"/>
      <point x="54" y="144" type="line"/>
    </contour>
  </outline>
</glyph>
<glyph name="I.sc" format="2">
  <advance width="316"/>
  <anchor x="158" y="564" name="aboveUC"/>
  <anchor x="158" y="-22" name="belowLC"/>
  <anchor x="140" y="0" name="ogonekUC"/>
  <outline>
    <contour>
      <point x="72" y="0" type="line"/>
      <point x="244" y="0" type="line"/>
      <point x="244" y="532" type="line"/>
      <point x="72" y="532" type="line"/>
    </contour>
  </outline>
</glyph>
<glyph name="L.sc" format="2">
  <advance width="484"/>
  <anchor x="162" y="564" name="aboveUC"/>
  <anchor x="266" y="-22" name="belowLC"/>
  <outline>
    <contour>
      <point x="72" y="0" type="line"/>
      <point x="444" y="0" type="line"/>
      <point x="444" y="140" type="line"/>
      <point x="244" y="140" type="line"/>
      <point x="244" y="532" type="line"/>
      <point x="72" y="532" type="line"/>
    </contour>
  </outline>
</glyph>
<glyph name="T.sc" format="2">
  <advance width="500"/>
  <anchor x="250" y="564" name="aboveUC"/>
  <anchor x="250" y="0" name="baseLC"/>
  <anchor x="250" y="-22" name="belowLC"/>
  <outline>
    <contour>
      <point x="164" y="0" type="line"/>
      <point x="336" y="0" type="line"/>
      <point x="336" y="392" type="line"/>
      <point x="476" y="392" type="line"/>
      <point x="476" y="532" type="line"/>
      <point x="24" y="532" type="line"/>
      <point x="24" y="392" type="line"/>
      <point x="164" y="392" type="line"/>
    </contour>
  </outline>
</glyph>
<glyph name="Tbar.sc" format="2">
  <advance width="500"/>
  <anchor x="250" y="564" name="aboveUC"/>
  <anchor x="250" y="0" name="baseLC"/>
  <anchor x="250" y="-22" name="belowLC"/>
  <outline>
    <contour>
      <point x="164" y="0" type="line"/>
      <point x="336" y="0" type="line"/>
      <point x="336" y="392" type="line"/>
      <point x="476" y="392" type="line"/>
      <point x="476" y="532" type="line"/>
      <point x="24" y="532" type="line"/>
      <point x="24" y="392" type="line"/>
      <point x="164" y="392" type="line"/>
    </contour>
    <contour>
      <point x="48" y="194" type="line"/>
      <point x="452" y="194" type="line"/>
      <point x="452" y="274" type="line"/>
      <point x="144" y="274" type="line"/>
      <point x="48" y="268" type="line"/>
    </contour>
  </outline>
</glyph>
<glyph name="U.sc" format="2">
  <advance width="616"/>
  <anchor x="308" y="564" name="aboveUC"/>
  <anchor x="308" y="-22" name="belowLC"/>
  <anchor x="496" y="542" name="hornLC"/>
  <anchor x="308" y="0" name="ogonekUC"/>
  <outline>
    <contour>
      <point x="310" y="-12" type="curve" smooth="yes"/>
      <point x="475" y="-12"/>
      <point x="548" y="70"/>
      <point x="548" y="256" type="curve" smooth="yes"/>
      <point x="548" y="532" type="line"/>
      <point x="384" y="532" type="line"/>
      <point x="384" y="244" type="line" smooth="yes"/>
      <point x="384" y="160"/>
      <point x="367" y="128"/>
      <point x="312" y="128" type="curve" smooth="yes"/>
      <point x="258" y="128"/>
      <point x="238" y="160"/>
      <point x="238" y="244" type="curve" smooth="yes"/>
      <point x="238" y="532" type="line"/>
      <point x="68" y="532" type="line"/>
      <point x="68" y="256" type="line" smooth="yes"/>
      <point x="68" y="70"/>
      <point x="147" y="-12"/>
    </contour>
  </outline>
</glyph>
<glyph name="caroncmb.cap" format="2">
  <anchor x="0" y="672" name="_aboveUC"/>
  <outline>
    <contour>
      <point x="-94" y="700" type="line"/>
      <point x="94" y="700" type="line"/>
      <point x="178" y="810" type="line"/>
      <point x="104" y="854" type="line"/>
      <point x="2" y="774" type="line"/>
      <point x="-2" y="774" type="line"/>
      <point x="-104" y="854" type="line"/>
      <point x="-178" y="810" type="line"/>
    </contour>
  </outline>
</glyph>
<glyph name="dot" format="2">
  <advance width="219"/>
  <anchor x="219" y="660" name="S"/>
  <anchor x="219" y="680" name="ST"/>
  <anchor x="0" y="578" name="_D"/>
  <outline>
    <contour>
      <point x="102" y="490" type="curve" smooth="yes"/>
      <point x="156" y="490"/>
      <point x="194" y="526"/>
      <point x="194" y="576" type="curve" smooth="yes"/>
      <point x="194" y="626"/>
      <point x="156" y="662"/>
      <point x="102" y="662" type="curve" smooth="yes"/>
      <point x="48" y="662"/>
      <point x="10" y="626"/>
      <point x="10" y="576" type="curve" smooth="yes"/>
      <point x="10" y="526"/>
      <point x="48" y="490"/>
    </contour>
  </outline>
</glyph>
<glyph name="eacute.sups" format="2">
  <advance width="350"/>
  <outline>
    <contour>
      <point x="200" y="742" type="line"/>
      <point x="330" y="852" type="line"/>
      <point x="250" y="930" type="line"/>
      <point x="140" y="800" type="line"/>
    </contour>
    <component base="e.sups"/>
  </outline>
</glyph>
<glyph name="l.alt" format="2">
  <advance width="288"/>
  <anchor x="143" y="730" name="aboveLC"/>
  <anchor x="143" y="-22" name="belowLC"/>
  <outline>
    <contour>
      <point x="58" y="0" type="line"/>
      <point x="230" y="0" type="line"/>
      <point x="230" y="696" type="line"/>
      <point x="58" y="696" type="line"/>
    </contour>
  </outline>
</glyph>
<glyph name="tonemarkvisible" format="2">
  <advance width="350"/>
  <outline>
    <contour>
      <point x="25" y="276" type="line"/>
      <point x="25" y="186" type="line"/>
      <point x="325" y="186" type="line"/>
      <point x="325" y="276" type="line"/>
    </contour>
    <contour>
      <point x="125" y="276" type="line"/>
      <point x="125" y="0" type="line"/>
      <point x="225" y="0" type="line"/>
      <point x="225" y="276" type="line"/>
    </contour>
  </outline>
</glyph>
<glyph name="tonoscmb" format="2">
  <anchor x="0" y="522" name="_aboveLC"/>
  <outline>
    <contour>
      <point x="-62" y="574" type="line"/>
      <point x="52" y="554" type="line"/>
      <point x="134" y="774" type="line"/>
      <point x="-32" y="802" type="line"/>
    </contour>
  </outline>
</glyph>
<glyph name="u16F04.hmdd" format="2">
  <advance width="506"/>
  <anchor x="506" y="578" name="D"/>
  <anchor x="506" y="440" name="E"/>
  <anchor x="506" y="0" name="F"/>
  <anchor x="213" y="700" name="H"/>
  <anchor x="406" y="700" name="HD"/>
  <anchor x="506" y="220" name="K"/>
  <anchor x="213" y="-45" name="L"/>
  <anchor x="506" y="660" name="S"/>
  <anchor x="506" y="320" name="W"/>
  <outline>
    <contour>
      <point x="50" y="0" type="line"/>
      <point x="268" y="0" type="line" smooth="yes"/>
      <point x="424" y="0"/>
      <point x="466" y="64"/>
      <point x="466" y="199" type="curve" smooth="yes"/>
      <point x="466" y="461" type="line" smooth="yes"/>
      <point x="466" y="596"/>
      <point x="424" y="650"/>
      <point x="268" y="650" type="curve"/>
      <point x="60" y="650" type="line"/>
      <point x="60" y="512" type="line"/>
      <point x="228" y="512" type="line"/>
      <point x="270" y="512"/>
      <point x="290" y="483"/>
      <point x="290" y="431" type="curve" smooth="yes"/>
      <point x="290" y="219" type="line" smooth="yes"/>
      <point x="290" y="167"/>
      <point x="270" y="138"/>
      <point x="228" y="138" type="curve" smooth="yes"/>
      <point x="50" y="138" type="line"/>
    </contour>
  </outline>
</glyph>
<glyph name="u16F04.lpo" format="2">
  <advance width="591"/>
  <anchor x="590" y="578" name="D"/>
  <anchor x="590" y="440" name="E"/>
  <anchor x="590" y="0" name="F"/>
  <anchor x="297" y="700" name="H"/>
  <anchor x="490" y="700" name="HD"/>
  <anchor x="590" y="220" name="K"/>
  <anchor x="297" y="-45" name="L"/>
  <anchor x="590" y="660" name="S"/>
  <anchor x="590" y="320" name="W"/>
  <outline>
    <contour>
      <point x="231" y="-12" type="curve" smooth="yes"/>
      <point x="387" y="-12"/>
      <point x="547" y="104"/>
      <point x="547" y="326" type="curve" smooth="yes"/>
      <point x="547" y="544"/>
      <point x="415" y="662"/>
      <point x="241" y="662" type="curve" smooth="yes"/>
      <point x="145" y="662"/>
      <point x="77" y="622"/>
      <point x="31" y="576" type="curve"/>
      <point x="121" y="466" type="line"/>
      <point x="153" y="494"/>
      <point x="189" y="514"/>
      <point x="233" y="514" type="curve" smooth="yes"/>
      <point x="309" y="514"/>
      <point x="371" y="438"/>
      <point x="371" y="320" type="curve" smooth="yes"/>
      <point x="371" y="198"/>
      <point x="319" y="136"/>
      <point x="235" y="136" type="curve" smooth="yes"/>
      <point x="185" y="136"/>
      <point x="141" y="162"/>
      <point x="113" y="192" type="curve"/>
      <point x="23" y="84" type="line"/>
      <point x="78" y="20"/>
      <point x="147" y="-12"/>
    </contour>
  </outline>
</glyph>
<glyph name="u16F04.narrow" format="2">
  <advance width="471"/>
  <anchor x="471" y="578" name="D"/>
  <anchor x="471" y="440" name="E"/>
  <anchor x="471" y="0" name="F"/>
  <anchor x="471" y="10" name="FR"/>
  <anchor x="241" y="700" name="H"/>
  <anchor x="371" y="700" name="HD"/>
  <anchor x="471" y="220" name="K"/>
  <anchor x="241" y="-45" name="L"/>
  <anchor x="471" y="660" name="S"/>
  <anchor x="471" y="650" name="SR"/>
  <anchor x="471" y="670" name="SRT"/>
  <anchor x="471" y="680" name="ST"/>
  <anchor x="471" y="320" name="W"/>
  <outline>
    <contour>
      <point x="50" y="0" type="line"/>
      <point x="87" y="0" type="line" smooth="yes"/>
      <point x="285" y="0"/>
      <point x="431" y="92"/>
      <point x="431" y="322" type="curve" smooth="yes"/>
      <point x="431" y="542"/>
      <point x="275" y="650"/>
      <point x="87" y="650" type="curve" smooth="yes"/>
      <point x="60" y="650" type="line"/>
      <point x="60" y="506" type="line"/>
      <point x="67" y="506" type="line" smooth="yes"/>
      <point x="161" y="506"/>
      <point x="255" y="464"/>
      <point x="255" y="322" type="curve" smooth="yes"/>
      <point x="255" y="170"/>
      <point x="161" y="144"/>
      <point x="67" y="144" type="curve" smooth="yes"/>
      <point x="50" y="144" type="line"/>
    </contour>
  </outline>
</glyph>
<glyph name="u16F10.hmdd" format="2">
  <advance width="534"/>
  <anchor x="534" y="578" name="D"/>
  <anchor x="534" y="440" name="E"/>
  <anchor x="534" y="0" name="F"/>
  <anchor x="266" y="700" name="H"/>
  <anchor x="454" y="700" name="HD"/>
  <anchor x="534" y="220" name="K"/>
  <anchor x="266" y="-45" name="L"/>
  <anchor x="534" y="660" name="S"/>
  <anchor x="434" y="320" name="W"/>
  <outline>
    <contour>
      <point x="494" y="0" type="line"/>
      <point x="494" y="138" type="line"/>
      <point x="303" y="138" type="line" smooth="yes"/>
      <point x="243" y="138"/>
      <point x="222" y="160"/>
      <point x="222" y="225" type="curve" smooth="yes"/>
      <point x="222" y="425" type="line" smooth="yes"/>
      <point x="222" y="490"/>
      <point x="237" y="512"/>
      <point x="303" y="512" type="curve" smooth="yes"/>
      <point x="484" y="512" type="line"/>
      <point x="484" y="650" type="line"/>
      <point x="243" y="650" type="line" smooth="yes"/>
      <point x="135" y="650"/>
      <point x="50" y="572"/>
      <point x="50" y="447" type="curve" smooth="yes"/>
      <point x="50" y="207" type="line" smooth="yes"/>
      <point x="50" y="90"/>
      <point x="135" y="0"/>
      <point x="243" y="0" type="curve" smooth="yes"/>
    </contour>
  </outline>
</glyph>
<glyph name="u16F10.lpo" format="2">
  <advance width="591"/>
  <anchor x="591" y="578" name="D"/>
  <anchor x="591" y="440" name="E"/>
  <anchor x="591" y="0" name="F"/>
  <anchor x="343" y="700" name="H"/>
  <anchor x="541" y="700" name="HD"/>
  <anchor x="591" y="220" name="K"/>
  <anchor x="343" y="-45" name="L"/>
  <anchor x="591" y="660" name="S"/>
  <anchor x="531" y="320" name="W"/>
  <outline>
    <contour>
      <point x="354" y="-12" type="curve" smooth="yes"/>
      <point x="438" y="-12"/>
      <point x="513" y="20"/>
      <point x="568" y="84" type="curve"/>
      <point x="478" y="192" type="line"/>
      <point x="450" y="162"/>
      <point x="410" y="136"/>
      <point x="360" y="136" type="curve" smooth="yes"/>
      <point x="276" y="136"/>
      <point x="220" y="204"/>
      <point x="220" y="326" type="curve" smooth="yes"/>
      <point x="220" y="444"/>
      <point x="286" y="514"/>
      <point x="362" y="514" type="curve" smooth="yes"/>
      <point x="406" y="514"/>
      <point x="438" y="494"/>
      <point x="470" y="466" type="curve"/>
      <point x="560" y="576" type="line"/>
      <point x="514" y="622"/>
      <point x="444" y="662"/>
      <point x="358" y="662" type="curve" smooth="yes"/>
      <point x="194" y="662"/>
      <point x="44" y="538"/>
      <point x="44" y="320" type="curve" smooth="yes"/>
      <point x="44" y="98"/>
      <point x="188" y="-12"/>
    </contour>
  </outline>
</glyph>
<glyph name="u16F10.narrow" format="2">
  <advance width="471"/>
  <anchor x="471" y="578" name="D"/>
  <anchor x="471" y="440" name="E"/>
  <anchor x="471" y="0" name="F"/>
  <anchor x="471" y="10" name="FR"/>
  <anchor x="240" y="700" name="H"/>
  <anchor x="421" y="700" name="HD"/>
  <anchor x="471" y="220" name="K"/>
  <anchor x="240" y="-45" name="L"/>
  <anchor x="471" y="660" name="S"/>
  <anchor x="471" y="650" name="SR"/>
  <anchor x="471" y="680" name="SRT"/>
  <anchor x="471" y="680" name="ST"/>
  <anchor x="411" y="320" name="W"/>
  <outline>
    <contour>
      <point x="384" y="0" type="curve" smooth="yes"/>
      <point x="421" y="0" type="line"/>
      <point x="421" y="144" type="line"/>
      <point x="404" y="144" type="line" smooth="yes"/>
      <point x="310" y="144"/>
      <point x="216" y="170"/>
      <point x="216" y="322" type="curve" smooth="yes"/>
      <point x="216" y="464"/>
      <point x="310" y="506"/>
      <point x="404" y="506" type="curve" smooth="yes"/>
      <point x="411" y="506" type="line"/>
      <point x="411" y="650" type="line"/>
      <point x="384" y="650" type="line" smooth="yes"/>
      <point x="196" y="650"/>
      <point x="40" y="542"/>
      <point x="40" y="322" type="curve" smooth="yes"/>
      <point x="40" y="92"/>
      <point x="186" y="0"/>
    </contour>
  </outline>
</glyph>
<glyph name="u16F14.flat" format="2">
  <advance width="616"/>
  <anchor x="616" y="578" name="D"/>
  <anchor x="616" y="440" name="E"/>
  <anchor x="616" y="0" name="F"/>
  <anchor x="338" y="700" name="H"/>
  <anchor x="566" y="700" name="HD"/>
  <anchor x="616" y="220" name="K"/>
  <anchor x="338" y="-45" name="L"/>
  <anchor x="616" y="660" name="S"/>
  <anchor x="616" y="320" name="W"/>
  <outline>
    <contour>
      <point x="225" y="0" type="curve" smooth="yes"/>
      <point x="556" y="0" type="line"/>
      <point x="556" y="138" type="line"/>
      <point x="305" y="138" type="line" smooth="yes"/>
      <point x="245" y="138"/>
      <point x="226" y="160"/>
      <point x="226" y="225" type="curve" smooth="yes"/>
      <point x="226" y="425" type="line" smooth="yes"/>
      <point x="226" y="500"/>
      <point x="245" y="522"/>
      <point x="305" y="522" type="curve" smooth="yes"/>
      <point x="332" y="522"/>
      <point x="335" y="522"/>
      <point x="364" y="522" type="curve"/>
      <point x="364" y="650" type="line"/>
      <point x="302" y="650"/>
      <point x="250" y="650"/>
      <point x="225" y="650" type="curve" smooth="yes"/>
      <point x="130" y="650"/>
      <point x="50" y="580"/>
      <point x="50" y="445" type="curve" smooth="yes"/>
      <point x="50" y="205" type="line" smooth="yes"/>
      <point x="50" y="70"/>
      <point x="130" y="0"/>
    </contour>
    <contour>
      <point x="364" y="650" type="curve" smooth="yes"/>
      <point x="341" y="650"/>
      <point x="313" y="532"/>
      <point x="349" y="532" type="curve"/>
      <point x="319" y="518"/>
      <point x="296" y="483"/>
      <point x="296" y="432" type="curve" smooth="yes"/>
      <point x="296" y="365"/>
      <point x="349" y="302"/>
      <point x="431" y="302" type="curve" smooth="yes"/>
      <point x="513" y="302"/>
      <point x="576" y="368"/>
      <point x="576" y="452" type="curve" smooth="yes"/>
      <point x="576" y="564"/>
      <point x="497" y="650"/>
    </contour>
    <contour>
      <point x="431" y="402" type="curve" smooth="yes"/>
      <point x="404" y="402"/>
      <point x="386" y="425"/>
      <point x="386" y="452" type="curve" smooth="yes"/>
      <point x="386" y="480"/>
      <point x="404" y="502"/>
      <point x="431" y="502" type="curve" smooth="yes"/>
      <point x="459" y="502"/>
      <point x="476" y="480"/>
      <point x="476" y="452" type="curve" smooth="yes"/>
      <point x="476" y="425"/>
      <point x="459" y="402"/>
    </contour>
  </outline>
</glyph>
